<?xml version="1.0" encoding="UTF-8" standalone="no"?>
<!DOCTYPE svg PUBLIC "-//W3C//DTD SVG 1.1//EN"
 "http://www.w3.org/Graphics/SVG/1.1/DTD/svg11.dtd">
<!-- Generated by graphviz version 2.38.0 (20140413.2041)
 -->
<!-- Title: /home/travis/build/STORM&#45;IRIT/OpenGR/src/gr/utils/sampling.h Pages: 1 -->
<!--zoomable 462 -->
<svg id="main" version="1.1" xmlns="http://www.w3.org/2000/svg" xmlns:xlink="http://www.w3.org/1999/xlink" xml:space="preserve" onload="init(evt)">
<style type="text/css"><![CDATA[
.edge:hover path { stroke: red; }
.edge:hover polygon { stroke: red; fill: red; }
]]></style>
<script type="text/javascript"><![CDATA[
var edges = document.getElementsByTagName('g');
if (edges && edges.length) {
  for (var i=0;i<edges.length;i++) {
    if (edges[i].id.substr(0,4)=='edge') {
      edges[i].setAttribute('class','edge');
    }
  }
}
]]></script>
        <defs>
                <circle id="rim" cx="0" cy="0" r="7"/>
                <circle id="rim2" cx="0" cy="0" r="3.5"/>
                <g id="zoomPlus">
                        <use xlink:href="#rim" fill="#404040">
                                <set attributeName="fill" to="#808080" begin="zoomplus.mouseover" end="zoomplus.mouseout"/>
                        </use>
                        <path d="M-4,0h8M0,-4v8" fill="none" stroke="white" stroke-width="1.5" pointer-events="none"/>
                </g>
                <g id="zoomMin">
                        <use xlink:href="#rim" fill="#404040">
                                <set attributeName="fill" to="#808080" begin="zoomminus.mouseover" end="zoomminus.mouseout"/>
                        </use>
                        <path d="M-4,0h8" fill="none" stroke="white" stroke-width="1.5" pointer-events="none"/>
                </g>
                <g id="dirArrow">
                        <path fill="none" stroke="white" stroke-width="1.5" d="M0,-3.0v7 M-2.5,-0.5L0,-3.0L2.5,-0.5"/>
                </g>
               <g id="resetDef">
                       <use xlink:href="#rim2" fill="#404040">
                               <set attributeName="fill" to="#808080" begin="reset.mouseover" end="reset.mouseout"/>
                       </use>
               </g>
        </defs>

<script type="text/javascript">
var viewWidth = 776;
var viewHeight = 462;
var sectionId = 'dynsection-1';
</script>
<script xlink:href="svgpan.js"/>
<svg id="graph" class="graph">
<g id="viewport">
<title>/home/travis/build/STORM&#45;IRIT/OpenGR/src/gr/utils/sampling.h</title>
<polygon fill="white" stroke="none" points="-4,4 -4,-458 772,-458 772,4 -4,4"/>
<!-- Node1 -->
<g id="node1" class="node"><title>Node1</title>
<polygon fill="#bfbfbf" stroke="black" points="301.5,-412.5 301.5,-453.5 433.5,-453.5 433.5,-412.5 301.5,-412.5"/>
<text text-anchor="start" x="309.5" y="-441.5" font-family="Helvetica,sans-Serif" font-size="10.00">/home/travis/build</text>
<text text-anchor="start" x="309.5" y="-430.5" font-family="Helvetica,sans-Serif" font-size="10.00">/STORM&#45;IRIT/OpenGR/src</text>
<text text-anchor="middle" x="367.5" y="-419.5" font-family="Helvetica,sans-Serif" font-size="10.00">/gr/utils/sampling.h</text>
</g>
<!-- Node2 -->
<g id="node2" class="node"><title>Node2</title>
<g id="a_node2"><a xlink:href="a00082.html" target="_top" xlink:title="/home/travis/build\l/STORM&#45;IRIT/OpenGR/src\l/gr/algorithms/congruentSetExploration\lBase.hpp">
<polygon fill="white" stroke="black" points="366,-323.5 366,-375.5 571,-375.5 571,-323.5 366,-323.5"/>
<text text-anchor="start" x="374" y="-363.5" font-family="Helvetica,sans-Serif" font-size="10.00">/home/travis/build</text>
<text text-anchor="start" x="374" y="-352.5" font-family="Helvetica,sans-Serif" font-size="10.00">/STORM&#45;IRIT/OpenGR/src</text>
<text text-anchor="start" x="374" y="-341.5" font-family="Helvetica,sans-Serif" font-size="10.00">/gr/algorithms/congruentSetExploration</text>
<text text-anchor="middle" x="468.5" y="-330.5" font-family="Helvetica,sans-Serif" font-size="10.00">Base.hpp</text>
</a>
</g>
</g>
<!-- Node1&#45;&gt;Node2 -->
<g id="edge1" class="edge"><title>Node1&#45;&gt;Node2</title>
<path fill="none" stroke="midnightblue" d="M399.709,-406.01C411.715,-396.322 425.316,-385.347 437.236,-375.728"/>
<polygon fill="midnightblue" stroke="midnightblue" points="397.276,-403.475 391.692,-412.479 401.672,-408.923 397.276,-403.475"/>
</g>
<!-- Node4 -->
<g id="node4" class="node"><title>Node4</title>
<g id="a_node4"><a xlink:href="a00086.html" target="_top" xlink:title="/home/travis/build\l/STORM&#45;IRIT/OpenGR/src\l/gr/algorithms/match3pcs.h">
<polygon fill="white" stroke="black" points="83,-156.5 83,-197.5 232,-197.5 232,-156.5 83,-156.5"/>
<text text-anchor="start" x="91" y="-185.5" font-family="Helvetica,sans-Serif" font-size="10.00">/home/travis/build</text>
<text text-anchor="start" x="91" y="-174.5" font-family="Helvetica,sans-Serif" font-size="10.00">/STORM&#45;IRIT/OpenGR/src</text>
<text text-anchor="middle" x="157.5" y="-163.5" font-family="Helvetica,sans-Serif" font-size="10.00">/gr/algorithms/match3pcs.h</text>
</a>
</g>
</g>
<!-- Node1&#45;&gt;Node4 -->
<g id="edge13" class="edge"><title>Node1&#45;&gt;Node4</title>
<path fill="none" stroke="midnightblue" d="M291.063,-425.593C253.877,-418.703 211.139,-404.621 182.5,-376 134.466,-327.995 145.329,-237.434 153.06,-197.62"/>
<polygon fill="midnightblue" stroke="midnightblue" points="290.942,-429.122 301.387,-427.351 292.117,-422.222 290.942,-429.122"/>
</g>
<!-- Node5 -->
<g id="node5" class="node"><title>Node5</title>
<g id="a_node5"><a xlink:href="a00087.html" target="_top" xlink:title="/home/travis/build\l/STORM&#45;IRIT/OpenGR/src\l/gr/algorithms/match3pcs.hpp">
<polygon fill="white" stroke="black" points="0,-78.5 0,-119.5 161,-119.5 161,-78.5 0,-78.5"/>
<text text-anchor="start" x="8" y="-107.5" font-family="Helvetica,sans-Serif" font-size="10.00">/home/travis/build</text>
<text text-anchor="start" x="8" y="-96.5" font-family="Helvetica,sans-Serif" font-size="10.00">/STORM&#45;IRIT/OpenGR/src</text>
<text text-anchor="middle" x="80.5" y="-85.5" font-family="Helvetica,sans-Serif" font-size="10.00">/gr/algorithms/match3pcs.hpp</text>
</a>
</g>
</g>
<!-- Node1&#45;&gt;Node5 -->
<g id="edge19" class="edge"><title>Node1&#45;&gt;Node5</title>
<path fill="none" stroke="midnightblue" d="M291.091,-428.75C245.62,-423.132 189.398,-409.267 150.5,-376 84.9941,-319.976 90.9739,-282.406 73.5,-198 67.9674,-171.275 72.0849,-139.675 75.9511,-119.733"/>
<polygon fill="midnightblue" stroke="midnightblue" points="290.882,-432.249 301.211,-429.888 291.665,-425.293 290.882,-432.249"/>
</g>
<!-- Node6 -->
<g id="node6" class="node"><title>Node6</title>
<g id="a_node6"><a xlink:href="a00088.html" target="_top" xlink:title="/home/travis/build\l/STORM&#45;IRIT/OpenGR/src\l/gr/algorithms/match4pcsBase.h">
<polygon fill="white" stroke="black" points="409,-156.5 409,-197.5 582,-197.5 582,-156.5 409,-156.5"/>
<text text-anchor="start" x="417" y="-185.5" font-family="Helvetica,sans-Serif" font-size="10.00">/home/travis/build</text>
<text text-anchor="start" x="417" y="-174.5" font-family="Helvetica,sans-Serif" font-size="10.00">/STORM&#45;IRIT/OpenGR/src</text>
<text text-anchor="middle" x="495.5" y="-163.5" font-family="Helvetica,sans-Serif" font-size="10.00">/gr/algorithms/match4pcsBase.h</text>
</a>
</g>
</g>
<!-- Node1&#45;&gt;Node6 -->
<g id="edge20" class="edge"><title>Node1&#45;&gt;Node6</title>
<path fill="none" stroke="midnightblue" d="M443.56,-421.786C497.331,-412.825 562.717,-397.792 579.5,-376 618.008,-325.999 609.279,-289.643 579.5,-234 571.147,-218.392 556.31,-206.383 541.406,-197.563"/>
<polygon fill="midnightblue" stroke="midnightblue" points="442.981,-418.335 433.669,-423.389 444.101,-425.244 442.981,-418.335"/>
</g>
<!-- Node8 -->
<g id="node8" class="node"><title>Node8</title>
<g id="a_node8"><a xlink:href="a00089.html" target="_top" xlink:title="/home/travis/build\l/STORM&#45;IRIT/OpenGR/src\l/gr/algorithms/match4pcsBase.hpp">
<polygon fill="white" stroke="black" points="583,-78.5 583,-119.5 768,-119.5 768,-78.5 583,-78.5"/>
<text text-anchor="start" x="591" y="-107.5" font-family="Helvetica,sans-Serif" font-size="10.00">/home/travis/build</text>
<text text-anchor="start" x="591" y="-96.5" font-family="Helvetica,sans-Serif" font-size="10.00">/STORM&#45;IRIT/OpenGR/src</text>
<text text-anchor="middle" x="675.5" y="-85.5" font-family="Helvetica,sans-Serif" font-size="10.00">/gr/algorithms/match4pcsBase.hpp</text>
</a>
</g>
</g>
<!-- Node1&#45;&gt;Node8 -->
<g id="edge21" class="edge"><title>Node1&#45;&gt;Node8</title>
<path fill="none" stroke="midnightblue" d="M443.75,-422.837C504.702,-413.978 583.603,-398.56 606.5,-376 678.801,-304.763 679.487,-170.045 676.945,-119.667"/>
<polygon fill="midnightblue" stroke="midnightblue" points="443.159,-419.385 433.75,-424.255 444.142,-426.316 443.159,-419.385"/>
</g>
<!-- Node11 -->
<g id="node11" class="node"><title>Node11</title>
<g id="a_node11"><a xlink:href="a00090.html" target="_top" xlink:title="/home/travis/build\l/STORM&#45;IRIT/OpenGR/src\l/gr/algorithms/matchBase.h">
<polygon fill="white" stroke="black" points="191.5,-329 191.5,-370 341.5,-370 341.5,-329 191.5,-329"/>
<text text-anchor="start" x="199.5" y="-358" font-family="Helvetica,sans-Serif" font-size="10.00">/home/travis/build</text>
<text text-anchor="start" x="199.5" y="-347" font-family="Helvetica,sans-Serif" font-size="10.00">/STORM&#45;IRIT/OpenGR/src</text>
<text text-anchor="middle" x="266.5" y="-336" font-family="Helvetica,sans-Serif" font-size="10.00">/gr/algorithms/matchBase.h</text>
</a>
</g>
</g>
<!-- Node1&#45;&gt;Node11 -->
<g id="edge14" class="edge"><title>Node1&#45;&gt;Node11</title>
<path fill="none" stroke="midnightblue" d="M335.149,-405.895C320.776,-394.297 304.14,-380.873 290.845,-370.144"/>
<polygon fill="midnightblue" stroke="midnightblue" points="333.328,-408.923 343.308,-412.479 337.724,-403.475 333.328,-408.923"/>
</g>
<!-- Node3 -->
<g id="node3" class="node"><title>Node3</title>
<g id="a_node3"><a xlink:href="a00081.html" target="_top" xlink:title="/home/travis/build\l/STORM&#45;IRIT/OpenGR/src\l/gr/algorithms/congruentSetExploration\lBase.h">
<polygon fill="white" stroke="black" points="366,-234.5 366,-286.5 571,-286.5 571,-234.5 366,-234.5"/>
<text text-anchor="start" x="374" y="-274.5" font-family="Helvetica,sans-Serif" font-size="10.00">/home/travis/build</text>
<text text-anchor="start" x="374" y="-263.5" font-family="Helvetica,sans-Serif" font-size="10.00">/STORM&#45;IRIT/OpenGR/src</text>
<text text-anchor="start" x="374" y="-252.5" font-family="Helvetica,sans-Serif" font-size="10.00">/gr/algorithms/congruentSetExploration</text>
<text text-anchor="middle" x="468.5" y="-241.5" font-family="Helvetica,sans-Serif" font-size="10.00">Base.h</text>
</a>
</g>
</g>
<!-- Node2&#45;&gt;Node3 -->
<g id="edge2" class="edge"><title>Node2&#45;&gt;Node3</title>
<path fill="none" stroke="midnightblue" d="M461.858,-313.191C461.621,-304.282 461.775,-294.899 462.318,-286.607"/>
<polygon fill="midnightblue" stroke="midnightblue" points="458.368,-313.503 462.314,-323.336 465.361,-313.189 458.368,-313.503"/>
</g>
<!-- Node3&#45;&gt;Node2 -->
<g id="edge3" class="edge"><title>Node3&#45;&gt;Node2</title>
<path fill="none" stroke="midnightblue" d="M475.141,-296.749C475.379,-305.655 475.227,-315.04 474.686,-323.336"/>
<polygon fill="midnightblue" stroke="midnightblue" points="478.631,-296.439 474.682,-286.607 471.638,-296.755 478.631,-296.439"/>
</g>
<!-- Node3&#45;&gt;Node4 -->
<g id="edge4" class="edge"><title>Node3&#45;&gt;Node4</title>
<path fill="none" stroke="midnightblue" d="M363.397,-231.957C320.268,-220.655 271.339,-207.832 232.003,-197.524"/>
<polygon fill="midnightblue" stroke="midnightblue" points="362.516,-235.344 373.076,-234.493 364.29,-228.573 362.516,-235.344"/>
</g>
<!-- Node3&#45;&gt;Node6 -->
<g id="edge7" class="edge"><title>Node3&#45;&gt;Node6</title>
<path fill="none" stroke="midnightblue" d="M480.115,-224.441C483.157,-215.258 486.329,-205.682 488.997,-197.628"/>
<polygon fill="midnightblue" stroke="midnightblue" points="476.717,-223.566 476.895,-234.16 483.362,-225.768 476.717,-223.566"/>
</g>
<!-- Node4&#45;&gt;Node5 -->
<g id="edge5" class="edge"><title>Node4&#45;&gt;Node5</title>
<path fill="none" stroke="midnightblue" d="M124.175,-149.492C113.685,-139.629 102.7,-128.627 94.2799,-119.506"/>
<polygon fill="midnightblue" stroke="midnightblue" points="121.962,-152.212 131.682,-156.428 126.713,-147.071 121.962,-152.212"/>
</g>
<!-- Node5&#45;&gt;Node4 -->
<g id="edge6" class="edge"><title>Node5&#45;&gt;Node4</title>
<path fill="none" stroke="midnightblue" d="M113.749,-126.437C124.237,-136.293 135.227,-147.297 143.659,-156.428"/>
<polygon fill="midnightblue" stroke="midnightblue" points="115.965,-123.719 106.244,-119.506 111.216,-128.862 115.965,-123.719"/>
</g>
<!-- Node7 -->
<g id="node7" class="node"><title>Node7</title>
<g id="a_node7"><a xlink:href="a00084.html" target="_top" xlink:title="/home/travis/build\l/STORM&#45;IRIT/OpenGR/src\l/gr/algorithms/FunctorBrute4pcs.h">
<polygon fill="white" stroke="black" points="179,-78.5 179,-119.5 358,-119.5 358,-78.5 179,-78.5"/>
<text text-anchor="start" x="187" y="-107.5" font-family="Helvetica,sans-Serif" font-size="10.00">/home/travis/build</text>
<text text-anchor="start" x="187" y="-96.5" font-family="Helvetica,sans-Serif" font-size="10.00">/STORM&#45;IRIT/OpenGR/src</text>
<text text-anchor="middle" x="268.5" y="-85.5" font-family="Helvetica,sans-Serif" font-size="10.00">/gr/algorithms/FunctorBrute4pcs.h</text>
</a>
</g>
</g>
<!-- Node6&#45;&gt;Node7 -->
<g id="edge8" class="edge"><title>Node6&#45;&gt;Node7</title>
<path fill="none" stroke="midnightblue" d="M427.296,-153.165C395.251,-142.437 357.444,-129.779 326.76,-119.506"/>
<polygon fill="midnightblue" stroke="midnightblue" points="426.448,-156.572 437.042,-156.428 428.67,-149.934 426.448,-156.572"/>
</g>
<!-- Node6&#45;&gt;Node8 -->
<g id="edge9" class="edge"><title>Node6&#45;&gt;Node8</title>
<path fill="none" stroke="midnightblue" d="M545.259,-152.329C569.548,-141.783 598.717,-129.513 623.32,-119.506"/>
<polygon fill="midnightblue" stroke="midnightblue" points="543.631,-149.22 535.866,-156.428 546.431,-155.636 543.631,-149.22"/>
</g>
<!-- Node9 -->
<g id="node9" class="node"><title>Node9</title>
<g id="a_node9"><a xlink:href="a00092.html" target="_top" xlink:title="/home/travis/build\l/STORM&#45;IRIT/OpenGR/src\l/gr/algorithms/pairCreationFunctor.h">
<polygon fill="white" stroke="black" points="376.5,-78.5 376.5,-119.5 564.5,-119.5 564.5,-78.5 376.5,-78.5"/>
<text text-anchor="start" x="384.5" y="-107.5" font-family="Helvetica,sans-Serif" font-size="10.00">/home/travis/build</text>
<text text-anchor="start" x="384.5" y="-96.5" font-family="Helvetica,sans-Serif" font-size="10.00">/STORM&#45;IRIT/OpenGR/src</text>
<text text-anchor="middle" x="470.5" y="-85.5" font-family="Helvetica,sans-Serif" font-size="10.00">/gr/algorithms/pairCreationFunctor.h</text>
</a>
</g>
</g>
<!-- Node6&#45;&gt;Node9 -->
<g id="edge11" class="edge"><title>Node6&#45;&gt;Node9</title>
<path fill="none" stroke="midnightblue" d="M485.922,-146.882C482.908,-137.721 479.655,-127.83 476.916,-119.506"/>
<polygon fill="midnightblue" stroke="midnightblue" points="482.612,-148.023 489.062,-156.428 489.262,-145.835 482.612,-148.023"/>
</g>
<!-- Node8&#45;&gt;Node6 -->
<g id="edge10" class="edge"><title>Node8&#45;&gt;Node6</title>
<path fill="none" stroke="midnightblue" d="M625.902,-123.601C601.635,-134.139 572.466,-146.411 547.843,-156.428"/>
<polygon fill="midnightblue" stroke="midnightblue" points="627.52,-126.714 635.285,-119.506 624.72,-120.298 627.52,-126.714"/>
</g>
<!-- Node10 -->
<g id="node10" class="node"><title>Node10</title>
<g id="a_node10"><a xlink:href="a00085.html" target="_top" xlink:title="/home/travis/build\l/STORM&#45;IRIT/OpenGR/src\l/gr/algorithms/FunctorSuper4pcs.h">
<polygon fill="white" stroke="black" points="379.5,-0.5 379.5,-41.5 561.5,-41.5 561.5,-0.5 379.5,-0.5"/>
<text text-anchor="start" x="387.5" y="-29.5" font-family="Helvetica,sans-Serif" font-size="10.00">/home/travis/build</text>
<text text-anchor="start" x="387.5" y="-18.5" font-family="Helvetica,sans-Serif" font-size="10.00">/STORM&#45;IRIT/OpenGR/src</text>
<text text-anchor="middle" x="470.5" y="-7.5" font-family="Helvetica,sans-Serif" font-size="10.00">/gr/algorithms/FunctorSuper4pcs.h</text>
</a>
</g>
</g>
<!-- Node9&#45;&gt;Node10 -->
<g id="edge12" class="edge"><title>Node9&#45;&gt;Node10</title>
<path fill="none" stroke="midnightblue" d="M470.5,-68.2965C470.5,-59.3009 470.5,-49.6532 470.5,-41.5056"/>
<polygon fill="midnightblue" stroke="midnightblue" points="467,-68.4281 470.5,-78.4281 474,-68.4281 467,-68.4281"/>
</g>
<!-- Node11&#45;&gt;Node3 -->
<g id="edge15" class="edge"><title>Node11&#45;&gt;Node3</title>
<path fill="none" stroke="midnightblue" d="M321.314,-324.892C348.861,-313.028 382.249,-298.648 410.257,-286.585"/>
<polygon fill="midnightblue" stroke="midnightblue" points="319.633,-321.805 311.833,-328.976 322.402,-328.234 319.633,-321.805"/>
</g>
<!-- Node11&#45;&gt;Node4 -->
<g id="edge16" class="edge"><title>Node11&#45;&gt;Node4</title>
<path fill="none" stroke="midnightblue" d="M215.383,-323.642C200.704,-314.125 186.091,-301.898 176.5,-287 158.928,-259.704 156.276,-220.944 156.503,-197.752"/>
<polygon fill="midnightblue" stroke="midnightblue" points="213.644,-326.681 223.997,-328.931 217.307,-320.716 213.644,-326.681"/>
</g>
<!-- Node12 -->
<g id="node12" class="node"><title>Node12</title>
<g id="a_node12"><a xlink:href="a00091.html" target="_top" xlink:title="/home/travis/build\l/STORM&#45;IRIT/OpenGR/src\l/gr/algorithms/matchBase.hpp">
<polygon fill="white" stroke="black" points="185.5,-240 185.5,-281 347.5,-281 347.5,-240 185.5,-240"/>
<text text-anchor="start" x="193.5" y="-269" font-family="Helvetica,sans-Serif" font-size="10.00">/home/travis/build</text>
<text text-anchor="start" x="193.5" y="-258" font-family="Helvetica,sans-Serif" font-size="10.00">/STORM&#45;IRIT/OpenGR/src</text>
<text text-anchor="middle" x="266.5" y="-247" font-family="Helvetica,sans-Serif" font-size="10.00">/gr/algorithms/matchBase.hpp</text>
</a>
</g>
</g>
<!-- Node11&#45;&gt;Node12 -->
<g id="edge17" class="edge"><title>Node11&#45;&gt;Node12</title>
<path fill="none" stroke="midnightblue" d="M260.045,-318.441C259.487,-306.101 259.721,-292.162 260.746,-281.164"/>
<polygon fill="midnightblue" stroke="midnightblue" points="256.576,-319.016 260.739,-328.758 263.56,-318.546 256.576,-319.016"/>
</g>
<!-- Node12&#45;&gt;Node11 -->
<g id="edge18" class="edge"><title>Node12&#45;&gt;Node11</title>
<path fill="none" stroke="midnightblue" d="M272.951,-291.472C273.513,-303.803 273.283,-317.746 272.261,-328.758"/>
<polygon fill="midnightblue" stroke="midnightblue" points="276.421,-290.904 272.254,-281.164 269.437,-291.377 276.421,-290.904"/>
</g>
</g>
</svg>
        <g id="navigator" transform="translate(0 0)" fill="#404254">
                <rect fill="#f2f5e9" fill-opacity="0.5" stroke="#606060" stroke-width=".5" x="0" y="0" width="60" height="60"/>
                <use id="zoomplus" xlink:href="#zoomPlus" x="17" y="9" onmousedown="handleZoom(evt,'in')"/>
                <use id="zoomminus" xlink:href="#zoomMin" x="42" y="9" onmousedown="handleZoom(evt,'out')"/>
                <use id="reset" xlink:href="#resetDef" x="30" y="36" onmousedown="handleReset()"/>
                <g id="arrowUp" xlink:href="#dirArrow" transform="translate(30 24)" onmousedown="handlePan(0,-1)">
                  <use xlink:href="#rim" fill="#404040">
                        <set attributeName="fill" to="#808080" begin="arrowUp.mouseover" end="arrowUp.mouseout"/>
                  </use>
                  <path fill="none" stroke="white" stroke-width="1.5" d="M0,-3.0v7 M-2.5,-0.5L0,-3.0L2.5,-0.5"/>
                </g>
                <g id="arrowRight" xlink:href="#dirArrow" transform="rotate(90) translate(36 -43)" onmousedown="handlePan(1,0)">
                  <use xlink:href="#rim" fill="#404040">
                        <set attributeName="fill" to="#808080" begin="arrowRight.mouseover" end="arrowRight.mouseout"/>
                  </use>
                  <path fill="none" stroke="white" stroke-width="1.5" d="M0,-3.0v7 M-2.5,-0.5L0,-3.0L2.5,-0.5"/>
                </g>
                <g id="arrowDown" xlink:href="#dirArrow" transform="rotate(180) translate(-30 -48)" onmousedown="handlePan(0,1)">
                  <use xlink:href="#rim" fill="#404040">
                        <set attributeName="fill" to="#808080" begin="arrowDown.mouseover" end="arrowDown.mouseout"/>
                  </use>
                  <path fill="none" stroke="white" stroke-width="1.5" d="M0,-3.0v7 M-2.5,-0.5L0,-3.0L2.5,-0.5"/>
                </g>
                <g id="arrowLeft" xlink:href="#dirArrow" transform="rotate(270) translate(-36 17)" onmousedown="handlePan(-1,0)">
                  <use xlink:href="#rim" fill="#404040">
                        <set attributeName="fill" to="#808080" begin="arrowLeft.mouseover" end="arrowLeft.mouseout"/>
                  </use>
                  <path fill="none" stroke="white" stroke-width="1.5" d="M0,-3.0v7 M-2.5,-0.5L0,-3.0L2.5,-0.5"/>
                </g>
        </g>
        <svg viewBox="0 0 15 15" width="100%" height="30px" preserveAspectRatio="xMaxYMin meet">
         <g id="arrow_out" transform="scale(0.3 0.3)">
          <a xlink:href="a00154_org.svg" target="_base">
           <rect id="button" ry="5" rx="5" y="6" x="6" height="38" width="38"
                fill="#f2f5e9" fill-opacity="0.5" stroke="#606060" stroke-width="1.0"/>
           <path id="arrow"
             d="M 11.500037,31.436501 C 11.940474,20.09759 22.043105,11.32322 32.158766,21.979434 L 37.068811,17.246167 C 37.068811,17.246167 37.088388,32 37.088388,32 L 22.160133,31.978069 C 22.160133,31.978069 26.997745,27.140456 26.997745,27.140456 C 18.528582,18.264221 13.291696,25.230495 11.500037,31.436501 z"
             style="fill:#404040;"/>
          </a>
         </g>
        </svg>
</svg>
