<?xml version="1.0" encoding="UTF-8" standalone="no"?>
<!DOCTYPE svg PUBLIC "-//W3C//DTD SVG 1.1//EN"
 "http://www.w3.org/Graphics/SVG/1.1/DTD/svg11.dtd">
<!-- Generated by graphviz version 2.38.0 (20140413.2041)
 -->
<!-- Title: /home/travis/build/STORM&#45;IRIT/OpenGR/src/gr/utils/sampling.h Pages: 1 -->
<svg width="578pt" height="162pt"
 viewBox="0.00 0.00 578.00 162.00" xmlns="http://www.w3.org/2000/svg" xmlns:xlink="http://www.w3.org/1999/xlink">
<g id="graph0" class="graph" transform="scale(1 1) rotate(0) translate(4 158)">
<title>/home/travis/build/STORM&#45;IRIT/OpenGR/src/gr/utils/sampling.h</title>
<polygon fill="white" stroke="none" points="-4,4 -4,-158 574,-158 574,4 -4,4"/>
<!-- Node1 -->
<g id="node1" class="node"><title>Node1</title>
<polygon fill="#bfbfbf" stroke="black" points="19.5,-112.5 19.5,-153.5 151.5,-153.5 151.5,-112.5 19.5,-112.5"/>
<text text-anchor="start" x="27.5" y="-141.5" font-family="Helvetica,sans-Serif" font-size="10.00">/home/travis/build</text>
<text text-anchor="start" x="27.5" y="-130.5" font-family="Helvetica,sans-Serif" font-size="10.00">/STORM&#45;IRIT/OpenGR/src</text>
<text text-anchor="middle" x="85.5" y="-119.5" font-family="Helvetica,sans-Serif" font-size="10.00">/gr/utils/sampling.h</text>
</g>
<!-- Node2 -->
<g id="node2" class="node"><title>Node2</title>
<polygon fill="white" stroke="#bfbfbf" points="0,-0.5 0,-19.5 47,-19.5 47,-0.5 0,-0.5"/>
<text text-anchor="middle" x="23.5" y="-7.5" font-family="Helvetica,sans-Serif" font-size="10.00">vector</text>
</g>
<!-- Node1&#45;&gt;Node2 -->
<g id="edge1" class="edge"><title>Node1&#45;&gt;Node2</title>
<path fill="none" stroke="midnightblue" d="M75.4006,-112.29C63.4982,-89.061 43.9013,-50.8154 32.4989,-28.5624"/>
<polygon fill="midnightblue" stroke="midnightblue" points="35.5688,-26.8784 27.8937,-19.5748 29.339,-30.0706 35.5688,-26.8784"/>
</g>
<!-- Node3 -->
<g id="node3" class="node"><title>Node3</title>
<polygon fill="white" stroke="#bfbfbf" points="65,-0.5 65,-19.5 106,-19.5 106,-0.5 65,-0.5"/>
<text text-anchor="middle" x="85.5" y="-7.5" font-family="Helvetica,sans-Serif" font-size="10.00">array</text>
</g>
<!-- Node1&#45;&gt;Node3 -->
<g id="edge2" class="edge"><title>Node1&#45;&gt;Node3</title>
<path fill="none" stroke="midnightblue" d="M85.5,-112.29C85.5,-89.4795 85.5,-52.1888 85.5,-29.7807"/>
<polygon fill="midnightblue" stroke="midnightblue" points="89.0001,-29.5748 85.5,-19.5748 82.0001,-29.5748 89.0001,-29.5748"/>
</g>
<!-- Node4 -->
<g id="node4" class="node"><title>Node4</title>
<g id="a_node4"><a xlink:href="a00100.html" target="_top" xlink:title="gr/utils/shared.h">
<polygon fill="white" stroke="black" points="153.5,-56.5 153.5,-75.5 247.5,-75.5 247.5,-56.5 153.5,-56.5"/>
<text text-anchor="middle" x="200.5" y="-63.5" font-family="Helvetica,sans-Serif" font-size="10.00">gr/utils/shared.h</text>
</a>
</g>
</g>
<!-- Node1&#45;&gt;Node4 -->
<g id="edge3" class="edge"><title>Node1&#45;&gt;Node4</title>
<path fill="none" stroke="midnightblue" d="M120.004,-112.498C138.144,-102.245 159.94,-89.925 176.275,-80.6927"/>
<polygon fill="midnightblue" stroke="midnightblue" points="178.208,-83.6201 185.192,-75.6525 174.764,-77.5261 178.208,-83.6201"/>
</g>
<!-- Node4&#45;&gt;Node2 -->
<g id="edge6" class="edge"><title>Node4&#45;&gt;Node2</title>
<path fill="none" stroke="midnightblue" d="M172.454,-56.4435C141.093,-46.8758 90.332,-31.3894 56.9335,-21.2001"/>
<polygon fill="midnightblue" stroke="midnightblue" points="57.7527,-17.7908 47.1666,-18.2203 55.71,-24.4861 57.7527,-17.7908"/>
</g>
<!-- Node4&#45;&gt;Node3 -->
<g id="edge9" class="edge"><title>Node4&#45;&gt;Node3</title>
<path fill="none" stroke="midnightblue" d="M182.278,-56.4435C163.604,-47.6751 134.344,-33.9355 112.883,-23.8579"/>
<polygon fill="midnightblue" stroke="midnightblue" points="114.176,-20.5988 103.637,-19.5164 111.201,-26.935 114.176,-20.5988"/>
</g>
<!-- Node5 -->
<g id="node5" class="node"><title>Node5</title>
<g id="a_node5"><a xlink:href="a00095.html" target="_top" xlink:title="gr/utils/disablewarnings.h">
<polygon fill="white" stroke="black" points="433,-0.5 433,-19.5 570,-19.5 570,-0.5 433,-0.5"/>
<text text-anchor="middle" x="501.5" y="-7.5" font-family="Helvetica,sans-Serif" font-size="10.00">gr/utils/disablewarnings.h</text>
</a>
</g>
</g>
<!-- Node4&#45;&gt;Node5 -->
<g id="edge4" class="edge"><title>Node4&#45;&gt;Node5</title>
<path fill="none" stroke="midnightblue" d="M247.531,-56.5625C300.564,-47.0483 386.819,-31.5739 443.861,-21.3406"/>
<polygon fill="midnightblue" stroke="midnightblue" points="444.581,-24.7674 453.806,-19.5565 443.345,-17.8774 444.581,-24.7674"/>
</g>
<!-- Node6 -->
<g id="node6" class="node"><title>Node6</title>
<polygon fill="white" stroke="#bfbfbf" points="124.5,-0.5 124.5,-19.5 192.5,-19.5 192.5,-0.5 124.5,-0.5"/>
<text text-anchor="middle" x="158.5" y="-7.5" font-family="Helvetica,sans-Serif" font-size="10.00">Eigen/Core</text>
</g>
<!-- Node4&#45;&gt;Node6 -->
<g id="edge5" class="edge"><title>Node4&#45;&gt;Node6</title>
<path fill="none" stroke="midnightblue" d="M193.565,-56.083C187.571,-48.3768 178.748,-37.0333 171.452,-27.6531"/>
<polygon fill="midnightblue" stroke="midnightblue" points="174.209,-25.4958 165.306,-19.7511 168.683,-29.7934 174.209,-25.4958"/>
</g>
<!-- Node7 -->
<g id="node7" class="node"><title>Node7</title>
<polygon fill="white" stroke="#bfbfbf" points="211,-0.5 211,-19.5 270,-19.5 270,-0.5 211,-0.5"/>
<text text-anchor="middle" x="240.5" y="-7.5" font-family="Helvetica,sans-Serif" font-size="10.00">iostream</text>
</g>
<!-- Node4&#45;&gt;Node7 -->
<g id="edge7" class="edge"><title>Node4&#45;&gt;Node7</title>
<path fill="none" stroke="midnightblue" d="M207.105,-56.083C212.755,-48.4554 221.045,-37.2645 227.951,-27.9408"/>
<polygon fill="midnightblue" stroke="midnightblue" points="230.878,-29.87 234.018,-19.7511 225.253,-25.7034 230.878,-29.87"/>
</g>
<!-- Node8 -->
<g id="node8" class="node"><title>Node8</title>
<polygon fill="white" stroke="#bfbfbf" points="288.5,-0.5 288.5,-19.5 342.5,-19.5 342.5,-0.5 288.5,-0.5"/>
<text text-anchor="middle" x="315.5" y="-7.5" font-family="Helvetica,sans-Serif" font-size="10.00">fstream</text>
</g>
<!-- Node4&#45;&gt;Node8 -->
<g id="edge8" class="edge"><title>Node4&#45;&gt;Node8</title>
<path fill="none" stroke="midnightblue" d="M218.722,-56.4435C237.396,-47.6751 266.656,-33.9355 288.117,-23.8579"/>
<polygon fill="midnightblue" stroke="midnightblue" points="289.799,-26.935 297.363,-19.5164 286.824,-20.5988 289.799,-26.935"/>
</g>
<!-- Node9 -->
<g id="node9" class="node"><title>Node9</title>
<polygon fill="white" stroke="#bfbfbf" points="360.5,-0.5 360.5,-19.5 414.5,-19.5 414.5,-0.5 360.5,-0.5"/>
<text text-anchor="middle" x="387.5" y="-7.5" font-family="Helvetica,sans-Serif" font-size="10.00">random</text>
</g>
<!-- Node4&#45;&gt;Node9 -->
<g id="edge10" class="edge"><title>Node4&#45;&gt;Node9</title>
<path fill="none" stroke="midnightblue" d="M230.131,-56.4435C262.75,-47.0241 315.235,-31.8679 350.525,-21.6774"/>
<polygon fill="midnightblue" stroke="midnightblue" points="351.8,-24.9521 360.437,-18.8151 349.858,-18.2269 351.8,-24.9521"/>
</g>
</g>
</svg>
