<?xml version="1.0" encoding="UTF-8" standalone="no"?>
<!DOCTYPE svg PUBLIC "-//W3C//DTD SVG 1.1//EN"
 "http://www.w3.org/Graphics/SVG/1.1/DTD/svg11.dtd">
<!-- Generated by graphviz version 2.38.0 (20140413.2041)
 -->
<!-- Title: /home/travis/build/STORM&#45;IRIT/OpenGR/src/gr/accelerators/normalHealSet.h Pages: 1 -->
<svg width="608pt" height="162pt"
 viewBox="0.00 0.00 607.50 162.00" xmlns="http://www.w3.org/2000/svg" xmlns:xlink="http://www.w3.org/1999/xlink">
<g id="graph0" class="graph" transform="scale(1 1) rotate(0) translate(4 158)">
<title>/home/travis/build/STORM&#45;IRIT/OpenGR/src/gr/accelerators/normalHealSet.h</title>
<polygon fill="white" stroke="none" points="-4,4 -4,-158 603.5,-158 603.5,4 -4,4"/>
<!-- Node1 -->
<g id="node1" class="node"><title>Node1</title>
<polygon fill="#bfbfbf" stroke="black" points="276.5,-112.5 276.5,-153.5 452.5,-153.5 452.5,-112.5 276.5,-112.5"/>
<text text-anchor="start" x="284.5" y="-141.5" font-family="Helvetica,sans-Serif" font-size="10.00">/home/travis/build</text>
<text text-anchor="start" x="284.5" y="-130.5" font-family="Helvetica,sans-Serif" font-size="10.00">/STORM&#45;IRIT/OpenGR/src</text>
<text text-anchor="middle" x="364.5" y="-119.5" font-family="Helvetica,sans-Serif" font-size="10.00">/gr/accelerators/normalHealSet.h</text>
</g>
<!-- Node2 -->
<g id="node2" class="node"><title>Node2</title>
<g id="a_node2"><a xlink:href="a00095.html" target="_top" xlink:title="gr/utils/disablewarnings.h">
<polygon fill="white" stroke="black" points="0,-56.5 0,-75.5 137,-75.5 137,-56.5 0,-56.5"/>
<text text-anchor="middle" x="68.5" y="-63.5" font-family="Helvetica,sans-Serif" font-size="10.00">gr/utils/disablewarnings.h</text>
</a>
</g>
</g>
<!-- Node1&#45;&gt;Node2 -->
<g id="edge1" class="edge"><title>Node1&#45;&gt;Node2</title>
<path fill="none" stroke="midnightblue" d="M276.492,-112.674C224.428,-101.241 160.443,-87.1901 117.299,-77.7161"/>
<polygon fill="midnightblue" stroke="midnightblue" points="117.86,-74.2558 107.342,-75.5294 116.358,-81.0929 117.86,-74.2558"/>
</g>
<!-- Node3 -->
<g id="node3" class="node"><title>Node3</title>
<g id="a_node3"><a xlink:href="a00080.html" target="_top" xlink:title="gr/accelerators/utils.h">
<polygon fill="white" stroke="black" points="155.5,-56.5 155.5,-75.5 275.5,-75.5 275.5,-56.5 155.5,-56.5"/>
<text text-anchor="middle" x="215.5" y="-63.5" font-family="Helvetica,sans-Serif" font-size="10.00">gr/accelerators/utils.h</text>
</a>
</g>
</g>
<!-- Node1&#45;&gt;Node3 -->
<g id="edge2" class="edge"><title>Node1&#45;&gt;Node3</title>
<path fill="none" stroke="midnightblue" d="M319.795,-112.498C295.413,-101.861 265.933,-89.001 244.545,-79.6705"/>
<polygon fill="midnightblue" stroke="midnightblue" points="245.899,-76.443 235.334,-75.6525 243.1,-82.8591 245.899,-76.443"/>
</g>
<!-- Node6 -->
<g id="node6" class="node"><title>Node6</title>
<polygon fill="white" stroke="#bfbfbf" points="280,-0.5 280,-19.5 327,-19.5 327,-0.5 280,-0.5"/>
<text text-anchor="middle" x="303.5" y="-7.5" font-family="Helvetica,sans-Serif" font-size="10.00">cmath</text>
</g>
<!-- Node1&#45;&gt;Node6 -->
<g id="edge11" class="edge"><title>Node1&#45;&gt;Node6</title>
<path fill="none" stroke="midnightblue" d="M347.573,-112.32C339.401,-102.035 329.987,-88.9225 323.5,-76 316.051,-61.1613 310.751,-43.0112 307.486,-29.6653"/>
<polygon fill="midnightblue" stroke="midnightblue" points="310.863,-28.7302 305.221,-19.7629 304.039,-30.2916 310.863,-28.7302"/>
</g>
<!-- Node8 -->
<g id="node8" class="node"><title>Node8</title>
<polygon fill="white" stroke="#bfbfbf" points="332,-56.5 332,-75.5 397,-75.5 397,-56.5 332,-56.5"/>
<text text-anchor="middle" x="364.5" y="-63.5" font-family="Helvetica,sans-Serif" font-size="10.00">chealpix.h</text>
</g>
<!-- Node1&#45;&gt;Node8 -->
<g id="edge7" class="edge"><title>Node1&#45;&gt;Node8</title>
<path fill="none" stroke="midnightblue" d="M364.5,-112.498C364.5,-104.065 364.5,-94.2351 364.5,-85.874"/>
<polygon fill="midnightblue" stroke="midnightblue" points="368,-85.6525 364.5,-75.6525 361,-85.6525 368,-85.6525"/>
</g>
<!-- Node9 -->
<g id="node9" class="node"><title>Node9</title>
<polygon fill="white" stroke="#bfbfbf" points="415.5,-56.5 415.5,-75.5 483.5,-75.5 483.5,-56.5 415.5,-56.5"/>
<text text-anchor="middle" x="449.5" y="-63.5" font-family="Helvetica,sans-Serif" font-size="10.00">Eigen/Core</text>
</g>
<!-- Node1&#45;&gt;Node9 -->
<g id="edge8" class="edge"><title>Node1&#45;&gt;Node9</title>
<path fill="none" stroke="midnightblue" d="M390.003,-112.498C402.91,-102.628 418.32,-90.8432 430.224,-81.7407"/>
<polygon fill="midnightblue" stroke="midnightblue" points="432.368,-84.5073 438.185,-75.6525 428.116,-78.9468 432.368,-84.5073"/>
</g>
<!-- Node10 -->
<g id="node10" class="node"><title>Node10</title>
<polygon fill="white" stroke="#bfbfbf" points="502,-56.5 502,-75.5 549,-75.5 549,-56.5 502,-56.5"/>
<text text-anchor="middle" x="525.5" y="-63.5" font-family="Helvetica,sans-Serif" font-size="10.00">vector</text>
</g>
<!-- Node1&#45;&gt;Node10 -->
<g id="edge9" class="edge"><title>Node1&#45;&gt;Node10</title>
<path fill="none" stroke="midnightblue" d="M412.805,-112.498C439.388,-101.766 471.579,-88.7691 494.739,-79.4192"/>
<polygon fill="midnightblue" stroke="midnightblue" points="496.106,-82.6417 504.068,-75.6525 493.485,-76.1507 496.106,-82.6417"/>
</g>
<!-- Node11 -->
<g id="node11" class="node"><title>Node11</title>
<polygon fill="white" stroke="#bfbfbf" points="567.5,-56.5 567.5,-75.5 599.5,-75.5 599.5,-56.5 567.5,-56.5"/>
<text text-anchor="middle" x="583.5" y="-63.5" font-family="Helvetica,sans-Serif" font-size="10.00">set</text>
</g>
<!-- Node1&#45;&gt;Node11 -->
<g id="edge10" class="edge"><title>Node1&#45;&gt;Node11</title>
<path fill="none" stroke="midnightblue" d="M436.241,-112.484C470.537,-102.872 512.331,-90.755 557.684,-76.1236"/>
<polygon fill="midnightblue" stroke="midnightblue" points="558.985,-79.3812 567.415,-72.9633 556.822,-72.7235 558.985,-79.3812"/>
</g>
<!-- Node4 -->
<g id="node4" class="node"><title>Node4</title>
<polygon fill="white" stroke="#bfbfbf" points="76.5,-0.5 76.5,-19.5 120.5,-19.5 120.5,-0.5 76.5,-0.5"/>
<text text-anchor="middle" x="98.5" y="-7.5" font-family="Helvetica,sans-Serif" font-size="10.00">string</text>
</g>
<!-- Node3&#45;&gt;Node4 -->
<g id="edge3" class="edge"><title>Node3&#45;&gt;Node4</title>
<path fill="none" stroke="midnightblue" d="M196.961,-56.4435C177.877,-47.6356 147.925,-33.8116 126.064,-23.722"/>
<polygon fill="midnightblue" stroke="midnightblue" points="127.499,-20.5292 116.952,-19.5164 124.565,-26.8849 127.499,-20.5292"/>
</g>
<!-- Node5 -->
<g id="node5" class="node"><title>Node5</title>
<polygon fill="white" stroke="#bfbfbf" points="138.5,-0.5 138.5,-19.5 202.5,-19.5 202.5,-0.5 138.5,-0.5"/>
<text text-anchor="middle" x="170.5" y="-7.5" font-family="Helvetica,sans-Serif" font-size="10.00">stdexcept</text>
</g>
<!-- Node3&#45;&gt;Node5 -->
<g id="edge4" class="edge"><title>Node3&#45;&gt;Node5</title>
<path fill="none" stroke="midnightblue" d="M208.069,-56.083C201.647,-48.3768 192.194,-37.0333 184.378,-27.6531"/>
<polygon fill="midnightblue" stroke="midnightblue" points="186.883,-25.1927 177.793,-19.7511 181.506,-29.674 186.883,-25.1927"/>
</g>
<!-- Node3&#45;&gt;Node6 -->
<g id="edge5" class="edge"><title>Node3&#45;&gt;Node6</title>
<path fill="none" stroke="midnightblue" d="M229.639,-56.324C243.366,-47.9002 264.436,-34.9709 280.564,-25.0741"/>
<polygon fill="midnightblue" stroke="midnightblue" points="282.704,-27.8678 289.396,-19.6545 279.043,-21.9016 282.704,-27.8678"/>
</g>
<!-- Node7 -->
<g id="node7" class="node"><title>Node7</title>
<polygon fill="white" stroke="#bfbfbf" points="221,-0.5 221,-19.5 262,-19.5 262,-0.5 221,-0.5"/>
<text text-anchor="middle" x="241.5" y="-7.5" font-family="Helvetica,sans-Serif" font-size="10.00">array</text>
</g>
<!-- Node3&#45;&gt;Node7 -->
<g id="edge6" class="edge"><title>Node3&#45;&gt;Node7</title>
<path fill="none" stroke="midnightblue" d="M219.793,-56.083C223.352,-48.6913 228.522,-37.9533 232.924,-28.8111"/>
<polygon fill="midnightblue" stroke="midnightblue" points="236.102,-30.2795 237.287,-19.7511 229.795,-27.2427 236.102,-30.2795"/>
</g>
</g>
</svg>
