<?xml version="1.0" encoding="UTF-8" standalone="no"?>
<!DOCTYPE svg PUBLIC "-//W3C//DTD SVG 1.1//EN"
 "http://www.w3.org/Graphics/SVG/1.1/DTD/svg11.dtd">
<!-- Generated by graphviz version 2.38.0 (20140413.2041)
 -->
<!-- Title: /home/travis/build/STORM&#45;IRIT/OpenGR/src/gr/algorithms/matchBase.hpp Pages: 1 -->
<svg width="5205pt" height="307pt"
 viewBox="0.00 0.00 5204.50 307.00" xmlns="http://www.w3.org/2000/svg" xmlns:xlink="http://www.w3.org/1999/xlink">
<g id="graph0" class="graph" transform="scale(1 1) rotate(0) translate(4 303)">
<title>/home/travis/build/STORM&#45;IRIT/OpenGR/src/gr/algorithms/matchBase.hpp</title>
<polygon fill="white" stroke="none" points="-4,4 -4,-303 5200.5,-303 5200.5,4 -4,4"/>
<!-- Node1 -->
<g id="node1" class="node"><title>Node1</title>
<polygon fill="#bfbfbf" stroke="black" points="4755,-257.5 4755,-298.5 4917,-298.5 4917,-257.5 4755,-257.5"/>
<text text-anchor="start" x="4763" y="-286.5" font-family="Helvetica,sans-Serif" font-size="10.00">/home/travis/build</text>
<text text-anchor="start" x="4763" y="-275.5" font-family="Helvetica,sans-Serif" font-size="10.00">/STORM&#45;IRIT/OpenGR/src</text>
<text text-anchor="middle" x="4836" y="-264.5" font-family="Helvetica,sans-Serif" font-size="10.00">/gr/algorithms/matchBase.hpp</text>
</g>
<!-- Node2 -->
<g id="node2" class="node"><title>Node2</title>
<polygon fill="white" stroke="#bfbfbf" points="5090.5,-17 5090.5,-36 5137.5,-36 5137.5,-17 5090.5,-17"/>
<text text-anchor="middle" x="5114" y="-24" font-family="Helvetica,sans-Serif" font-size="10.00">vector</text>
</g>
<!-- Node1&#45;&gt;Node2 -->
<g id="edge1" class="edge"><title>Node1&#45;&gt;Node2</title>
<path fill="none" stroke="midnightblue" d="M4917.23,-263.745C4979.42,-249.526 5063.07,-220.949 5115,-165 5138.61,-139.558 5138.18,-123.323 5133,-89 5130.73,-73.9584 5125.5,-57.5244 5121.1,-45.4316"/>
<polygon fill="midnightblue" stroke="midnightblue" points="5124.37,-44.1724 5117.55,-36.0663 5117.82,-46.6575 5124.37,-44.1724"/>
</g>
<!-- Node3 -->
<g id="node3" class="node"><title>Node3</title>
<polygon fill="white" stroke="#bfbfbf" points="4685,-201.5 4685,-220.5 4735,-220.5 4735,-201.5 4685,-201.5"/>
<text text-anchor="middle" x="4710" y="-208.5" font-family="Helvetica,sans-Serif" font-size="10.00">atomic</text>
</g>
<!-- Node1&#45;&gt;Node3 -->
<g id="edge2" class="edge"><title>Node1&#45;&gt;Node3</title>
<path fill="none" stroke="midnightblue" d="M4798.2,-257.498C4778.13,-247.149 4753.99,-234.695 4736.04,-225.435"/>
<polygon fill="midnightblue" stroke="midnightblue" points="4737.26,-222.127 4726.77,-220.652 4734.06,-228.348 4737.26,-222.127"/>
</g>
<!-- Node4 -->
<g id="node4" class="node"><title>Node4</title>
<polygon fill="white" stroke="#bfbfbf" points="4753,-201.5 4753,-220.5 4803,-220.5 4803,-201.5 4753,-201.5"/>
<text text-anchor="middle" x="4778" y="-208.5" font-family="Helvetica,sans-Serif" font-size="10.00">chrono</text>
</g>
<!-- Node1&#45;&gt;Node4 -->
<g id="edge3" class="edge"><title>Node1&#45;&gt;Node4</title>
<path fill="none" stroke="midnightblue" d="M4818.6,-257.498C4810.3,-248.203 4800.49,-237.21 4792.6,-228.358"/>
<polygon fill="midnightblue" stroke="midnightblue" points="4794.99,-225.784 4785.72,-220.652 4789.77,-230.444 4794.99,-225.784"/>
</g>
<!-- Node5 -->
<g id="node5" class="node"><title>Node5</title>
<polygon fill="white" stroke="#bfbfbf" points="0,-17 0,-36 56,-36 56,-17 0,-17"/>
<text text-anchor="middle" x="28" y="-24" font-family="Helvetica,sans-Serif" font-size="10.00">numeric</text>
</g>
<!-- Node1&#45;&gt;Node5 -->
<g id="edge4" class="edge"><title>Node1&#45;&gt;Node5</title>
<path fill="none" stroke="midnightblue" d="M4754.74,-275.874C4163.03,-267.322 526.755,-208.677 65,-53 58.1111,-50.6774 51.3347,-46.6669 45.5019,-42.505"/>
<polygon fill="midnightblue" stroke="midnightblue" points="47.2713,-39.4466 37.2319,-36.0611 42.9688,-44.9683 47.2713,-39.4466"/>
</g>
<!-- Node6 -->
<g id="node6" class="node"><title>Node6</title>
<g id="a_node6"><a xlink:href="a00090.html" target="_top" xlink:title="gr/algorithms/matchBase.h">
<polygon fill="white" stroke="black" points="4821.5,-201.5 4821.5,-220.5 4968.5,-220.5 4968.5,-201.5 4821.5,-201.5"/>
<text text-anchor="middle" x="4895" y="-208.5" font-family="Helvetica,sans-Serif" font-size="10.00">gr/algorithms/matchBase.h</text>
</a>
</g>
</g>
<!-- Node1&#45;&gt;Node6 -->
<g id="edge5" class="edge"><title>Node1&#45;&gt;Node6</title>
<path fill="none" stroke="midnightblue" d="M4847.46,-257.498C4855.37,-247.915 4865.84,-236.528 4875.04,-227.543"/>
<polygon fill="midnightblue" stroke="midnightblue" points="4877.48,-230.047 4882.38,-220.652 4872.69,-224.941 4877.48,-230.047"/>
</g>
<!-- Node6&#45;&gt;Node1 -->
<g id="edge61" class="edge"><title>Node6&#45;&gt;Node1</title>
<path fill="none" stroke="midnightblue" d="M4891.91,-220.652C4886.68,-228.182 4877.03,-239.51 4867.14,-250.038"/>
<polygon fill="midnightblue" stroke="midnightblue" points="4864.37,-247.868 4859.95,-257.498 4869.41,-252.725 4864.37,-247.868"/>
</g>
<!-- Node6&#45;&gt;Node2 -->
<g id="edge6" class="edge"><title>Node6&#45;&gt;Node2</title>
<path fill="none" stroke="midnightblue" d="M4968.6,-202.087C5017.98,-195.205 5076.98,-183.397 5094,-165 5124.08,-132.482 5121.3,-75.8698 5117.32,-46.4588"/>
<polygon fill="midnightblue" stroke="midnightblue" points="5120.74,-45.6508 5115.75,-36.3043 5113.82,-46.7222 5120.74,-45.6508"/>
</g>
<!-- Node7 -->
<g id="node7" class="node"><title>Node7</title>
<g id="a_node7"><a xlink:href="a00100.html" target="_top" xlink:title="gr/utils/shared.h">
<polygon fill="white" stroke="black" points="4888,-89.5 4888,-108.5 4982,-108.5 4982,-89.5 4888,-89.5"/>
<text text-anchor="middle" x="4935" y="-96.5" font-family="Helvetica,sans-Serif" font-size="10.00">gr/utils/shared.h</text>
</a>
</g>
</g>
<!-- Node6&#45;&gt;Node7 -->
<g id="edge7" class="edge"><title>Node6&#45;&gt;Node7</title>
<path fill="none" stroke="midnightblue" d="M4888,-201.253C4878.67,-188.449 4864.38,-164.055 4874,-145 4880.81,-131.52 4893.77,-121.083 4906,-113.67"/>
<polygon fill="midnightblue" stroke="midnightblue" points="4908.07,-116.521 4915.09,-108.59 4904.66,-110.41 4908.07,-116.521"/>
</g>
<!-- Node14 -->
<g id="node14" class="node"><title>Node14</title>
<g id="a_node14"><a xlink:href="a00099.html" target="_top" xlink:title="gr/utils/sampling.h">
<polygon fill="white" stroke="black" points="4883,-145.5 4883,-164.5 4987,-164.5 4987,-145.5 4883,-145.5"/>
<text text-anchor="middle" x="4935" y="-152.5" font-family="Helvetica,sans-Serif" font-size="10.00">gr/utils/sampling.h</text>
</a>
</g>
</g>
<!-- Node6&#45;&gt;Node14 -->
<g id="edge15" class="edge"><title>Node6&#45;&gt;Node14</title>
<path fill="none" stroke="midnightblue" d="M4901.61,-201.083C4907.26,-193.455 4915.54,-182.264 4922.45,-172.941"/>
<polygon fill="midnightblue" stroke="midnightblue" points="4925.38,-174.87 4928.52,-164.751 4919.75,-170.703 4925.38,-174.87"/>
</g>
<!-- Node15 -->
<g id="node15" class="node"><title>Node15</title>
<g id="a_node15"><a xlink:href="a00072.html" target="_top" xlink:title="gr/accelerators/kdtree.h">
<polygon fill="white" stroke="red" points="1873.5,-89.5 1873.5,-108.5 2004.5,-108.5 2004.5,-89.5 1873.5,-89.5"/>
<text text-anchor="middle" x="1939" y="-96.5" font-family="Helvetica,sans-Serif" font-size="10.00">gr/accelerators/kdtree.h</text>
</a>
</g>
</g>
<!-- Node6&#45;&gt;Node15 -->
<g id="edge19" class="edge"><title>Node6&#45;&gt;Node15</title>
<path fill="none" stroke="midnightblue" d="M4821.26,-201.722C4818.13,-201.46 4815.04,-201.218 4812,-201 3702.41,-121.444 2347.06,-103.857 2015.05,-100.639"/>
<polygon fill="midnightblue" stroke="midnightblue" points="2014.63,-97.135 2004.6,-100.539 2014.57,-104.135 2014.63,-97.135"/>
</g>
<!-- Node49 -->
<g id="node49" class="node"><title>Node49</title>
<g id="a_node49"><a xlink:href="a00097.html" target="_top" xlink:title="gr/utils/logger.h">
<polygon fill="white" stroke="black" points="4768,-89.5 4768,-108.5 4858,-108.5 4858,-89.5 4768,-89.5"/>
<text text-anchor="middle" x="4813" y="-96.5" font-family="Helvetica,sans-Serif" font-size="10.00">gr/utils/logger.h</text>
</a>
</g>
</g>
<!-- Node6&#45;&gt;Node49 -->
<g id="edge58" class="edge"><title>Node6&#45;&gt;Node49</title>
<path fill="none" stroke="midnightblue" d="M4888.57,-201.368C4874.97,-183.135 4843.14,-140.426 4825.43,-116.675"/>
<polygon fill="midnightblue" stroke="midnightblue" points="4828.19,-114.517 4819.4,-108.591 4822.58,-118.701 4828.19,-114.517"/>
</g>
<!-- Node50 -->
<g id="node50" class="node"><title>Node50</title>
<g id="a_node50"><a xlink:href="a00094.html" target="_top" xlink:title="gr/utils/crtp.h">
<polygon fill="white" stroke="black" points="5005,-145.5 5005,-164.5 5085,-164.5 5085,-145.5 5005,-145.5"/>
<text text-anchor="middle" x="5045" y="-152.5" font-family="Helvetica,sans-Serif" font-size="10.00">gr/utils/crtp.h</text>
</a>
</g>
</g>
<!-- Node6&#45;&gt;Node50 -->
<g id="edge60" class="edge"><title>Node6&#45;&gt;Node50</title>
<path fill="none" stroke="midnightblue" d="M4918.77,-201.444C4943.89,-192.399 4983.71,-178.064 5011.9,-167.916"/>
<polygon fill="midnightblue" stroke="midnightblue" points="5013.12,-171.197 5021.34,-164.516 5010.75,-164.611 5013.12,-171.197"/>
</g>
<!-- Node7&#45;&gt;Node2 -->
<g id="edge10" class="edge"><title>Node7&#45;&gt;Node2</title>
<path fill="none" stroke="midnightblue" d="M4976.18,-89.4925C5006.3,-82.289 5047.57,-70.3401 5081,-53 5086.46,-50.1666 5091.94,-46.4036 5096.81,-42.6405"/>
<polygon fill="midnightblue" stroke="midnightblue" points="5099.3,-45.1218 5104.81,-36.0679 5094.86,-39.7143 5099.3,-45.1218"/>
</g>
<!-- Node8 -->
<g id="node8" class="node"><title>Node8</title>
<g id="a_node8"><a xlink:href="a00095.html" target="_top" xlink:title="gr/utils/disablewarnings.h">
<polygon fill="white" stroke="black" points="4627.5,-17 4627.5,-36 4764.5,-36 4764.5,-17 4627.5,-17"/>
<text text-anchor="middle" x="4696" y="-24" font-family="Helvetica,sans-Serif" font-size="10.00">gr/utils/disablewarnings.h</text>
</a>
</g>
</g>
<!-- Node7&#45;&gt;Node8 -->
<g id="edge8" class="edge"><title>Node7&#45;&gt;Node8</title>
<path fill="none" stroke="midnightblue" d="M4902.59,-89.4973C4869.79,-80.7747 4817.68,-66.5954 4773,-53 4759.04,-48.7534 4743.77,-43.768 4730.54,-39.3372"/>
<polygon fill="midnightblue" stroke="midnightblue" points="4731.46,-35.9556 4720.87,-36.0783 4729.23,-42.589 4731.46,-35.9556"/>
</g>
<!-- Node9 -->
<g id="node9" class="node"><title>Node9</title>
<polygon fill="white" stroke="#bfbfbf" points="4860,-17 4860,-36 4928,-36 4928,-17 4860,-17"/>
<text text-anchor="middle" x="4894" y="-24" font-family="Helvetica,sans-Serif" font-size="10.00">Eigen/Core</text>
</g>
<!-- Node7&#45;&gt;Node9 -->
<g id="edge9" class="edge"><title>Node7&#45;&gt;Node9</title>
<path fill="none" stroke="midnightblue" d="M4929.97,-89.3553C4923.58,-78.3615 4912.38,-59.1131 4904.18,-45.0006"/>
<polygon fill="midnightblue" stroke="midnightblue" points="4907.12,-43.1003 4899.07,-36.2154 4901.07,-46.6194 4907.12,-43.1003"/>
</g>
<!-- Node10 -->
<g id="node10" class="node"><title>Node10</title>
<polygon fill="white" stroke="#bfbfbf" points="4782.5,-17 4782.5,-36 4841.5,-36 4841.5,-17 4782.5,-17"/>
<text text-anchor="middle" x="4812" y="-24" font-family="Helvetica,sans-Serif" font-size="10.00">iostream</text>
</g>
<!-- Node7&#45;&gt;Node10 -->
<g id="edge11" class="edge"><title>Node7&#45;&gt;Node10</title>
<path fill="none" stroke="midnightblue" d="M4918.03,-89.4595C4900.89,-80.7075 4873.77,-66.5059 4851,-53 4845.06,-49.4787 4838.75,-45.4724 4832.98,-41.6954"/>
<polygon fill="midnightblue" stroke="midnightblue" points="4834.74,-38.6633 4824.47,-36.0516 4830.87,-44.4964 4834.74,-38.6633"/>
</g>
<!-- Node11 -->
<g id="node11" class="node"><title>Node11</title>
<polygon fill="white" stroke="#bfbfbf" points="4946,-17 4946,-36 5000,-36 5000,-17 4946,-17"/>
<text text-anchor="middle" x="4973" y="-24" font-family="Helvetica,sans-Serif" font-size="10.00">fstream</text>
</g>
<!-- Node7&#45;&gt;Node11 -->
<g id="edge12" class="edge"><title>Node7&#45;&gt;Node11</title>
<path fill="none" stroke="midnightblue" d="M4939.66,-89.3553C4945.53,-78.4672 4955.76,-59.4825 4963.35,-45.4091"/>
<polygon fill="midnightblue" stroke="midnightblue" points="4966.64,-46.6788 4968.3,-36.2154 4960.48,-43.3574 4966.64,-46.6788"/>
</g>
<!-- Node12 -->
<g id="node12" class="node"><title>Node12</title>
<polygon fill="white" stroke="#bfbfbf" points="5155.5,-17 5155.5,-36 5196.5,-36 5196.5,-17 5155.5,-17"/>
<text text-anchor="middle" x="5176" y="-24" font-family="Helvetica,sans-Serif" font-size="10.00">array</text>
</g>
<!-- Node7&#45;&gt;Node12 -->
<g id="edge13" class="edge"><title>Node7&#45;&gt;Node12</title>
<path fill="none" stroke="midnightblue" d="M4982.01,-94.6201C5026.26,-89.9367 5093.41,-78.882 5146,-53 5151.08,-50.4987 5156.02,-46.9445 5160.37,-43.2811"/>
<polygon fill="midnightblue" stroke="midnightblue" points="5162.91,-45.6972 5167.9,-36.3505 5158.17,-40.5459 5162.91,-45.6972"/>
</g>
<!-- Node13 -->
<g id="node13" class="node"><title>Node13</title>
<polygon fill="white" stroke="#bfbfbf" points="5018,-17 5018,-36 5072,-36 5072,-17 5018,-17"/>
<text text-anchor="middle" x="5045" y="-24" font-family="Helvetica,sans-Serif" font-size="10.00">random</text>
</g>
<!-- Node7&#45;&gt;Node13 -->
<g id="edge14" class="edge"><title>Node7&#45;&gt;Node13</title>
<path fill="none" stroke="midnightblue" d="M4949.93,-89.3351C4965.01,-80.4864 4988.89,-66.211 5009,-53 5014.25,-49.5512 5019.83,-45.6955 5024.99,-42.0474"/>
<polygon fill="midnightblue" stroke="midnightblue" points="5027.05,-44.8775 5033.14,-36.2124 5022.98,-39.1844 5027.05,-44.8775"/>
</g>
<!-- Node14&#45;&gt;Node2 -->
<g id="edge16" class="edge"><title>Node14&#45;&gt;Node2</title>
<path fill="none" stroke="midnightblue" d="M4948.05,-145.309C4973.78,-128.101 5032.74,-88.3011 5081,-53 5085.56,-49.6658 5090.4,-45.9961 5094.93,-42.5049"/>
<polygon fill="midnightblue" stroke="midnightblue" points="5097.37,-45.0486 5103.11,-36.1464 5093.07,-39.5231 5097.37,-45.0486"/>
</g>
<!-- Node14&#45;&gt;Node7 -->
<g id="edge18" class="edge"><title>Node14&#45;&gt;Node7</title>
<path fill="none" stroke="midnightblue" d="M4935,-145.083C4935,-138.006 4935,-127.861 4935,-118.986"/>
<polygon fill="midnightblue" stroke="midnightblue" points="4938.5,-118.751 4935,-108.751 4931.5,-118.751 4938.5,-118.751"/>
</g>
<!-- Node14&#45;&gt;Node12 -->
<g id="edge17" class="edge"><title>Node14&#45;&gt;Node12</title>
<path fill="none" stroke="midnightblue" d="M4957.58,-145.473C4997.32,-129.973 5081.67,-94.8803 5146,-53 5150.49,-50.0769 5155.04,-46.5535 5159.2,-43.0714"/>
<polygon fill="midnightblue" stroke="midnightblue" points="5161.83,-45.4198 5167.03,-36.1874 5157.2,-40.1636 5161.83,-45.4198"/>
</g>
<!-- Node15&#45;&gt;Node2 -->
<g id="edge56" class="edge"><title>Node15&#45;&gt;Node2</title>
<path fill="none" stroke="midnightblue" d="M2004.73,-97.6329C2449.72,-95.0785 5005.78,-79.2791 5081,-53 5087.22,-50.8277 5093.18,-46.9793 5098.29,-42.9204"/>
<polygon fill="midnightblue" stroke="midnightblue" points="5100.78,-45.3883 5105.97,-36.1493 5096.16,-40.1379 5100.78,-45.3883"/>
</g>
<!-- Node15&#45;&gt;Node5 -->
<g id="edge57" class="edge"><title>Node15&#45;&gt;Node5</title>
<path fill="none" stroke="midnightblue" d="M1873.31,-97.4756C1551.41,-94.7724 152.619,-81.4267 65,-53 58.0849,-50.7565 51.3015,-46.7674 45.4701,-42.6009"/>
<polygon fill="midnightblue" stroke="midnightblue" points="47.2398,-39.5413 37.2082,-36.1327 42.9247,-45.0531 47.2398,-39.5413"/>
</g>
<!-- Node15&#45;&gt;Node8 -->
<g id="edge20" class="edge"><title>Node15&#45;&gt;Node8</title>
<path fill="none" stroke="midnightblue" d="M2004.64,-98.0703C2390.27,-98.3273 4353.43,-97.4303 4618,-53 4634.17,-50.2849 4651.56,-44.8585 4665.81,-39.7068"/>
<polygon fill="midnightblue" stroke="midnightblue" points="4667.43,-42.8358 4675.57,-36.0468 4664.98,-36.2816 4667.43,-42.8358"/>
</g>
<!-- Node15&#45;&gt;Node9 -->
<g id="edge21" class="edge"><title>Node15&#45;&gt;Node9</title>
<path fill="none" stroke="midnightblue" d="M2004.51,-97.9238C2422.92,-97.32 4708.44,-92.2309 4850,-53 4858.5,-50.6457 4867.06,-46.249 4874.34,-41.7611"/>
<polygon fill="midnightblue" stroke="midnightblue" points="4876.37,-44.612 4882.78,-36.1746 4872.51,-38.7745 4876.37,-44.612"/>
</g>
<!-- Node15&#45;&gt;Node10 -->
<g id="edge55" class="edge"><title>Node15&#45;&gt;Node10</title>
<path fill="none" stroke="midnightblue" d="M2004.79,-97.9908C2417.5,-97.8038 4636.49,-94.8496 4773,-53 4780.38,-50.7378 4787.67,-46.62 4793.92,-42.3439"/>
<polygon fill="midnightblue" stroke="midnightblue" points="4796.29,-44.9446 4802.22,-36.1635 4792.11,-39.3312 4796.29,-44.9446"/>
</g>
<!-- Node16 -->
<g id="node16" class="node"><title>Node16</title>
<polygon fill="white" stroke="#bfbfbf" points="74,-0.5 74,-52.5 232,-52.5 232,-0.5 74,-0.5"/>
<text text-anchor="start" x="82" y="-40.5" font-family="Helvetica,sans-Serif" font-size="10.00">/home/travis/build</text>
<text text-anchor="start" x="82" y="-29.5" font-family="Helvetica,sans-Serif" font-size="10.00">/STORM&#45;IRIT/OpenGR/3rdparty</text>
<text text-anchor="start" x="82" y="-18.5" font-family="Helvetica,sans-Serif" font-size="10.00">/Eigen/Eigen/src/Core/util</text>
<text text-anchor="middle" x="153" y="-7.5" font-family="Helvetica,sans-Serif" font-size="10.00">/DisableStupidWarnings.h</text>
</g>
<!-- Node15&#45;&gt;Node16 -->
<g id="edge22" class="edge"><title>Node15&#45;&gt;Node16</title>
<path fill="none" stroke="midnightblue" d="M1873.2,-97.2501C1585.66,-93.8408 445.175,-78.8999 242.394,-52.9047"/>
<polygon fill="midnightblue" stroke="midnightblue" points="242.811,-49.429 232.42,-51.4988 241.834,-56.3604 242.811,-49.429"/>
</g>
<!-- Node17 -->
<g id="node17" class="node"><title>Node17</title>
<polygon fill="white" stroke="#bfbfbf" points="250,-0.5 250,-52.5 408,-52.5 408,-0.5 250,-0.5"/>
<text text-anchor="start" x="258" y="-40.5" font-family="Helvetica,sans-Serif" font-size="10.00">/home/travis/build</text>
<text text-anchor="start" x="258" y="-29.5" font-family="Helvetica,sans-Serif" font-size="10.00">/STORM&#45;IRIT/OpenGR/3rdparty</text>
<text text-anchor="start" x="258" y="-18.5" font-family="Helvetica,sans-Serif" font-size="10.00">/Eigen/Eigen/src/Core/util</text>
<text text-anchor="middle" x="329" y="-7.5" font-family="Helvetica,sans-Serif" font-size="10.00">/Macros.h</text>
</g>
<!-- Node15&#45;&gt;Node17 -->
<g id="edge23" class="edge"><title>Node15&#45;&gt;Node17</title>
<path fill="none" stroke="midnightblue" d="M1873.3,-98.2879C1622.37,-99.0462 723.558,-98.5499 418.624,-53.2347"/>
<polygon fill="midnightblue" stroke="midnightblue" points="418.881,-49.7332 408.465,-51.6732 417.817,-56.6519 418.881,-49.7332"/>
</g>
<!-- Node18 -->
<g id="node18" class="node"><title>Node18</title>
<polygon fill="white" stroke="#bfbfbf" points="425.5,-17 425.5,-36 482.5,-36 482.5,-17 425.5,-17"/>
<text text-anchor="middle" x="454" y="-24" font-family="Helvetica,sans-Serif" font-size="10.00">complex</text>
</g>
<!-- Node15&#45;&gt;Node18 -->
<g id="edge24" class="edge"><title>Node15&#45;&gt;Node18</title>
<path fill="none" stroke="midnightblue" d="M1873.06,-98.137C1607.34,-98.392 623.1,-96.3737 491,-53 484.093,-50.7321 477.312,-46.7364 471.48,-42.5713"/>
<polygon fill="midnightblue" stroke="midnightblue" points="473.249,-39.5121 463.215,-36.1106 468.938,-45.027 473.249,-39.5121"/>
</g>
<!-- Node19 -->
<g id="node19" class="node"><title>Node19</title>
<polygon fill="white" stroke="#bfbfbf" points="500,-0.5 500,-52.5 658,-52.5 658,-0.5 500,-0.5"/>
<text text-anchor="start" x="508" y="-40.5" font-family="Helvetica,sans-Serif" font-size="10.00">/home/travis/build</text>
<text text-anchor="start" x="508" y="-29.5" font-family="Helvetica,sans-Serif" font-size="10.00">/STORM&#45;IRIT/OpenGR/3rdparty</text>
<text text-anchor="start" x="508" y="-18.5" font-family="Helvetica,sans-Serif" font-size="10.00">/Eigen/Eigen/src/Core/util</text>
<text text-anchor="middle" x="579" y="-7.5" font-family="Helvetica,sans-Serif" font-size="10.00">/MKL_support.h</text>
</g>
<!-- Node15&#45;&gt;Node19 -->
<g id="edge25" class="edge"><title>Node15&#45;&gt;Node19</title>
<path fill="none" stroke="midnightblue" d="M1873.14,-97.8398C1649.79,-96.9622 921.464,-91.2791 668.355,-53.1979"/>
<polygon fill="midnightblue" stroke="midnightblue" points="668.888,-49.7388 658.468,-51.6542 667.808,-56.655 668.888,-49.7388"/>
</g>
<!-- Node20 -->
<g id="node20" class="node"><title>Node20</title>
<polygon fill="white" stroke="#bfbfbf" points="675.5,-17 675.5,-36 722.5,-36 722.5,-17 675.5,-17"/>
<text text-anchor="middle" x="699" y="-24" font-family="Helvetica,sans-Serif" font-size="10.00">cerrno</text>
</g>
<!-- Node15&#45;&gt;Node20 -->
<g id="edge26" class="edge"><title>Node15&#45;&gt;Node20</title>
<path fill="none" stroke="midnightblue" d="M1873.4,-97.8905C1637.33,-97.1766 839.326,-91.8826 732,-53 725.807,-50.7565 719.849,-46.8876 714.74,-42.8316"/>
<polygon fill="midnightblue" stroke="midnightblue" points="716.877,-40.0504 707.053,-36.0832 712.259,-45.3108 716.877,-40.0504"/>
</g>
<!-- Node21 -->
<g id="node21" class="node"><title>Node21</title>
<polygon fill="white" stroke="#bfbfbf" points="741,-17 741,-36 793,-36 793,-17 741,-17"/>
<text text-anchor="middle" x="767" y="-24" font-family="Helvetica,sans-Serif" font-size="10.00">cstddef</text>
</g>
<!-- Node15&#45;&gt;Node21 -->
<g id="edge27" class="edge"><title>Node15&#45;&gt;Node21</title>
<path fill="none" stroke="midnightblue" d="M1873.36,-97.6245C1646.36,-96.0203 902.994,-88.1131 802,-53 795.383,-50.6993 788.945,-46.6947 783.433,-42.5315"/>
<polygon fill="midnightblue" stroke="midnightblue" points="785.576,-39.7618 775.642,-36.0809 781.113,-45.1539 785.576,-39.7618"/>
</g>
<!-- Node22 -->
<g id="node22" class="node"><title>Node22</title>
<polygon fill="white" stroke="#bfbfbf" points="811.5,-17 811.5,-36 858.5,-36 858.5,-17 811.5,-17"/>
<text text-anchor="middle" x="835" y="-24" font-family="Helvetica,sans-Serif" font-size="10.00">cstdlib</text>
</g>
<!-- Node15&#45;&gt;Node22 -->
<g id="edge28" class="edge"><title>Node15&#45;&gt;Node22</title>
<path fill="none" stroke="midnightblue" d="M1873.3,-97.6079C1654.78,-95.978 960.905,-88.067 867,-53 860.946,-50.7393 855.154,-46.8654 850.202,-42.8101"/>
<polygon fill="midnightblue" stroke="midnightblue" points="852.523,-40.1903 842.764,-36.0672 847.822,-45.3766 852.523,-40.1903"/>
</g>
<!-- Node23 -->
<g id="node23" class="node"><title>Node23</title>
<polygon fill="white" stroke="#bfbfbf" points="876.5,-17 876.5,-36 923.5,-36 923.5,-17 876.5,-17"/>
<text text-anchor="middle" x="900" y="-24" font-family="Helvetica,sans-Serif" font-size="10.00">cmath</text>
</g>
<!-- Node15&#45;&gt;Node23 -->
<g id="edge29" class="edge"><title>Node15&#45;&gt;Node23</title>
<path fill="none" stroke="midnightblue" d="M1873.38,-97.3586C1664.05,-94.9951 1020.77,-85.1671 933,-53 926.816,-50.7335 920.86,-46.8579 915.751,-42.8029"/>
<polygon fill="midnightblue" stroke="midnightblue" points="917.888,-40.022 908.061,-36.0618 913.273,-45.2858 917.888,-40.022"/>
</g>
<!-- Node24 -->
<g id="node24" class="node"><title>Node24</title>
<polygon fill="white" stroke="#bfbfbf" points="942,-17 942,-36 994,-36 994,-17 942,-17"/>
<text text-anchor="middle" x="968" y="-24" font-family="Helvetica,sans-Serif" font-size="10.00">cassert</text>
</g>
<!-- Node15&#45;&gt;Node24 -->
<g id="edge30" class="edge"><title>Node15&#45;&gt;Node24</title>
<path fill="none" stroke="midnightblue" d="M1873.47,-97.0205C1674.24,-93.7411 1084.42,-81.6944 1003,-53 996.392,-50.6713 989.958,-46.659 984.445,-42.4975"/>
<polygon fill="midnightblue" stroke="midnightblue" points="986.588,-39.728 976.65,-36.0555 982.129,-45.1238 986.588,-39.728"/>
</g>
<!-- Node25 -->
<g id="node25" class="node"><title>Node25</title>
<polygon fill="white" stroke="#bfbfbf" points="1012.5,-17 1012.5,-36 1075.5,-36 1075.5,-17 1012.5,-17"/>
<text text-anchor="middle" x="1044" y="-24" font-family="Helvetica,sans-Serif" font-size="10.00">functional</text>
</g>
<!-- Node15&#45;&gt;Node25 -->
<g id="edge31" class="edge"><title>Node15&#45;&gt;Node25</title>
<path fill="none" stroke="midnightblue" d="M1873.39,-96.4271C1686.39,-91.6802 1159.36,-76.3714 1085,-53 1077.19,-50.5463 1069.38,-46.2557 1062.7,-41.8859"/>
<polygon fill="midnightblue" stroke="midnightblue" points="1064.59,-38.9365 1054.39,-36.0433 1060.56,-44.661 1064.59,-38.9365"/>
</g>
<!-- Node26 -->
<g id="node26" class="node"><title>Node26</title>
<polygon fill="white" stroke="#bfbfbf" points="1094,-17 1094,-36 1140,-36 1140,-17 1094,-17"/>
<text text-anchor="middle" x="1117" y="-24" font-family="Helvetica,sans-Serif" font-size="10.00">iosfwd</text>
</g>
<!-- Node15&#45;&gt;Node26 -->
<g id="edge32" class="edge"><title>Node15&#45;&gt;Node26</title>
<path fill="none" stroke="midnightblue" d="M1873.45,-96.5432C1696.13,-92.2823 1215.77,-78.5051 1149,-53 1142.96,-50.6941 1137.18,-46.8071 1132.22,-42.7538"/>
<polygon fill="midnightblue" stroke="midnightblue" points="1134.54,-40.1344 1124.78,-36.0252 1129.85,-45.3274 1134.54,-40.1344"/>
</g>
<!-- Node27 -->
<g id="node27" class="node"><title>Node27</title>
<polygon fill="white" stroke="#bfbfbf" points="1158.5,-17 1158.5,-36 1207.5,-36 1207.5,-17 1158.5,-17"/>
<text text-anchor="middle" x="1183" y="-24" font-family="Helvetica,sans-Serif" font-size="10.00">cstring</text>
</g>
<!-- Node15&#45;&gt;Node27 -->
<g id="edge33" class="edge"><title>Node15&#45;&gt;Node27</title>
<path fill="none" stroke="midnightblue" d="M1873.22,-98.6834C1718.63,-99.5248 1336.33,-96.9461 1217,-53 1210.7,-50.6803 1204.59,-46.7893 1199.32,-42.7366"/>
<polygon fill="midnightblue" stroke="midnightblue" points="1201.27,-39.8005 1191.37,-36.0124 1196.75,-45.144 1201.27,-39.8005"/>
</g>
<!-- Node28 -->
<g id="node28" class="node"><title>Node28</title>
<polygon fill="white" stroke="#bfbfbf" points="1226,-17 1226,-36 1270,-36 1270,-17 1226,-17"/>
<text text-anchor="middle" x="1248" y="-24" font-family="Helvetica,sans-Serif" font-size="10.00">string</text>
</g>
<!-- Node15&#45;&gt;Node28 -->
<g id="edge34" class="edge"><title>Node15&#45;&gt;Node28</title>
<path fill="none" stroke="midnightblue" d="M1873.39,-98.5702C1728.53,-99.0201 1385.73,-95.4098 1279,-53 1273.33,-50.7483 1267.92,-47.0568 1263.25,-43.1729"/>
<polygon fill="midnightblue" stroke="midnightblue" points="1265.46,-40.4562 1255.74,-36.2432 1260.71,-45.5988 1265.46,-40.4562"/>
</g>
<!-- Node29 -->
<g id="node29" class="node"><title>Node29</title>
<polygon fill="white" stroke="#bfbfbf" points="1288,-17 1288,-36 1330,-36 1330,-17 1288,-17"/>
<text text-anchor="middle" x="1309" y="-24" font-family="Helvetica,sans-Serif" font-size="10.00">limits</text>
</g>
<!-- Node15&#45;&gt;Node29 -->
<g id="edge35" class="edge"><title>Node15&#45;&gt;Node29</title>
<path fill="none" stroke="midnightblue" d="M1873.25,-98.1596C1738.18,-97.665 1434.18,-92.0877 1339,-53 1333.47,-50.7278 1328.21,-47.0298 1323.69,-43.1462"/>
<polygon fill="midnightblue" stroke="midnightblue" points="1326.09,-40.6001 1316.44,-36.2229 1321.26,-45.6616 1326.09,-40.6001"/>
</g>
<!-- Node30 -->
<g id="node30" class="node"><title>Node30</title>
<polygon fill="white" stroke="#bfbfbf" points="1348.5,-17 1348.5,-36 1395.5,-36 1395.5,-17 1348.5,-17"/>
<text text-anchor="middle" x="1372" y="-24" font-family="Helvetica,sans-Serif" font-size="10.00">climits</text>
</g>
<!-- Node15&#45;&gt;Node30 -->
<g id="edge36" class="edge"><title>Node15&#45;&gt;Node30</title>
<path fill="none" stroke="midnightblue" d="M1873.1,-97.079C1749.69,-94.5966 1488.67,-85.5481 1405,-53 1398.95,-50.6459 1393.09,-46.8114 1388.02,-42.8227"/>
<polygon fill="midnightblue" stroke="midnightblue" points="1390.22,-40.0945 1380.37,-36.1988 1385.64,-45.3884 1390.22,-40.0945"/>
</g>
<!-- Node31 -->
<g id="node31" class="node"><title>Node31</title>
<polygon fill="white" stroke="#bfbfbf" points="1414,-17 1414,-36 1476,-36 1476,-17 1414,-17"/>
<text text-anchor="middle" x="1445" y="-24" font-family="Helvetica,sans-Serif" font-size="10.00">algorithm</text>
</g>
<!-- Node15&#45;&gt;Node31 -->
<g id="edge37" class="edge"><title>Node15&#45;&gt;Node31</title>
<path fill="none" stroke="midnightblue" d="M1873.09,-95.2333C1764.97,-90.0671 1554.99,-77.2195 1485,-53 1477.68,-50.4666 1470.34,-46.3522 1463.98,-42.1607"/>
<polygon fill="midnightblue" stroke="midnightblue" points="1465.67,-39.0665 1455.48,-36.1397 1461.62,-44.7776 1465.67,-39.0665"/>
</g>
<!-- Node32 -->
<g id="node32" class="node"><title>Node32</title>
<polygon fill="white" stroke="#bfbfbf" points="1494,-0.5 1494,-52.5 1652,-52.5 1652,-0.5 1494,-0.5"/>
<text text-anchor="start" x="1502" y="-40.5" font-family="Helvetica,sans-Serif" font-size="10.00">/home/travis/build</text>
<text text-anchor="start" x="1502" y="-29.5" font-family="Helvetica,sans-Serif" font-size="10.00">/STORM&#45;IRIT/OpenGR/3rdparty</text>
<text text-anchor="start" x="1502" y="-18.5" font-family="Helvetica,sans-Serif" font-size="10.00">/Eigen/Eigen/src/Core/util</text>
<text text-anchor="middle" x="1573" y="-7.5" font-family="Helvetica,sans-Serif" font-size="10.00">/Constants.h</text>
</g>
<!-- Node15&#45;&gt;Node32 -->
<g id="edge38" class="edge"><title>Node15&#45;&gt;Node32</title>
<path fill="none" stroke="midnightblue" d="M1873.41,-89.6762C1819.13,-82.2641 1739.85,-70.2393 1662.01,-53.1188"/>
<polygon fill="midnightblue" stroke="midnightblue" points="1662.56,-49.6543 1652.04,-50.8941 1661.04,-56.4865 1662.56,-49.6543"/>
</g>
<!-- Node33 -->
<g id="node33" class="node"><title>Node33</title>
<polygon fill="white" stroke="#bfbfbf" points="1670.5,-6 1670.5,-47 1841.5,-47 1841.5,-6 1670.5,-6"/>
<text text-anchor="start" x="1678.5" y="-35" font-family="Helvetica,sans-Serif" font-size="10.00">/home/travis/build</text>
<text text-anchor="start" x="1678.5" y="-24" font-family="Helvetica,sans-Serif" font-size="10.00">/STORM&#45;IRIT/OpenGR/3rdparty</text>
<text text-anchor="middle" x="1756" y="-13" font-family="Helvetica,sans-Serif" font-size="10.00">/Eigen/Eigen/src/Core/util/Meta.h</text>
</g>
<!-- Node15&#45;&gt;Node33 -->
<g id="edge39" class="edge"><title>Node15&#45;&gt;Node33</title>
<path fill="none" stroke="midnightblue" d="M1916.93,-89.4961C1892.16,-79.9555 1850.94,-64.0739 1816.41,-50.7738"/>
<polygon fill="midnightblue" stroke="midnightblue" points="1817.46,-47.4273 1806.87,-47.0983 1814.95,-53.9593 1817.46,-47.4273"/>
</g>
<!-- Node34 -->
<g id="node34" class="node"><title>Node34</title>
<polygon fill="white" stroke="#bfbfbf" points="1860,-0.5 1860,-52.5 2018,-52.5 2018,-0.5 1860,-0.5"/>
<text text-anchor="start" x="1868" y="-40.5" font-family="Helvetica,sans-Serif" font-size="10.00">/home/travis/build</text>
<text text-anchor="start" x="1868" y="-29.5" font-family="Helvetica,sans-Serif" font-size="10.00">/STORM&#45;IRIT/OpenGR/3rdparty</text>
<text text-anchor="start" x="1868" y="-18.5" font-family="Helvetica,sans-Serif" font-size="10.00">/Eigen/Eigen/src/Core/util</text>
<text text-anchor="middle" x="1939" y="-7.5" font-family="Helvetica,sans-Serif" font-size="10.00">/ForwardDeclarations.h</text>
</g>
<!-- Node15&#45;&gt;Node34 -->
<g id="edge40" class="edge"><title>Node15&#45;&gt;Node34</title>
<path fill="none" stroke="midnightblue" d="M1939,-89.3553C1939,-82.5876 1939,-72.6918 1939,-62.7916"/>
<polygon fill="midnightblue" stroke="midnightblue" points="1942.5,-62.6038 1939,-52.6038 1935.5,-62.6039 1942.5,-62.6038"/>
</g>
<!-- Node35 -->
<g id="node35" class="node"><title>Node35</title>
<polygon fill="white" stroke="#bfbfbf" points="2036,-0.5 2036,-52.5 2194,-52.5 2194,-0.5 2036,-0.5"/>
<text text-anchor="start" x="2044" y="-40.5" font-family="Helvetica,sans-Serif" font-size="10.00">/home/travis/build</text>
<text text-anchor="start" x="2044" y="-29.5" font-family="Helvetica,sans-Serif" font-size="10.00">/STORM&#45;IRIT/OpenGR/3rdparty</text>
<text text-anchor="start" x="2044" y="-18.5" font-family="Helvetica,sans-Serif" font-size="10.00">/Eigen/Eigen/src/Core/util</text>
<text text-anchor="middle" x="2115" y="-7.5" font-family="Helvetica,sans-Serif" font-size="10.00">/StaticAssert.h</text>
</g>
<!-- Node15&#45;&gt;Node35 -->
<g id="edge41" class="edge"><title>Node15&#45;&gt;Node35</title>
<path fill="none" stroke="midnightblue" d="M1960.23,-89.4961C1980.77,-81.2675 2013.09,-68.322 2042.89,-56.384"/>
<polygon fill="midnightblue" stroke="midnightblue" points="2044.48,-59.5182 2052.46,-52.5507 2041.88,-53.0202 2044.48,-59.5182"/>
</g>
<!-- Node36 -->
<g id="node36" class="node"><title>Node36</title>
<polygon fill="white" stroke="#bfbfbf" points="2212,-0.5 2212,-52.5 2370,-52.5 2370,-0.5 2212,-0.5"/>
<text text-anchor="start" x="2220" y="-40.5" font-family="Helvetica,sans-Serif" font-size="10.00">/home/travis/build</text>
<text text-anchor="start" x="2220" y="-29.5" font-family="Helvetica,sans-Serif" font-size="10.00">/STORM&#45;IRIT/OpenGR/3rdparty</text>
<text text-anchor="start" x="2220" y="-18.5" font-family="Helvetica,sans-Serif" font-size="10.00">/Eigen/Eigen/src/Core/util</text>
<text text-anchor="middle" x="2291" y="-7.5" font-family="Helvetica,sans-Serif" font-size="10.00">/XprHelper.h</text>
</g>
<!-- Node15&#45;&gt;Node36 -->
<g id="edge42" class="edge"><title>Node15&#45;&gt;Node36</title>
<path fill="none" stroke="midnightblue" d="M2000.74,-89.4977C2052.18,-81.9536 2127.53,-69.8423 2201.94,-53.1399"/>
<polygon fill="midnightblue" stroke="midnightblue" points="2202.98,-56.4928 2211.96,-50.8624 2201.43,-49.6671 2202.98,-56.4928"/>
</g>
<!-- Node37 -->
<g id="node37" class="node"><title>Node37</title>
<polygon fill="white" stroke="#bfbfbf" points="2388,-0.5 2388,-52.5 2546,-52.5 2546,-0.5 2388,-0.5"/>
<text text-anchor="start" x="2396" y="-40.5" font-family="Helvetica,sans-Serif" font-size="10.00">/home/travis/build</text>
<text text-anchor="start" x="2396" y="-29.5" font-family="Helvetica,sans-Serif" font-size="10.00">/STORM&#45;IRIT/OpenGR/3rdparty</text>
<text text-anchor="start" x="2396" y="-18.5" font-family="Helvetica,sans-Serif" font-size="10.00">/Eigen/Eigen/src/Core/util</text>
<text text-anchor="middle" x="2467" y="-7.5" font-family="Helvetica,sans-Serif" font-size="10.00">/Memory.h</text>
</g>
<!-- Node15&#45;&gt;Node37 -->
<g id="edge43" class="edge"><title>Node15&#45;&gt;Node37</title>
<path fill="none" stroke="midnightblue" d="M2004.77,-94.9745C2089.23,-90.2671 2240.36,-79.0713 2377.67,-53.1173"/>
<polygon fill="midnightblue" stroke="midnightblue" points="2378.37,-56.5467 2387.53,-51.223 2377.05,-49.6724 2378.37,-56.5467"/>
</g>
<!-- Node38 -->
<g id="node38" class="node"><title>Node38</title>
<polygon fill="white" stroke="#bfbfbf" points="2564,-0.5 2564,-52.5 2722,-52.5 2722,-0.5 2564,-0.5"/>
<text text-anchor="start" x="2572" y="-40.5" font-family="Helvetica,sans-Serif" font-size="10.00">/home/travis/build</text>
<text text-anchor="start" x="2572" y="-29.5" font-family="Helvetica,sans-Serif" font-size="10.00">/STORM&#45;IRIT/OpenGR/3rdparty</text>
<text text-anchor="start" x="2572" y="-18.5" font-family="Helvetica,sans-Serif" font-size="10.00">/Eigen/Eigen/src/Core/util</text>
<text text-anchor="middle" x="2643" y="-7.5" font-family="Helvetica,sans-Serif" font-size="10.00">/IntegralConstant.h</text>
</g>
<!-- Node15&#45;&gt;Node38 -->
<g id="edge44" class="edge"><title>Node15&#45;&gt;Node38</title>
<path fill="none" stroke="midnightblue" d="M2004.75,-97.6892C2116.19,-96.1815 2349.18,-88.7883 2553.53,-53.1048"/>
<polygon fill="midnightblue" stroke="midnightblue" points="2554.32,-56.521 2563.55,-51.3288 2553.09,-49.6285 2554.32,-56.521"/>
</g>
<!-- Node39 -->
<g id="node39" class="node"><title>Node39</title>
<polygon fill="white" stroke="#bfbfbf" points="2740,-0.5 2740,-52.5 2898,-52.5 2898,-0.5 2740,-0.5"/>
<text text-anchor="start" x="2748" y="-40.5" font-family="Helvetica,sans-Serif" font-size="10.00">/home/travis/build</text>
<text text-anchor="start" x="2748" y="-29.5" font-family="Helvetica,sans-Serif" font-size="10.00">/STORM&#45;IRIT/OpenGR/3rdparty</text>
<text text-anchor="start" x="2748" y="-18.5" font-family="Helvetica,sans-Serif" font-size="10.00">/Eigen/Eigen/src/Core/util</text>
<text text-anchor="middle" x="2819" y="-7.5" font-family="Helvetica,sans-Serif" font-size="10.00">/SymbolicIndex.h</text>
</g>
<!-- Node15&#45;&gt;Node39 -->
<g id="edge45" class="edge"><title>Node15&#45;&gt;Node39</title>
<path fill="none" stroke="midnightblue" d="M2004.51,-96.1785C2164.69,-91.4255 2573.85,-77.4051 2729.67,-53.0098"/>
<polygon fill="midnightblue" stroke="midnightblue" points="2730.26,-56.4599 2739.56,-51.3879 2729.13,-49.5521 2730.26,-56.4599"/>
</g>
<!-- Node40 -->
<g id="node40" class="node"><title>Node40</title>
<polygon fill="white" stroke="#bfbfbf" points="2916,-6 2916,-47 3094,-47 3094,-6 2916,-6"/>
<text text-anchor="start" x="2924" y="-35" font-family="Helvetica,sans-Serif" font-size="10.00">/home/travis/build</text>
<text text-anchor="start" x="2924" y="-24" font-family="Helvetica,sans-Serif" font-size="10.00">/STORM&#45;IRIT/OpenGR/3rdparty</text>
<text text-anchor="middle" x="3005" y="-13" font-family="Helvetica,sans-Serif" font-size="10.00">/Eigen/Eigen/src/Core/NumTraits.h</text>
</g>
<!-- Node15&#45;&gt;Node40 -->
<g id="edge46" class="edge"><title>Node15&#45;&gt;Node40</title>
<path fill="none" stroke="midnightblue" d="M2004.61,-96.7289C2192.86,-92.7997 2732.35,-79.4866 2907,-53 2913.66,-51.9905 2920.51,-50.7124 2927.37,-49.2686"/>
<polygon fill="midnightblue" stroke="midnightblue" points="2928.37,-52.6311 2937.37,-47.0467 2926.85,-45.7975 2928.37,-52.6311"/>
</g>
<!-- Node41 -->
<g id="node41" class="node"><title>Node41</title>
<polygon fill="white" stroke="#bfbfbf" points="3112.5,-6 3112.5,-47 3311.5,-47 3311.5,-6 3112.5,-6"/>
<text text-anchor="start" x="3120.5" y="-35" font-family="Helvetica,sans-Serif" font-size="10.00">/home/travis/build</text>
<text text-anchor="start" x="3120.5" y="-24" font-family="Helvetica,sans-Serif" font-size="10.00">/STORM&#45;IRIT/OpenGR/3rdparty</text>
<text text-anchor="middle" x="3212" y="-13" font-family="Helvetica,sans-Serif" font-size="10.00">/Eigen/Eigen/src/Core/MathFunctions.h</text>
</g>
<!-- Node15&#45;&gt;Node41 -->
<g id="edge47" class="edge"><title>Node15&#45;&gt;Node41</title>
<path fill="none" stroke="midnightblue" d="M2004.65,-97.1131C2217.68,-93.9755 2888.31,-81.992 3103,-53 3110.87,-51.9368 3119.01,-50.563 3127.13,-49.0048"/>
<polygon fill="midnightblue" stroke="midnightblue" points="3127.89,-52.4225 3137,-47.0212 3126.51,-45.5597 3127.89,-52.4225"/>
</g>
<!-- Node42 -->
<g id="node42" class="node"><title>Node42</title>
<polygon fill="white" stroke="#bfbfbf" points="3329.5,-0.5 3329.5,-52.5 3518.5,-52.5 3518.5,-0.5 3329.5,-0.5"/>
<text text-anchor="start" x="3337.5" y="-40.5" font-family="Helvetica,sans-Serif" font-size="10.00">/home/travis/build</text>
<text text-anchor="start" x="3337.5" y="-29.5" font-family="Helvetica,sans-Serif" font-size="10.00">/STORM&#45;IRIT/OpenGR/3rdparty</text>
<text text-anchor="start" x="3337.5" y="-18.5" font-family="Helvetica,sans-Serif" font-size="10.00">/Eigen/Eigen/src/Core/GenericPacket</text>
<text text-anchor="middle" x="3424" y="-7.5" font-family="Helvetica,sans-Serif" font-size="10.00">Math.h</text>
</g>
<!-- Node15&#45;&gt;Node42 -->
<g id="edge48" class="edge"><title>Node15&#45;&gt;Node42</title>
<path fill="none" stroke="midnightblue" d="M2004.54,-97.6694C2239.69,-96.2053 3041.21,-88.7481 3319.16,-52.9403"/>
<polygon fill="midnightblue" stroke="midnightblue" points="3319.77,-56.3898 3329.22,-51.5998 3318.85,-49.4511 3319.77,-56.3898"/>
</g>
<!-- Node43 -->
<g id="node43" class="node"><title>Node43</title>
<polygon fill="white" stroke="#bfbfbf" points="3537,-0.5 3537,-52.5 3727,-52.5 3727,-0.5 3537,-0.5"/>
<text text-anchor="start" x="3545" y="-40.5" font-family="Helvetica,sans-Serif" font-size="10.00">/home/travis/build</text>
<text text-anchor="start" x="3545" y="-29.5" font-family="Helvetica,sans-Serif" font-size="10.00">/STORM&#45;IRIT/OpenGR/3rdparty</text>
<text text-anchor="start" x="3545" y="-18.5" font-family="Helvetica,sans-Serif" font-size="10.00">/Eigen/Eigen/src/Core/MathFunctions</text>
<text text-anchor="middle" x="3632" y="-7.5" font-family="Helvetica,sans-Serif" font-size="10.00">Impl.h</text>
</g>
<!-- Node15&#45;&gt;Node43 -->
<g id="edge49" class="edge"><title>Node15&#45;&gt;Node43</title>
<path fill="none" stroke="midnightblue" d="M2004.76,-97.9752C2262.5,-97.5963 3205.07,-93.4989 3526.62,-52.8597"/>
<polygon fill="midnightblue" stroke="midnightblue" points="3527.41,-56.2864 3536.88,-51.5228 3526.51,-49.3451 3527.41,-56.2864"/>
</g>
<!-- Node44 -->
<g id="node44" class="node"><title>Node44</title>
<polygon fill="white" stroke="#bfbfbf" points="3745,-0.5 3745,-52.5 3903,-52.5 3903,-0.5 3745,-0.5"/>
<text text-anchor="start" x="3753" y="-40.5" font-family="Helvetica,sans-Serif" font-size="10.00">/home/travis/build</text>
<text text-anchor="start" x="3753" y="-29.5" font-family="Helvetica,sans-Serif" font-size="10.00">/STORM&#45;IRIT/OpenGR/3rdparty</text>
<text text-anchor="start" x="3753" y="-18.5" font-family="Helvetica,sans-Serif" font-size="10.00">/Eigen/Eigen/src/Core/arch</text>
<text text-anchor="middle" x="3824" y="-7.5" font-family="Helvetica,sans-Serif" font-size="10.00">/CUDA/Half.h</text>
</g>
<!-- Node15&#45;&gt;Node44 -->
<g id="edge50" class="edge"><title>Node15&#45;&gt;Node44</title>
<path fill="none" stroke="midnightblue" d="M2004.54,-97.3561C2302.22,-94.2991 3521.2,-80.3081 3734.64,-52.9035"/>
<polygon fill="midnightblue" stroke="midnightblue" points="3735.17,-56.364 3744.58,-51.5041 3734.19,-49.4323 3735.17,-56.364"/>
</g>
<!-- Node45 -->
<g id="node45" class="node"><title>Node45</title>
<polygon fill="white" stroke="#bfbfbf" points="3921,-0.5 3921,-52.5 4079,-52.5 4079,-0.5 3921,-0.5"/>
<text text-anchor="start" x="3929" y="-40.5" font-family="Helvetica,sans-Serif" font-size="10.00">/home/travis/build</text>
<text text-anchor="start" x="3929" y="-29.5" font-family="Helvetica,sans-Serif" font-size="10.00">/STORM&#45;IRIT/OpenGR/3rdparty</text>
<text text-anchor="start" x="3929" y="-18.5" font-family="Helvetica,sans-Serif" font-size="10.00">/Eigen/Eigen/src/Core/arch</text>
<text text-anchor="middle" x="4000" y="-7.5" font-family="Helvetica,sans-Serif" font-size="10.00">/CUDA/PacketMathHalf.h</text>
</g>
<!-- Node15&#45;&gt;Node45 -->
<g id="edge51" class="edge"><title>Node15&#45;&gt;Node45</title>
<path fill="none" stroke="midnightblue" d="M2004.72,-97.5123C2320.77,-95.0329 3678.42,-82.8115 3910.68,-52.9038"/>
<polygon fill="midnightblue" stroke="midnightblue" points="3911.17,-56.3698 3920.58,-51.5123 3910.19,-49.4378 3911.17,-56.3698"/>
</g>
<!-- Node46 -->
<g id="node46" class="node"><title>Node46</title>
<polygon fill="white" stroke="#bfbfbf" points="4097,-0.5 4097,-52.5 4255,-52.5 4255,-0.5 4097,-0.5"/>
<text text-anchor="start" x="4105" y="-40.5" font-family="Helvetica,sans-Serif" font-size="10.00">/home/travis/build</text>
<text text-anchor="start" x="4105" y="-29.5" font-family="Helvetica,sans-Serif" font-size="10.00">/STORM&#45;IRIT/OpenGR/3rdparty</text>
<text text-anchor="start" x="4105" y="-18.5" font-family="Helvetica,sans-Serif" font-size="10.00">/Eigen/Eigen/src/Core/arch</text>
<text text-anchor="middle" x="4176" y="-7.5" font-family="Helvetica,sans-Serif" font-size="10.00">/CUDA/TypeCasting.h</text>
</g>
<!-- Node15&#45;&gt;Node46 -->
<g id="edge52" class="edge"><title>Node15&#45;&gt;Node46</title>
<path fill="none" stroke="midnightblue" d="M2004.61,-97.6452C2337.67,-95.7094 3834.82,-85.3471 4086.52,-52.9297"/>
<polygon fill="midnightblue" stroke="midnightblue" points="4087.17,-56.3729 4096.58,-51.5191 4086.19,-49.4407 4087.17,-56.3729"/>
</g>
<!-- Node47 -->
<g id="node47" class="node"><title>Node47</title>
<polygon fill="white" stroke="#bfbfbf" points="4273,-0.5 4273,-52.5 4431,-52.5 4431,-0.5 4273,-0.5"/>
<text text-anchor="start" x="4281" y="-40.5" font-family="Helvetica,sans-Serif" font-size="10.00">/home/travis/build</text>
<text text-anchor="start" x="4281" y="-29.5" font-family="Helvetica,sans-Serif" font-size="10.00">/STORM&#45;IRIT/OpenGR/3rdparty</text>
<text text-anchor="start" x="4281" y="-18.5" font-family="Helvetica,sans-Serif" font-size="10.00">/Eigen/Eigen/src/Core/arch</text>
<text text-anchor="middle" x="4352" y="-7.5" font-family="Helvetica,sans-Serif" font-size="10.00">/Default/Settings.h</text>
</g>
<!-- Node15&#45;&gt;Node47 -->
<g id="edge53" class="edge"><title>Node15&#45;&gt;Node47</title>
<path fill="none" stroke="midnightblue" d="M2004.66,-97.7571C2354.36,-96.3281 3991.76,-87.8886 4262.47,-52.9399"/>
<polygon fill="midnightblue" stroke="midnightblue" points="4263.17,-56.3771 4272.58,-51.525 4262.2,-49.4446 4263.17,-56.3771"/>
</g>
<!-- Node48 -->
<g id="node48" class="node"><title>Node48</title>
<polygon fill="white" stroke="#bfbfbf" points="4449,-0.5 4449,-52.5 4609,-52.5 4609,-0.5 4449,-0.5"/>
<text text-anchor="start" x="4457" y="-40.5" font-family="Helvetica,sans-Serif" font-size="10.00">/home/travis/build</text>
<text text-anchor="start" x="4457" y="-29.5" font-family="Helvetica,sans-Serif" font-size="10.00">/STORM&#45;IRIT/OpenGR/3rdparty</text>
<text text-anchor="start" x="4457" y="-18.5" font-family="Helvetica,sans-Serif" font-size="10.00">/Eigen/Eigen/src/Core/functors</text>
<text text-anchor="middle" x="4529" y="-7.5" font-family="Helvetica,sans-Serif" font-size="10.00">/TernaryFunctors.h</text>
</g>
<!-- Node15&#45;&gt;Node48 -->
<g id="edge54" class="edge"><title>Node15&#45;&gt;Node48</title>
<path fill="none" stroke="midnightblue" d="M2004.71,-97.8418C2370.49,-96.8264 4149.13,-90.0768 4438.63,-52.921"/>
<polygon fill="midnightblue" stroke="midnightblue" points="4439.25,-56.3686 4448.68,-51.5295 4438.29,-49.4348 4439.25,-56.3686"/>
</g>
<!-- Node49&#45;&gt;Node10 -->
<g id="edge59" class="edge"><title>Node49&#45;&gt;Node10</title>
<path fill="none" stroke="midnightblue" d="M4812.88,-89.3553C4812.73,-78.6786 4812.46,-60.2167 4812.27,-46.2343"/>
<polygon fill="midnightblue" stroke="midnightblue" points="4815.77,-46.1647 4812.12,-36.2154 4808.77,-46.2641 4815.77,-46.1647"/>
</g>
</g>
</svg>
