<?xml version="1.0" encoding="UTF-8" standalone="no"?>
<!DOCTYPE svg PUBLIC "-//W3C//DTD SVG 1.1//EN"
 "http://www.w3.org/Graphics/SVG/1.1/DTD/svg11.dtd">
<!-- Generated by graphviz version 2.38.0 (20140413.2041)
 -->
<!-- Title: /home/travis/build/STORM&#45;IRIT/OpenGR/src/gr/algorithms/matchBase.h Pages: 1 -->
<svg width="5754pt" height="251pt"
 viewBox="0.00 0.00 5754.00 251.00" xmlns="http://www.w3.org/2000/svg" xmlns:xlink="http://www.w3.org/1999/xlink">
<g id="graph0" class="graph" transform="scale(1 1) rotate(0) translate(4 247)">
<title>/home/travis/build/STORM&#45;IRIT/OpenGR/src/gr/algorithms/matchBase.h</title>
<polygon fill="white" stroke="none" points="-4,4 -4,-247 5750,-247 5750,4 -4,4"/>
<!-- Node1 -->
<g id="node1" class="node"><title>Node1</title>
<polygon fill="#bfbfbf" stroke="black" points="165,-201.5 165,-242.5 315,-242.5 315,-201.5 165,-201.5"/>
<text text-anchor="start" x="173" y="-230.5" font-family="Helvetica,sans-Serif" font-size="10.00">/home/travis/build</text>
<text text-anchor="start" x="173" y="-219.5" font-family="Helvetica,sans-Serif" font-size="10.00">/STORM&#45;IRIT/OpenGR/src</text>
<text text-anchor="middle" x="240" y="-208.5" font-family="Helvetica,sans-Serif" font-size="10.00">/gr/algorithms/matchBase.h</text>
</g>
<!-- Node2 -->
<g id="node2" class="node"><title>Node2</title>
<polygon fill="white" stroke="#bfbfbf" points="88.5,-17 88.5,-36 135.5,-36 135.5,-17 88.5,-17"/>
<text text-anchor="middle" x="112" y="-24" font-family="Helvetica,sans-Serif" font-size="10.00">vector</text>
</g>
<!-- Node1&#45;&gt;Node2 -->
<g id="edge1" class="edge"><title>Node1&#45;&gt;Node2</title>
<path fill="none" stroke="midnightblue" d="M185.285,-201.49C168.075,-192.815 150.563,-180.886 139,-165 112.953,-129.217 110.291,-74.8479 110.931,-46.3832"/>
<polygon fill="midnightblue" stroke="midnightblue" points="114.436,-46.3391 111.332,-36.2093 107.441,-46.064 114.436,-46.3391"/>
</g>
<!-- Node3 -->
<g id="node3" class="node"><title>Node3</title>
<g id="a_node3"><a xlink:href="a00100.html" target="_top" xlink:title="gr/utils/shared.h">
<polygon fill="white" stroke="black" points="230,-89.5 230,-108.5 324,-108.5 324,-89.5 230,-89.5"/>
<text text-anchor="middle" x="277" y="-96.5" font-family="Helvetica,sans-Serif" font-size="10.00">gr/utils/shared.h</text>
</a>
</g>
</g>
<!-- Node1&#45;&gt;Node3 -->
<g id="edge2" class="edge"><title>Node1&#45;&gt;Node3</title>
<path fill="none" stroke="midnightblue" d="M247.957,-201.499C252.148,-190.823 257.194,-177.3 261,-165 265.782,-149.544 270.095,-131.675 273.035,-118.589"/>
<polygon fill="midnightblue" stroke="midnightblue" points="276.523,-119.018 275.242,-108.501 269.685,-117.522 276.523,-119.018"/>
</g>
<!-- Node10 -->
<g id="node10" class="node"><title>Node10</title>
<g id="a_node10"><a xlink:href="a00099.html" target="_top" xlink:title="gr/utils/sampling.h">
<polygon fill="white" stroke="black" points="148,-145.5 148,-164.5 252,-164.5 252,-145.5 148,-145.5"/>
<text text-anchor="middle" x="200" y="-152.5" font-family="Helvetica,sans-Serif" font-size="10.00">gr/utils/sampling.h</text>
</a>
</g>
</g>
<!-- Node1&#45;&gt;Node10 -->
<g id="edge10" class="edge"><title>Node1&#45;&gt;Node10</title>
<path fill="none" stroke="midnightblue" d="M227.999,-201.498C222.456,-192.49 215.931,-181.888 210.576,-173.185"/>
<polygon fill="midnightblue" stroke="midnightblue" points="213.546,-171.335 205.325,-164.652 207.585,-175.003 213.546,-171.335"/>
</g>
<!-- Node11 -->
<g id="node11" class="node"><title>Node11</title>
<g id="a_node11"><a xlink:href="a00072.html" target="_top" xlink:title="gr/accelerators/kdtree.h">
<polygon fill="white" stroke="red" points="3463.5,-89.5 3463.5,-108.5 3594.5,-108.5 3594.5,-89.5 3463.5,-89.5"/>
<text text-anchor="middle" x="3529" y="-96.5" font-family="Helvetica,sans-Serif" font-size="10.00">gr/accelerators/kdtree.h</text>
</a>
</g>
</g>
<!-- Node1&#45;&gt;Node11 -->
<g id="edge14" class="edge"><title>Node1&#45;&gt;Node11</title>
<path fill="none" stroke="midnightblue" d="M272.699,-201.468C309.036,-179.943 364.061,-147.951 375,-145 528.112,-103.694 2987.1,-100.296 3453.1,-100.023"/>
<polygon fill="midnightblue" stroke="midnightblue" points="3453.42,-103.523 3463.42,-100.017 3453.41,-96.5228 3453.42,-103.523"/>
</g>
<!-- Node48 -->
<g id="node48" class="node"><title>Node48</title>
<g id="a_node48"><a xlink:href="a00097.html" target="_top" xlink:title="gr/utils/logger.h">
<polygon fill="white" stroke="black" points="342,-89.5 342,-108.5 432,-108.5 432,-89.5 342,-89.5"/>
<text text-anchor="middle" x="387" y="-96.5" font-family="Helvetica,sans-Serif" font-size="10.00">gr/utils/logger.h</text>
</a>
</g>
</g>
<!-- Node1&#45;&gt;Node48 -->
<g id="edge55" class="edge"><title>Node1&#45;&gt;Node48</title>
<path fill="none" stroke="midnightblue" d="M263.945,-201.29C293.31,-177.119 342.426,-136.69 368.854,-114.937"/>
<polygon fill="midnightblue" stroke="midnightblue" points="371.086,-117.632 376.583,-108.575 366.637,-112.228 371.086,-117.632"/>
</g>
<!-- Node49 -->
<g id="node49" class="node"><title>Node49</title>
<g id="a_node49"><a xlink:href="a00094.html" target="_top" xlink:title="gr/utils/crtp.h">
<polygon fill="white" stroke="black" points="384,-145.5 384,-164.5 464,-164.5 464,-145.5 384,-145.5"/>
<text text-anchor="middle" x="424" y="-152.5" font-family="Helvetica,sans-Serif" font-size="10.00">gr/utils/crtp.h</text>
</a>
</g>
</g>
<!-- Node1&#45;&gt;Node49 -->
<g id="edge57" class="edge"><title>Node1&#45;&gt;Node49</title>
<path fill="none" stroke="midnightblue" d="M295.206,-201.498C325.994,-190.622 363.363,-177.421 389.902,-168.045"/>
<polygon fill="midnightblue" stroke="midnightblue" points="391.244,-171.284 399.507,-164.652 388.912,-164.683 391.244,-171.284"/>
</g>
<!-- Node50 -->
<g id="node50" class="node"><title>Node50</title>
<g id="a_node50"><a xlink:href="a00091.html" target="_top" xlink:title="matchBase.hpp">
<polygon fill="white" stroke="red" points="0,-145.5 0,-164.5 92,-164.5 92,-145.5 0,-145.5"/>
<text text-anchor="middle" x="46" y="-152.5" font-family="Helvetica,sans-Serif" font-size="10.00">matchBase.hpp</text>
</a>
</g>
</g>
<!-- Node1&#45;&gt;Node50 -->
<g id="edge58" class="edge"><title>Node1&#45;&gt;Node50</title>
<path fill="none" stroke="midnightblue" d="M175.548,-201.498C142.197,-190.622 103.084,-177.421 76.5676,-168.045"/>
<polygon fill="midnightblue" stroke="midnightblue" points="77.6545,-164.717 67.0599,-164.652 75.3018,-171.31 77.6545,-164.717"/>
</g>
<!-- Node3&#45;&gt;Node2 -->
<g id="edge5" class="edge"><title>Node3&#45;&gt;Node2</title>
<path fill="none" stroke="midnightblue" d="M240.883,-89.4289C213.308,-82.0353 174.919,-69.873 144,-53 138.7,-50.1076 133.391,-46.3246 128.664,-42.5614"/>
<polygon fill="midnightblue" stroke="midnightblue" points="130.808,-39.7901 120.912,-36.0056 126.288,-45.1353 130.808,-39.7901"/>
</g>
<!-- Node4 -->
<g id="node4" class="node"><title>Node4</title>
<g id="a_node4"><a xlink:href="a00095.html" target="_top" xlink:title="gr/utils/disablewarnings.h">
<polygon fill="white" stroke="black" points="521.5,-17 521.5,-36 658.5,-36 658.5,-17 521.5,-17"/>
<text text-anchor="middle" x="590" y="-24" font-family="Helvetica,sans-Serif" font-size="10.00">gr/utils/disablewarnings.h</text>
</a>
</g>
</g>
<!-- Node3&#45;&gt;Node4 -->
<g id="edge3" class="edge"><title>Node3&#45;&gt;Node4</title>
<path fill="none" stroke="midnightblue" d="M324.118,-89.7082C382.12,-79.3734 477.208,-61.9797 512,-53 526.875,-49.1609 543.057,-44.0318 556.807,-39.3806"/>
<polygon fill="midnightblue" stroke="midnightblue" points="558.017,-42.6657 566.335,-36.1035 555.74,-36.0462 558.017,-42.6657"/>
</g>
<!-- Node5 -->
<g id="node5" class="node"><title>Node5</title>
<polygon fill="white" stroke="#bfbfbf" points="435,-17 435,-36 503,-36 503,-17 435,-17"/>
<text text-anchor="middle" x="469" y="-24" font-family="Helvetica,sans-Serif" font-size="10.00">Eigen/Core</text>
</g>
<!-- Node3&#45;&gt;Node5 -->
<g id="edge4" class="edge"><title>Node3&#45;&gt;Node5</title>
<path fill="none" stroke="midnightblue" d="M313.414,-89.429C343.892,-81.6689 388.181,-69.0116 425,-53 432.459,-49.7563 440.248,-45.5448 447.163,-41.4823"/>
<polygon fill="midnightblue" stroke="midnightblue" points="449.217,-44.3295 455.938,-36.1395 445.576,-38.3505 449.217,-44.3295"/>
</g>
<!-- Node6 -->
<g id="node6" class="node"><title>Node6</title>
<polygon fill="white" stroke="#bfbfbf" points="357.5,-17 357.5,-36 416.5,-36 416.5,-17 357.5,-17"/>
<text text-anchor="middle" x="387" y="-24" font-family="Helvetica,sans-Serif" font-size="10.00">iostream</text>
</g>
<!-- Node3&#45;&gt;Node6 -->
<g id="edge6" class="edge"><title>Node3&#45;&gt;Node6</title>
<path fill="none" stroke="midnightblue" d="M290.648,-89.4303C304.97,-80.4184 328.121,-65.7974 348,-53 353.714,-49.3216 359.877,-45.3117 365.579,-41.5839"/>
<polygon fill="midnightblue" stroke="midnightblue" points="367.584,-44.4546 374.03,-36.0462 363.747,-38.5997 367.584,-44.4546"/>
</g>
<!-- Node7 -->
<g id="node7" class="node"><title>Node7</title>
<polygon fill="white" stroke="#bfbfbf" points="213,-17 213,-36 267,-36 267,-17 213,-17"/>
<text text-anchor="middle" x="240" y="-24" font-family="Helvetica,sans-Serif" font-size="10.00">fstream</text>
</g>
<!-- Node3&#45;&gt;Node7 -->
<g id="edge7" class="edge"><title>Node3&#45;&gt;Node7</title>
<path fill="none" stroke="midnightblue" d="M272.463,-89.3553C266.749,-78.4672 256.785,-59.4825 249.399,-45.4091"/>
<polygon fill="midnightblue" stroke="midnightblue" points="252.32,-43.4435 244.574,-36.2154 246.122,-46.6965 252.32,-43.4435"/>
</g>
<!-- Node8 -->
<g id="node8" class="node"><title>Node8</title>
<polygon fill="white" stroke="#bfbfbf" points="153.5,-17 153.5,-36 194.5,-36 194.5,-17 153.5,-17"/>
<text text-anchor="middle" x="174" y="-24" font-family="Helvetica,sans-Serif" font-size="10.00">array</text>
</g>
<!-- Node3&#45;&gt;Node8 -->
<g id="edge8" class="edge"><title>Node3&#45;&gt;Node8</title>
<path fill="none" stroke="midnightblue" d="M261.463,-89.3451C246.376,-80.7294 223.029,-66.8292 204,-53 199.732,-49.8981 195.31,-46.3485 191.216,-42.9032"/>
<polygon fill="midnightblue" stroke="midnightblue" points="193.275,-40.0562 183.424,-36.1545 188.691,-45.3473 193.275,-40.0562"/>
</g>
<!-- Node9 -->
<g id="node9" class="node"><title>Node9</title>
<polygon fill="white" stroke="#bfbfbf" points="285,-17 285,-36 339,-36 339,-17 285,-17"/>
<text text-anchor="middle" x="312" y="-24" font-family="Helvetica,sans-Serif" font-size="10.00">random</text>
</g>
<!-- Node3&#45;&gt;Node9 -->
<g id="edge9" class="edge"><title>Node3&#45;&gt;Node9</title>
<path fill="none" stroke="midnightblue" d="M281.292,-89.3553C286.697,-78.4672 296.122,-59.4825 303.109,-45.4091"/>
<polygon fill="midnightblue" stroke="midnightblue" points="306.361,-46.7287 307.673,-36.2154 300.092,-43.616 306.361,-46.7287"/>
</g>
<!-- Node10&#45;&gt;Node2 -->
<g id="edge11" class="edge"><title>Node10&#45;&gt;Node2</title>
<path fill="none" stroke="midnightblue" d="M193.951,-145.305C179.571,-124.633 143.118,-72.2323 124.047,-44.8176"/>
<polygon fill="midnightblue" stroke="midnightblue" points="126.675,-42.466 118.091,-36.2557 120.928,-46.4635 126.675,-42.466"/>
</g>
<!-- Node10&#45;&gt;Node3 -->
<g id="edge13" class="edge"><title>Node10&#45;&gt;Node3</title>
<path fill="none" stroke="midnightblue" d="M212.371,-145.324C224.158,-137.058 242.132,-124.453 256.136,-114.632"/>
<polygon fill="midnightblue" stroke="midnightblue" points="258.482,-117.262 264.659,-108.655 254.462,-111.531 258.482,-117.262"/>
</g>
<!-- Node10&#45;&gt;Node8 -->
<g id="edge12" class="edge"><title>Node10&#45;&gt;Node8</title>
<path fill="none" stroke="midnightblue" d="M198.213,-145.305C194.038,-124.994 183.568,-74.0532 177.859,-46.2768"/>
<polygon fill="midnightblue" stroke="midnightblue" points="181.241,-45.3463 175.8,-36.2557 174.385,-46.7556 181.241,-45.3463"/>
</g>
<!-- Node11&#45;&gt;Node2 -->
<g id="edge54" class="edge"><title>Node11&#45;&gt;Node2</title>
<path fill="none" stroke="midnightblue" d="M3463.47,-97.7159C2999.41,-95.6329 225.141,-81.9824 144,-53 137.914,-50.8263 132.113,-46.9775 127.162,-42.9186"/>
<polygon fill="midnightblue" stroke="midnightblue" points="129.483,-40.2975 119.734,-36.148 124.767,-45.471 129.483,-40.2975"/>
</g>
<!-- Node11&#45;&gt;Node4 -->
<g id="edge15" class="edge"><title>Node11&#45;&gt;Node4</title>
<path fill="none" stroke="midnightblue" d="M3463.19,-98.1466C3061.87,-98.8837 951.557,-100.464 668,-53 651.831,-50.2935 634.438,-44.868 620.189,-39.7146"/>
<polygon fill="midnightblue" stroke="midnightblue" points="621.023,-36.2895 610.431,-36.0531 618.564,-42.8433 621.023,-36.2895"/>
</g>
<!-- Node11&#45;&gt;Node5 -->
<g id="edge16" class="edge"><title>Node11&#45;&gt;Node5</title>
<path fill="none" stroke="midnightblue" d="M3463.21,-97.9604C3035.27,-97.5852 659.911,-93.6717 513,-53 504.504,-50.648 495.943,-46.2518 488.659,-41.7637"/>
<polygon fill="midnightblue" stroke="midnightblue" points="490.488,-38.777 480.217,-36.1765 486.624,-44.6144 490.488,-38.777"/>
</g>
<!-- Node11&#45;&gt;Node6 -->
<g id="edge53" class="edge"><title>Node11&#45;&gt;Node6</title>
<path fill="none" stroke="midnightblue" d="M3463.4,-98.0854C3028.69,-98.5224 576.218,-98.9397 426,-53 418.619,-50.7428 411.323,-46.6264 405.074,-42.3499"/>
<polygon fill="midnightblue" stroke="midnightblue" points="406.888,-39.3371 396.778,-36.168 402.705,-44.9499 406.888,-39.3371"/>
</g>
<!-- Node12 -->
<g id="node12" class="node"><title>Node12</title>
<polygon fill="white" stroke="#bfbfbf" points="3450,-0.5 3450,-52.5 3608,-52.5 3608,-0.5 3450,-0.5"/>
<text text-anchor="start" x="3458" y="-40.5" font-family="Helvetica,sans-Serif" font-size="10.00">/home/travis/build</text>
<text text-anchor="start" x="3458" y="-29.5" font-family="Helvetica,sans-Serif" font-size="10.00">/STORM&#45;IRIT/OpenGR/3rdparty</text>
<text text-anchor="start" x="3458" y="-18.5" font-family="Helvetica,sans-Serif" font-size="10.00">/Eigen/Eigen/src/Core/util</text>
<text text-anchor="middle" x="3529" y="-7.5" font-family="Helvetica,sans-Serif" font-size="10.00">/DisableStupidWarnings.h</text>
</g>
<!-- Node11&#45;&gt;Node12 -->
<g id="edge17" class="edge"><title>Node11&#45;&gt;Node12</title>
<path fill="none" stroke="midnightblue" d="M3529,-89.3553C3529,-82.5876 3529,-72.6918 3529,-62.7916"/>
<polygon fill="midnightblue" stroke="midnightblue" points="3532.5,-62.6038 3529,-52.6038 3525.5,-62.6039 3532.5,-62.6038"/>
</g>
<!-- Node13 -->
<g id="node13" class="node"><title>Node13</title>
<polygon fill="white" stroke="#bfbfbf" points="3626,-0.5 3626,-52.5 3784,-52.5 3784,-0.5 3626,-0.5"/>
<text text-anchor="start" x="3634" y="-40.5" font-family="Helvetica,sans-Serif" font-size="10.00">/home/travis/build</text>
<text text-anchor="start" x="3634" y="-29.5" font-family="Helvetica,sans-Serif" font-size="10.00">/STORM&#45;IRIT/OpenGR/3rdparty</text>
<text text-anchor="start" x="3634" y="-18.5" font-family="Helvetica,sans-Serif" font-size="10.00">/Eigen/Eigen/src/Core/util</text>
<text text-anchor="middle" x="3705" y="-7.5" font-family="Helvetica,sans-Serif" font-size="10.00">/Macros.h</text>
</g>
<!-- Node11&#45;&gt;Node13 -->
<g id="edge18" class="edge"><title>Node11&#45;&gt;Node13</title>
<path fill="none" stroke="midnightblue" d="M3550.23,-89.4961C3570.77,-81.2675 3603.09,-68.322 3632.89,-56.384"/>
<polygon fill="midnightblue" stroke="midnightblue" points="3634.48,-59.5182 3642.46,-52.5507 3631.88,-53.0202 3634.48,-59.5182"/>
</g>
<!-- Node14 -->
<g id="node14" class="node"><title>Node14</title>
<polygon fill="white" stroke="#bfbfbf" points="3801.5,-17 3801.5,-36 3858.5,-36 3858.5,-17 3801.5,-17"/>
<text text-anchor="middle" x="3830" y="-24" font-family="Helvetica,sans-Serif" font-size="10.00">complex</text>
</g>
<!-- Node11&#45;&gt;Node14 -->
<g id="edge19" class="edge"><title>Node11&#45;&gt;Node14</title>
<path fill="none" stroke="midnightblue" d="M3594.62,-94.7073C3649.39,-90.1274 3728.61,-79.1777 3793,-53 3799.54,-50.3392 3806.09,-46.3698 3811.82,-42.3505"/>
<polygon fill="midnightblue" stroke="midnightblue" points="3814.14,-44.9847 3820.02,-36.1746 3809.93,-39.3919 3814.14,-44.9847"/>
</g>
<!-- Node15 -->
<g id="node15" class="node"><title>Node15</title>
<polygon fill="white" stroke="#bfbfbf" points="3876,-0.5 3876,-52.5 4034,-52.5 4034,-0.5 3876,-0.5"/>
<text text-anchor="start" x="3884" y="-40.5" font-family="Helvetica,sans-Serif" font-size="10.00">/home/travis/build</text>
<text text-anchor="start" x="3884" y="-29.5" font-family="Helvetica,sans-Serif" font-size="10.00">/STORM&#45;IRIT/OpenGR/3rdparty</text>
<text text-anchor="start" x="3884" y="-18.5" font-family="Helvetica,sans-Serif" font-size="10.00">/Eigen/Eigen/src/Core/util</text>
<text text-anchor="middle" x="3955" y="-7.5" font-family="Helvetica,sans-Serif" font-size="10.00">/MKL_support.h</text>
</g>
<!-- Node11&#45;&gt;Node15 -->
<g id="edge20" class="edge"><title>Node11&#45;&gt;Node15</title>
<path fill="none" stroke="midnightblue" d="M3594.81,-92.2774C3661.27,-85.8195 3766.97,-73.6958 3866.07,-53.2947"/>
<polygon fill="midnightblue" stroke="midnightblue" points="3866.87,-56.7022 3875.94,-51.2291 3865.44,-49.8505 3866.87,-56.7022"/>
</g>
<!-- Node16 -->
<g id="node16" class="node"><title>Node16</title>
<polygon fill="white" stroke="#bfbfbf" points="4051.5,-17 4051.5,-36 4098.5,-36 4098.5,-17 4051.5,-17"/>
<text text-anchor="middle" x="4075" y="-24" font-family="Helvetica,sans-Serif" font-size="10.00">cerrno</text>
</g>
<!-- Node11&#45;&gt;Node16 -->
<g id="edge21" class="edge"><title>Node11&#45;&gt;Node16</title>
<path fill="none" stroke="midnightblue" d="M3594.81,-96.9401C3714.59,-94.2398 3963.25,-84.8619 4043,-53 4048.77,-50.694 4054.34,-46.9853 4059.16,-43.1022"/>
<polygon fill="midnightblue" stroke="midnightblue" points="4061.79,-45.4513 4066.93,-36.1896 4057.13,-40.2212 4061.79,-45.4513"/>
</g>
<!-- Node17 -->
<g id="node17" class="node"><title>Node17</title>
<polygon fill="white" stroke="#bfbfbf" points="4117,-17 4117,-36 4169,-36 4169,-17 4117,-17"/>
<text text-anchor="middle" x="4143" y="-24" font-family="Helvetica,sans-Serif" font-size="10.00">cstddef</text>
</g>
<!-- Node11&#45;&gt;Node17 -->
<g id="edge22" class="edge"><title>Node11&#45;&gt;Node17</title>
<path fill="none" stroke="midnightblue" d="M3594.73,-97.3739C3725.89,-95.3956 4015.42,-87.1716 4108,-53 4114.48,-50.6081 4120.82,-46.6487 4126.28,-42.5549"/>
<polygon fill="midnightblue" stroke="midnightblue" points="4128.51,-45.2546 4134.04,-36.2173 4124.08,-39.8337 4128.51,-45.2546"/>
</g>
<!-- Node18 -->
<g id="node18" class="node"><title>Node18</title>
<polygon fill="white" stroke="#bfbfbf" points="4187.5,-17 4187.5,-36 4234.5,-36 4234.5,-17 4187.5,-17"/>
<text text-anchor="middle" x="4211" y="-24" font-family="Helvetica,sans-Serif" font-size="10.00">cstdlib</text>
</g>
<!-- Node11&#45;&gt;Node18 -->
<g id="edge23" class="edge"><title>Node11&#45;&gt;Node18</title>
<path fill="none" stroke="midnightblue" d="M3594.77,-98.2456C3737.8,-98.0064 4072.77,-93.0376 4178,-53 4184.07,-50.6908 4189.94,-46.8698 4195,-42.8797"/>
<polygon fill="midnightblue" stroke="midnightblue" points="4197.39,-45.4388 4202.65,-36.242 4192.8,-40.1512 4197.39,-45.4388"/>
</g>
<!-- Node19 -->
<g id="node19" class="node"><title>Node19</title>
<polygon fill="white" stroke="#bfbfbf" points="4252.5,-17 4252.5,-36 4299.5,-36 4299.5,-17 4252.5,-17"/>
<text text-anchor="middle" x="4276" y="-24" font-family="Helvetica,sans-Serif" font-size="10.00">cmath</text>
</g>
<!-- Node11&#45;&gt;Node19 -->
<g id="edge24" class="edge"><title>Node11&#45;&gt;Node19</title>
<path fill="none" stroke="midnightblue" d="M3594.53,-96.12C3759.74,-91.0629 4184.38,-75.9783 4244,-53 4250.03,-50.6762 4255.82,-46.784 4260.77,-42.7314"/>
<polygon fill="midnightblue" stroke="midnightblue" points="4263.14,-45.3078 4268.21,-36.0085 4258.45,-40.1122 4263.14,-45.3078"/>
</g>
<!-- Node20 -->
<g id="node20" class="node"><title>Node20</title>
<polygon fill="white" stroke="#bfbfbf" points="4318,-17 4318,-36 4370,-36 4370,-17 4318,-17"/>
<text text-anchor="middle" x="4344" y="-24" font-family="Helvetica,sans-Serif" font-size="10.00">cassert</text>
</g>
<!-- Node11&#45;&gt;Node20 -->
<g id="edge25" class="edge"><title>Node11&#45;&gt;Node20</title>
<path fill="none" stroke="midnightblue" d="M3594.61,-96.3364C3770.31,-91.5827 4242.67,-76.7352 4309,-53 4315.6,-50.6396 4322.03,-46.6188 4327.54,-42.459"/>
<polygon fill="midnightblue" stroke="midnightblue" points="4329.85,-45.0899 4335.34,-36.0268 4325.4,-39.6897 4329.85,-45.0899"/>
</g>
<!-- Node21 -->
<g id="node21" class="node"><title>Node21</title>
<polygon fill="white" stroke="#bfbfbf" points="4388.5,-17 4388.5,-36 4451.5,-36 4451.5,-17 4388.5,-17"/>
<text text-anchor="middle" x="4420" y="-24" font-family="Helvetica,sans-Serif" font-size="10.00">functional</text>
</g>
<!-- Node11&#45;&gt;Node21 -->
<g id="edge26" class="edge"><title>Node11&#45;&gt;Node21</title>
<path fill="none" stroke="midnightblue" d="M3594.63,-96.4089C3781.05,-91.6259 4305.03,-76.2576 4379,-53 4386.81,-50.5453 4394.62,-46.2545 4401.3,-41.8848"/>
<polygon fill="midnightblue" stroke="midnightblue" points="4403.44,-44.66 4409.61,-36.0425 4399.41,-38.9354 4403.44,-44.66"/>
</g>
<!-- Node22 -->
<g id="node22" class="node"><title>Node22</title>
<polygon fill="white" stroke="#bfbfbf" points="4470,-17 4470,-36 4516,-36 4516,-17 4470,-17"/>
<text text-anchor="middle" x="4493" y="-24" font-family="Helvetica,sans-Serif" font-size="10.00">iosfwd</text>
</g>
<!-- Node11&#45;&gt;Node22 -->
<g id="edge27" class="edge"><title>Node11&#45;&gt;Node22</title>
<path fill="none" stroke="midnightblue" d="M3594.66,-97.1583C3793.54,-94.2852 4380.62,-83.3063 4461,-53 4467.05,-50.7203 4472.84,-46.8408 4477.79,-42.7864"/>
<polygon fill="midnightblue" stroke="midnightblue" points="4480.17,-45.3559 4485.23,-36.0495 4475.47,-40.1667 4480.17,-45.3559"/>
</g>
<!-- Node23 -->
<g id="node23" class="node"><title>Node23</title>
<polygon fill="white" stroke="#bfbfbf" points="4534.5,-17 4534.5,-36 4583.5,-36 4583.5,-17 4534.5,-17"/>
<text text-anchor="middle" x="4559" y="-24" font-family="Helvetica,sans-Serif" font-size="10.00">cstring</text>
</g>
<!-- Node11&#45;&gt;Node23 -->
<g id="edge28" class="edge"><title>Node11&#45;&gt;Node23</title>
<path fill="none" stroke="midnightblue" d="M3594.68,-97.2743C3802.63,-94.6661 4437.98,-84.2051 4525,-53 4531.32,-50.7342 4537.44,-46.8588 4542.71,-42.8038"/>
<polygon fill="midnightblue" stroke="midnightblue" points="4545.29,-45.2029 4550.65,-36.0625 4540.76,-39.8669 4545.29,-45.2029"/>
</g>
<!-- Node24 -->
<g id="node24" class="node"><title>Node24</title>
<polygon fill="white" stroke="#bfbfbf" points="4602,-17 4602,-36 4646,-36 4646,-17 4602,-17"/>
<text text-anchor="middle" x="4624" y="-24" font-family="Helvetica,sans-Serif" font-size="10.00">string</text>
</g>
<!-- Node11&#45;&gt;Node24 -->
<g id="edge29" class="edge"><title>Node11&#45;&gt;Node24</title>
<path fill="none" stroke="midnightblue" d="M3594.61,-97.6415C3811.99,-96.1206 4500.13,-88.5223 4593,-53 4598.78,-50.7905 4604.27,-47.0482 4608.99,-43.1015"/>
<polygon fill="midnightblue" stroke="midnightblue" points="4611.61,-45.4455 4616.53,-36.0634 4606.83,-40.3282 4611.61,-45.4455"/>
</g>
<!-- Node25 -->
<g id="node25" class="node"><title>Node25</title>
<polygon fill="white" stroke="#bfbfbf" points="4664,-17 4664,-36 4706,-36 4706,-17 4664,-17"/>
<text text-anchor="middle" x="4685" y="-24" font-family="Helvetica,sans-Serif" font-size="10.00">limits</text>
</g>
<!-- Node11&#45;&gt;Node25 -->
<g id="edge30" class="edge"><title>Node11&#45;&gt;Node25</title>
<path fill="none" stroke="midnightblue" d="M3594.89,-97.8644C3820.93,-97.056 4556.47,-91.4664 4655,-53 4660.65,-50.7937 4665.99,-47.0524 4670.55,-43.1055"/>
<polygon fill="midnightblue" stroke="midnightblue" points="4673.08,-45.5347 4677.83,-36.0664 4668.21,-40.5033 4673.08,-45.5347"/>
</g>
<!-- Node26 -->
<g id="node26" class="node"><title>Node26</title>
<polygon fill="white" stroke="#bfbfbf" points="4724.5,-17 4724.5,-36 4771.5,-36 4771.5,-17 4724.5,-17"/>
<text text-anchor="middle" x="4748" y="-24" font-family="Helvetica,sans-Serif" font-size="10.00">climits</text>
</g>
<!-- Node11&#45;&gt;Node26 -->
<g id="edge31" class="edge"><title>Node11&#45;&gt;Node26</title>
<path fill="none" stroke="midnightblue" d="M3594.66,-97.8431C3828.12,-96.9652 4609.73,-91.176 4715,-53 4721.19,-50.7545 4727.15,-46.8849 4732.26,-42.8291"/>
<polygon fill="midnightblue" stroke="midnightblue" points="4734.74,-45.3086 4739.95,-36.0813 4730.12,-40.0478 4734.74,-45.3086"/>
</g>
<!-- Node27 -->
<g id="node27" class="node"><title>Node27</title>
<polygon fill="white" stroke="#bfbfbf" points="4790,-17 4790,-36 4852,-36 4852,-17 4790,-17"/>
<text text-anchor="middle" x="4821" y="-24" font-family="Helvetica,sans-Serif" font-size="10.00">algorithm</text>
</g>
<!-- Node11&#45;&gt;Node27 -->
<g id="edge32" class="edge"><title>Node11&#45;&gt;Node27</title>
<path fill="none" stroke="midnightblue" d="M3594.84,-97.6563C3836.65,-96.117 4667.62,-88.2872 4781,-53 4788.5,-50.665 4795.97,-46.5287 4802.38,-42.2581"/>
<polygon fill="midnightblue" stroke="midnightblue" points="4804.85,-44.7913 4810.91,-36.0991 4800.75,-39.1165 4804.85,-44.7913"/>
</g>
<!-- Node28 -->
<g id="node28" class="node"><title>Node28</title>
<polygon fill="white" stroke="#bfbfbf" points="4870,-0.5 4870,-52.5 5028,-52.5 5028,-0.5 4870,-0.5"/>
<text text-anchor="start" x="4878" y="-40.5" font-family="Helvetica,sans-Serif" font-size="10.00">/home/travis/build</text>
<text text-anchor="start" x="4878" y="-29.5" font-family="Helvetica,sans-Serif" font-size="10.00">/STORM&#45;IRIT/OpenGR/3rdparty</text>
<text text-anchor="start" x="4878" y="-18.5" font-family="Helvetica,sans-Serif" font-size="10.00">/Eigen/Eigen/src/Core/util</text>
<text text-anchor="middle" x="4949" y="-7.5" font-family="Helvetica,sans-Serif" font-size="10.00">/Constants.h</text>
</g>
<!-- Node11&#45;&gt;Node28 -->
<g id="edge33" class="edge"><title>Node11&#45;&gt;Node28</title>
<path fill="none" stroke="midnightblue" d="M3594.66,-97.9348C3824.53,-97.3749 4593.08,-92.6241 4859.55,-53.0173"/>
<polygon fill="midnightblue" stroke="midnightblue" points="4860.23,-56.4543 4869.58,-51.4721 4859.16,-49.5359 4860.23,-56.4543"/>
</g>
<!-- Node29 -->
<g id="node29" class="node"><title>Node29</title>
<polygon fill="white" stroke="#bfbfbf" points="5046.5,-6 5046.5,-47 5217.5,-47 5217.5,-6 5046.5,-6"/>
<text text-anchor="start" x="5054.5" y="-35" font-family="Helvetica,sans-Serif" font-size="10.00">/home/travis/build</text>
<text text-anchor="start" x="5054.5" y="-24" font-family="Helvetica,sans-Serif" font-size="10.00">/STORM&#45;IRIT/OpenGR/3rdparty</text>
<text text-anchor="middle" x="5132" y="-13" font-family="Helvetica,sans-Serif" font-size="10.00">/Eigen/Eigen/src/Core/util/Meta.h</text>
</g>
<!-- Node11&#45;&gt;Node29 -->
<g id="edge34" class="edge"><title>Node11&#45;&gt;Node29</title>
<path fill="none" stroke="midnightblue" d="M3594.88,-98.0676C3847.26,-98.0109 4752.6,-94.8303 5037,-53 5043.64,-52.0233 5050.48,-50.7454 5057.3,-49.2818"/>
<polygon fill="midnightblue" stroke="midnightblue" points="5058.29,-52.6477 5067.26,-47.0181 5056.74,-45.8218 5058.29,-52.6477"/>
</g>
<!-- Node30 -->
<g id="node30" class="node"><title>Node30</title>
<polygon fill="white" stroke="#bfbfbf" points="5236,-0.5 5236,-52.5 5394,-52.5 5394,-0.5 5236,-0.5"/>
<text text-anchor="start" x="5244" y="-40.5" font-family="Helvetica,sans-Serif" font-size="10.00">/home/travis/build</text>
<text text-anchor="start" x="5244" y="-29.5" font-family="Helvetica,sans-Serif" font-size="10.00">/STORM&#45;IRIT/OpenGR/3rdparty</text>
<text text-anchor="start" x="5244" y="-18.5" font-family="Helvetica,sans-Serif" font-size="10.00">/Eigen/Eigen/src/Core/util</text>
<text text-anchor="middle" x="5315" y="-7.5" font-family="Helvetica,sans-Serif" font-size="10.00">/ForwardDeclarations.h</text>
</g>
<!-- Node11&#45;&gt;Node30 -->
<g id="edge35" class="edge"><title>Node11&#45;&gt;Node30</title>
<path fill="none" stroke="midnightblue" d="M3594.8,-97.2501C3882.34,-93.8408 5022.83,-78.8999 5225.61,-52.9047"/>
<polygon fill="midnightblue" stroke="midnightblue" points="5226.17,-56.3604 5235.58,-51.4988 5225.19,-49.429 5226.17,-56.3604"/>
</g>
<!-- Node31 -->
<g id="node31" class="node"><title>Node31</title>
<polygon fill="white" stroke="#bfbfbf" points="5412,-0.5 5412,-52.5 5570,-52.5 5570,-0.5 5412,-0.5"/>
<text text-anchor="start" x="5420" y="-40.5" font-family="Helvetica,sans-Serif" font-size="10.00">/home/travis/build</text>
<text text-anchor="start" x="5420" y="-29.5" font-family="Helvetica,sans-Serif" font-size="10.00">/STORM&#45;IRIT/OpenGR/3rdparty</text>
<text text-anchor="start" x="5420" y="-18.5" font-family="Helvetica,sans-Serif" font-size="10.00">/Eigen/Eigen/src/Core/util</text>
<text text-anchor="middle" x="5491" y="-7.5" font-family="Helvetica,sans-Serif" font-size="10.00">/StaticAssert.h</text>
</g>
<!-- Node11&#45;&gt;Node31 -->
<g id="edge36" class="edge"><title>Node11&#45;&gt;Node31</title>
<path fill="none" stroke="midnightblue" d="M3594.74,-97.4268C3900.72,-94.6258 5179.53,-81.4021 5401.53,-52.9196"/>
<polygon fill="midnightblue" stroke="midnightblue" points="5402.17,-56.3652 5411.58,-51.5079 5401.19,-49.4333 5402.17,-56.3652"/>
</g>
<!-- Node32 -->
<g id="node32" class="node"><title>Node32</title>
<polygon fill="white" stroke="#bfbfbf" points="5588,-0.5 5588,-52.5 5746,-52.5 5746,-0.5 5588,-0.5"/>
<text text-anchor="start" x="5596" y="-40.5" font-family="Helvetica,sans-Serif" font-size="10.00">/home/travis/build</text>
<text text-anchor="start" x="5596" y="-29.5" font-family="Helvetica,sans-Serif" font-size="10.00">/STORM&#45;IRIT/OpenGR/3rdparty</text>
<text text-anchor="start" x="5596" y="-18.5" font-family="Helvetica,sans-Serif" font-size="10.00">/Eigen/Eigen/src/Core/util</text>
<text text-anchor="middle" x="5667" y="-7.5" font-family="Helvetica,sans-Serif" font-size="10.00">/XprHelper.h</text>
</g>
<!-- Node11&#45;&gt;Node32 -->
<g id="edge37" class="edge"><title>Node11&#45;&gt;Node32</title>
<path fill="none" stroke="midnightblue" d="M3594.54,-97.5742C3917.9,-95.3392 5336.93,-83.9221 5577.64,-52.9115"/>
<polygon fill="midnightblue" stroke="midnightblue" points="5578.17,-56.3715 5587.58,-51.5154 5577.19,-49.4394 5578.17,-56.3715"/>
</g>
<!-- Node33 -->
<g id="node33" class="node"><title>Node33</title>
<polygon fill="white" stroke="#bfbfbf" points="677,-0.5 677,-52.5 835,-52.5 835,-0.5 677,-0.5"/>
<text text-anchor="start" x="685" y="-40.5" font-family="Helvetica,sans-Serif" font-size="10.00">/home/travis/build</text>
<text text-anchor="start" x="685" y="-29.5" font-family="Helvetica,sans-Serif" font-size="10.00">/STORM&#45;IRIT/OpenGR/3rdparty</text>
<text text-anchor="start" x="685" y="-18.5" font-family="Helvetica,sans-Serif" font-size="10.00">/Eigen/Eigen/src/Core/util</text>
<text text-anchor="middle" x="756" y="-7.5" font-family="Helvetica,sans-Serif" font-size="10.00">/Memory.h</text>
</g>
<!-- Node11&#45;&gt;Node33 -->
<g id="edge38" class="edge"><title>Node11&#45;&gt;Node33</title>
<path fill="none" stroke="midnightblue" d="M3463.24,-97.941C3081.39,-97.461 1155.76,-93.1245 845.756,-52.9778"/>
<polygon fill="midnightblue" stroke="midnightblue" points="845.803,-49.4505 835.415,-51.5345 844.835,-56.3833 845.803,-49.4505"/>
</g>
<!-- Node34 -->
<g id="node34" class="node"><title>Node34</title>
<polygon fill="white" stroke="#bfbfbf" points="853,-0.5 853,-52.5 1011,-52.5 1011,-0.5 853,-0.5"/>
<text text-anchor="start" x="861" y="-40.5" font-family="Helvetica,sans-Serif" font-size="10.00">/home/travis/build</text>
<text text-anchor="start" x="861" y="-29.5" font-family="Helvetica,sans-Serif" font-size="10.00">/STORM&#45;IRIT/OpenGR/3rdparty</text>
<text text-anchor="start" x="861" y="-18.5" font-family="Helvetica,sans-Serif" font-size="10.00">/Eigen/Eigen/src/Core/util</text>
<text text-anchor="middle" x="932" y="-7.5" font-family="Helvetica,sans-Serif" font-size="10.00">/IntegralConstant.h</text>
</g>
<!-- Node11&#45;&gt;Node34 -->
<g id="edge39" class="edge"><title>Node11&#45;&gt;Node34</title>
<path fill="none" stroke="midnightblue" d="M3463.38,-97.8578C3097.1,-96.9279 1311.83,-90.5603 1021.49,-52.9393"/>
<polygon fill="midnightblue" stroke="midnightblue" points="1021.8,-49.4493 1011.42,-51.5302 1020.83,-56.3818 1021.8,-49.4493"/>
</g>
<!-- Node35 -->
<g id="node35" class="node"><title>Node35</title>
<polygon fill="white" stroke="#bfbfbf" points="1029,-0.5 1029,-52.5 1187,-52.5 1187,-0.5 1029,-0.5"/>
<text text-anchor="start" x="1037" y="-40.5" font-family="Helvetica,sans-Serif" font-size="10.00">/home/travis/build</text>
<text text-anchor="start" x="1037" y="-29.5" font-family="Helvetica,sans-Serif" font-size="10.00">/STORM&#45;IRIT/OpenGR/3rdparty</text>
<text text-anchor="start" x="1037" y="-18.5" font-family="Helvetica,sans-Serif" font-size="10.00">/Eigen/Eigen/src/Core/util</text>
<text text-anchor="middle" x="1108" y="-7.5" font-family="Helvetica,sans-Serif" font-size="10.00">/SymbolicIndex.h</text>
</g>
<!-- Node11&#45;&gt;Node35 -->
<g id="edge40" class="edge"><title>Node11&#45;&gt;Node35</title>
<path fill="none" stroke="midnightblue" d="M3463.4,-97.7621C3113.12,-96.3562 1469.26,-88.0073 1197.56,-52.9448"/>
<polygon fill="midnightblue" stroke="midnightblue" points="1197.8,-49.4444 1187.42,-51.5252 1196.83,-56.3769 1197.8,-49.4444"/>
</g>
<!-- Node36 -->
<g id="node36" class="node"><title>Node36</title>
<polygon fill="white" stroke="#bfbfbf" points="1205,-6 1205,-47 1383,-47 1383,-6 1205,-6"/>
<text text-anchor="start" x="1213" y="-35" font-family="Helvetica,sans-Serif" font-size="10.00">/home/travis/build</text>
<text text-anchor="start" x="1213" y="-24" font-family="Helvetica,sans-Serif" font-size="10.00">/STORM&#45;IRIT/OpenGR/3rdparty</text>
<text text-anchor="middle" x="1294" y="-13" font-family="Helvetica,sans-Serif" font-size="10.00">/Eigen/Eigen/src/Core/NumTraits.h</text>
</g>
<!-- Node11&#45;&gt;Node36 -->
<g id="edge41" class="edge"><title>Node11&#45;&gt;Node36</title>
<path fill="none" stroke="midnightblue" d="M3463.24,-97.519C3126.41,-94.9336 1601.99,-81.7232 1393,-53 1385.87,-52.0198 1378.51,-50.71 1371.18,-49.1997"/>
<polygon fill="midnightblue" stroke="midnightblue" points="1371.73,-45.7389 1361.22,-47.028 1370.24,-52.5782 1371.73,-45.7389"/>
</g>
<!-- Node37 -->
<g id="node37" class="node"><title>Node37</title>
<polygon fill="white" stroke="#bfbfbf" points="1401.5,-6 1401.5,-47 1600.5,-47 1600.5,-6 1401.5,-6"/>
<text text-anchor="start" x="1409.5" y="-35" font-family="Helvetica,sans-Serif" font-size="10.00">/home/travis/build</text>
<text text-anchor="start" x="1409.5" y="-24" font-family="Helvetica,sans-Serif" font-size="10.00">/STORM&#45;IRIT/OpenGR/3rdparty</text>
<text text-anchor="middle" x="1501" y="-13" font-family="Helvetica,sans-Serif" font-size="10.00">/Eigen/Eigen/src/Core/MathFunctions.h</text>
</g>
<!-- Node11&#45;&gt;Node37 -->
<g id="edge42" class="edge"><title>Node11&#45;&gt;Node37</title>
<path fill="none" stroke="midnightblue" d="M3463.41,-98.2776C3170.47,-99.2383 1980.05,-100.111 1610,-53 1601.98,-51.9792 1593.69,-50.6171 1585.43,-49.0514"/>
<polygon fill="midnightblue" stroke="midnightblue" points="1585.88,-45.572 1575.39,-47.05 1584.51,-52.437 1585.88,-45.572"/>
</g>
<!-- Node38 -->
<g id="node38" class="node"><title>Node38</title>
<polygon fill="white" stroke="#bfbfbf" points="1618.5,-0.5 1618.5,-52.5 1807.5,-52.5 1807.5,-0.5 1618.5,-0.5"/>
<text text-anchor="start" x="1626.5" y="-40.5" font-family="Helvetica,sans-Serif" font-size="10.00">/home/travis/build</text>
<text text-anchor="start" x="1626.5" y="-29.5" font-family="Helvetica,sans-Serif" font-size="10.00">/STORM&#45;IRIT/OpenGR/3rdparty</text>
<text text-anchor="start" x="1626.5" y="-18.5" font-family="Helvetica,sans-Serif" font-size="10.00">/Eigen/Eigen/src/Core/GenericPacket</text>
<text text-anchor="middle" x="1713" y="-7.5" font-family="Helvetica,sans-Serif" font-size="10.00">Math.h</text>
</g>
<!-- Node11&#45;&gt;Node38 -->
<g id="edge43" class="edge"><title>Node11&#45;&gt;Node38</title>
<path fill="none" stroke="midnightblue" d="M3463.28,-98.1524C3192.82,-98.4921 2164.28,-96.8909 1817.83,-52.9377"/>
<polygon fill="midnightblue" stroke="midnightblue" points="1818.15,-49.4498 1807.78,-51.6249 1817.24,-56.3908 1818.15,-49.4498"/>
</g>
<!-- Node39 -->
<g id="node39" class="node"><title>Node39</title>
<polygon fill="white" stroke="#bfbfbf" points="1826,-0.5 1826,-52.5 2016,-52.5 2016,-0.5 1826,-0.5"/>
<text text-anchor="start" x="1834" y="-40.5" font-family="Helvetica,sans-Serif" font-size="10.00">/home/travis/build</text>
<text text-anchor="start" x="1834" y="-29.5" font-family="Helvetica,sans-Serif" font-size="10.00">/STORM&#45;IRIT/OpenGR/3rdparty</text>
<text text-anchor="start" x="1834" y="-18.5" font-family="Helvetica,sans-Serif" font-size="10.00">/Eigen/Eigen/src/Core/MathFunctions</text>
<text text-anchor="middle" x="1921" y="-7.5" font-family="Helvetica,sans-Serif" font-size="10.00">Impl.h</text>
</g>
<!-- Node11&#45;&gt;Node39 -->
<g id="edge44" class="edge"><title>Node11&#45;&gt;Node39</title>
<path fill="none" stroke="midnightblue" d="M3463.32,-97.8729C3214.53,-97.1093 2329.27,-91.76 2026.16,-52.9907"/>
<polygon fill="midnightblue" stroke="midnightblue" points="2026.43,-49.4961 2016.06,-51.6567 2025.52,-56.4359 2026.43,-49.4961"/>
</g>
<!-- Node40 -->
<g id="node40" class="node"><title>Node40</title>
<polygon fill="white" stroke="#bfbfbf" points="2034,-0.5 2034,-52.5 2192,-52.5 2192,-0.5 2034,-0.5"/>
<text text-anchor="start" x="2042" y="-40.5" font-family="Helvetica,sans-Serif" font-size="10.00">/home/travis/build</text>
<text text-anchor="start" x="2042" y="-29.5" font-family="Helvetica,sans-Serif" font-size="10.00">/STORM&#45;IRIT/OpenGR/3rdparty</text>
<text text-anchor="start" x="2042" y="-18.5" font-family="Helvetica,sans-Serif" font-size="10.00">/Eigen/Eigen/src/Core/arch</text>
<text text-anchor="middle" x="2113" y="-7.5" font-family="Helvetica,sans-Serif" font-size="10.00">/CUDA/Half.h</text>
</g>
<!-- Node11&#45;&gt;Node40 -->
<g id="edge45" class="edge"><title>Node11&#45;&gt;Node40</title>
<path fill="none" stroke="midnightblue" d="M3463.14,-97.9264C3233.46,-97.3374 2467.96,-92.4978 2202.42,-53.0121"/>
<polygon fill="midnightblue" stroke="midnightblue" points="2202.84,-49.5361 2192.42,-51.4717 2201.77,-56.4544 2202.84,-49.5361"/>
</g>
<!-- Node41 -->
<g id="node41" class="node"><title>Node41</title>
<polygon fill="white" stroke="#bfbfbf" points="2210,-0.5 2210,-52.5 2368,-52.5 2368,-0.5 2210,-0.5"/>
<text text-anchor="start" x="2218" y="-40.5" font-family="Helvetica,sans-Serif" font-size="10.00">/home/travis/build</text>
<text text-anchor="start" x="2218" y="-29.5" font-family="Helvetica,sans-Serif" font-size="10.00">/STORM&#45;IRIT/OpenGR/3rdparty</text>
<text text-anchor="start" x="2218" y="-18.5" font-family="Helvetica,sans-Serif" font-size="10.00">/Eigen/Eigen/src/Core/arch</text>
<text text-anchor="middle" x="2289" y="-7.5" font-family="Helvetica,sans-Serif" font-size="10.00">/CUDA/PacketMathHalf.h</text>
</g>
<!-- Node11&#45;&gt;Node41 -->
<g id="edge46" class="edge"><title>Node11&#45;&gt;Node41</title>
<path fill="none" stroke="midnightblue" d="M3463.22,-97.5282C3254.48,-95.7062 2607.74,-87.4813 2378.38,-53.0077"/>
<polygon fill="midnightblue" stroke="midnightblue" points="2378.85,-49.5389 2368.43,-51.4528 2377.77,-56.455 2378.85,-49.5389"/>
</g>
<!-- Node42 -->
<g id="node42" class="node"><title>Node42</title>
<polygon fill="white" stroke="#bfbfbf" points="2386,-0.5 2386,-52.5 2544,-52.5 2544,-0.5 2386,-0.5"/>
<text text-anchor="start" x="2394" y="-40.5" font-family="Helvetica,sans-Serif" font-size="10.00">/home/travis/build</text>
<text text-anchor="start" x="2394" y="-29.5" font-family="Helvetica,sans-Serif" font-size="10.00">/STORM&#45;IRIT/OpenGR/3rdparty</text>
<text text-anchor="start" x="2394" y="-18.5" font-family="Helvetica,sans-Serif" font-size="10.00">/Eigen/Eigen/src/Core/arch</text>
<text text-anchor="middle" x="2465" y="-7.5" font-family="Helvetica,sans-Serif" font-size="10.00">/CUDA/TypeCasting.h</text>
</g>
<!-- Node11&#45;&gt;Node42 -->
<g id="edge47" class="edge"><title>Node11&#45;&gt;Node42</title>
<path fill="none" stroke="midnightblue" d="M3463.48,-96.9925C3277.53,-93.8195 2747.98,-82.5305 2554.49,-53.0282"/>
<polygon fill="midnightblue" stroke="midnightblue" points="2554.86,-49.5425 2544.43,-51.427 2553.76,-56.4555 2554.86,-49.5425"/>
</g>
<!-- Node43 -->
<g id="node43" class="node"><title>Node43</title>
<polygon fill="white" stroke="#bfbfbf" points="2562,-0.5 2562,-52.5 2720,-52.5 2720,-0.5 2562,-0.5"/>
<text text-anchor="start" x="2570" y="-40.5" font-family="Helvetica,sans-Serif" font-size="10.00">/home/travis/build</text>
<text text-anchor="start" x="2570" y="-29.5" font-family="Helvetica,sans-Serif" font-size="10.00">/STORM&#45;IRIT/OpenGR/3rdparty</text>
<text text-anchor="start" x="2570" y="-18.5" font-family="Helvetica,sans-Serif" font-size="10.00">/Eigen/Eigen/src/Core/arch</text>
<text text-anchor="middle" x="2641" y="-7.5" font-family="Helvetica,sans-Serif" font-size="10.00">/Default/Settings.h</text>
</g>
<!-- Node11&#45;&gt;Node43 -->
<g id="edge48" class="edge"><title>Node11&#45;&gt;Node43</title>
<path fill="none" stroke="midnightblue" d="M3463.44,-96.2199C3302.07,-91.5389 2887.94,-77.6292 2730.44,-53.026"/>
<polygon fill="midnightblue" stroke="midnightblue" points="2730.87,-49.5508 2720.44,-51.39 2729.74,-56.459 2730.87,-49.5508"/>
</g>
<!-- Node44 -->
<g id="node44" class="node"><title>Node44</title>
<polygon fill="white" stroke="#bfbfbf" points="2738,-0.5 2738,-52.5 2898,-52.5 2898,-0.5 2738,-0.5"/>
<text text-anchor="start" x="2746" y="-40.5" font-family="Helvetica,sans-Serif" font-size="10.00">/home/travis/build</text>
<text text-anchor="start" x="2746" y="-29.5" font-family="Helvetica,sans-Serif" font-size="10.00">/STORM&#45;IRIT/OpenGR/3rdparty</text>
<text text-anchor="start" x="2746" y="-18.5" font-family="Helvetica,sans-Serif" font-size="10.00">/Eigen/Eigen/src/Core/functors</text>
<text text-anchor="middle" x="2818" y="-7.5" font-family="Helvetica,sans-Serif" font-size="10.00">/TernaryFunctors.h</text>
</g>
<!-- Node11&#45;&gt;Node44 -->
<g id="edge49" class="edge"><title>Node11&#45;&gt;Node44</title>
<path fill="none" stroke="midnightblue" d="M3463.08,-97.6897C3350.76,-96.1875 3115.16,-88.8086 2908.49,-53.1058"/>
<polygon fill="midnightblue" stroke="midnightblue" points="2908.81,-49.6092 2898.36,-51.3287 2907.6,-56.5039 2908.81,-49.6092"/>
</g>
<!-- Node45 -->
<g id="node45" class="node"><title>Node45</title>
<polygon fill="white" stroke="#bfbfbf" points="2916,-0.5 2916,-52.5 3076,-52.5 3076,-0.5 2916,-0.5"/>
<text text-anchor="start" x="2924" y="-40.5" font-family="Helvetica,sans-Serif" font-size="10.00">/home/travis/build</text>
<text text-anchor="start" x="2924" y="-29.5" font-family="Helvetica,sans-Serif" font-size="10.00">/STORM&#45;IRIT/OpenGR/3rdparty</text>
<text text-anchor="start" x="2924" y="-18.5" font-family="Helvetica,sans-Serif" font-size="10.00">/Eigen/Eigen/src/Core/functors</text>
<text text-anchor="middle" x="2996" y="-7.5" font-family="Helvetica,sans-Serif" font-size="10.00">/BinaryFunctors.h</text>
</g>
<!-- Node11&#45;&gt;Node45 -->
<g id="edge50" class="edge"><title>Node11&#45;&gt;Node45</title>
<path fill="none" stroke="midnightblue" d="M3463.39,-95.0067C3378.33,-90.3142 3225.34,-79.1147 3086.36,-53.1199"/>
<polygon fill="midnightblue" stroke="midnightblue" points="3086.85,-49.6516 3076.38,-51.2226 3085.55,-56.5285 3086.85,-49.6516"/>
</g>
<!-- Node46 -->
<g id="node46" class="node"><title>Node46</title>
<polygon fill="white" stroke="#bfbfbf" points="3094,-0.5 3094,-52.5 3254,-52.5 3254,-0.5 3094,-0.5"/>
<text text-anchor="start" x="3102" y="-40.5" font-family="Helvetica,sans-Serif" font-size="10.00">/home/travis/build</text>
<text text-anchor="start" x="3102" y="-29.5" font-family="Helvetica,sans-Serif" font-size="10.00">/STORM&#45;IRIT/OpenGR/3rdparty</text>
<text text-anchor="start" x="3102" y="-18.5" font-family="Helvetica,sans-Serif" font-size="10.00">/Eigen/Eigen/src/Core/functors</text>
<text text-anchor="middle" x="3174" y="-7.5" font-family="Helvetica,sans-Serif" font-size="10.00">/UnaryFunctors.h</text>
</g>
<!-- Node11&#45;&gt;Node46 -->
<g id="edge51" class="edge"><title>Node11&#45;&gt;Node46</title>
<path fill="none" stroke="midnightblue" d="M3466.81,-89.4822C3414.98,-81.9286 3339.06,-69.8117 3264.46,-53.2375"/>
<polygon fill="midnightblue" stroke="midnightblue" points="3264.95,-49.7596 3254.43,-50.9782 3263.41,-56.5888 3264.95,-49.7596"/>
</g>
<!-- Node47 -->
<g id="node47" class="node"><title>Node47</title>
<polygon fill="white" stroke="#bfbfbf" points="3272,-0.5 3272,-52.5 3432,-52.5 3432,-0.5 3272,-0.5"/>
<text text-anchor="start" x="3280" y="-40.5" font-family="Helvetica,sans-Serif" font-size="10.00">/home/travis/build</text>
<text text-anchor="start" x="3280" y="-29.5" font-family="Helvetica,sans-Serif" font-size="10.00">/STORM&#45;IRIT/OpenGR/3rdparty</text>
<text text-anchor="start" x="3280" y="-18.5" font-family="Helvetica,sans-Serif" font-size="10.00">/Eigen/Eigen/src/Core/functors</text>
<text text-anchor="middle" x="3352" y="-7.5" font-family="Helvetica,sans-Serif" font-size="10.00">/NullaryFunctors.h</text>
</g>
<!-- Node11&#45;&gt;Node47 -->
<g id="edge52" class="edge"><title>Node11&#45;&gt;Node47</title>
<path fill="none" stroke="midnightblue" d="M3507.65,-89.4961C3486.99,-81.2675 3454.49,-68.322 3424.52,-56.384"/>
<polygon fill="midnightblue" stroke="midnightblue" points="3425.48,-52.9995 3414.89,-52.5507 3422.89,-59.5026 3425.48,-52.9995"/>
</g>
<!-- Node48&#45;&gt;Node6 -->
<g id="edge56" class="edge"><title>Node48&#45;&gt;Node6</title>
<path fill="none" stroke="midnightblue" d="M387,-89.3553C387,-78.6786 387,-60.2167 387,-46.2343"/>
<polygon fill="midnightblue" stroke="midnightblue" points="390.5,-46.2154 387,-36.2154 383.5,-46.2154 390.5,-46.2154"/>
</g>
<!-- Node50&#45;&gt;Node1 -->
<g id="edge60" class="edge"><title>Node50&#45;&gt;Node1</title>
<path fill="none" stroke="midnightblue" d="M76.3156,-164.567C103.54,-173.077 144.174,-186.498 178.181,-198.116"/>
<polygon fill="midnightblue" stroke="midnightblue" points="177.444,-201.564 188.039,-201.498 179.716,-194.942 177.444,-201.564"/>
</g>
<!-- Node50&#45;&gt;Node2 -->
<g id="edge59" class="edge"><title>Node50&#45;&gt;Node2</title>
<path fill="none" stroke="midnightblue" d="M50.5364,-145.305C61.2749,-124.723 88.423,-72.6893 102.777,-45.1782"/>
<polygon fill="midnightblue" stroke="midnightblue" points="105.909,-46.7406 107.432,-36.2557 99.703,-43.5026 105.909,-46.7406"/>
</g>
</g>
</svg>
