<?xml version="1.0" encoding="UTF-8" standalone="no"?>
<!DOCTYPE svg PUBLIC "-//W3C//DTD SVG 1.1//EN"
 "http://www.w3.org/Graphics/SVG/1.1/DTD/svg11.dtd">
<!-- Generated by graphviz version 2.38.0 (20140413.2041)
 -->
<!-- Title: /home/travis/build/STORM&#45;IRIT/OpenGR/src/gr/utils/shared.h Pages: 1 -->
<svg width="1521pt" height="540pt"
 viewBox="0.00 0.00 1520.50 540.00" xmlns="http://www.w3.org/2000/svg" xmlns:xlink="http://www.w3.org/1999/xlink">
<g id="graph0" class="graph" transform="scale(1 1) rotate(0) translate(4 536)">
<title>/home/travis/build/STORM&#45;IRIT/OpenGR/src/gr/utils/shared.h</title>
<polygon fill="white" stroke="none" points="-4,4 -4,-536 1516.5,-536 1516.5,4 -4,4"/>
<!-- Node1 -->
<g id="node1" class="node"><title>Node1</title>
<polygon fill="#bfbfbf" stroke="black" points="659.5,-490.5 659.5,-531.5 791.5,-531.5 791.5,-490.5 659.5,-490.5"/>
<text text-anchor="start" x="667.5" y="-519.5" font-family="Helvetica,sans-Serif" font-size="10.00">/home/travis/build</text>
<text text-anchor="start" x="667.5" y="-508.5" font-family="Helvetica,sans-Serif" font-size="10.00">/STORM&#45;IRIT/OpenGR/src</text>
<text text-anchor="middle" x="725.5" y="-497.5" font-family="Helvetica,sans-Serif" font-size="10.00">/gr/utils/shared.h</text>
</g>
<!-- Node2 -->
<g id="node2" class="node"><title>Node2</title>
<g id="a_node2"><a xlink:href="a00081.html" target="_top" xlink:title="/home/travis/build\l/STORM&#45;IRIT/OpenGR/src\l/gr/algorithms/congruentSetExploration\lBase.h">
<polygon fill="white" stroke="black" points="84,-245.5 84,-297.5 289,-297.5 289,-245.5 84,-245.5"/>
<text text-anchor="start" x="92" y="-285.5" font-family="Helvetica,sans-Serif" font-size="10.00">/home/travis/build</text>
<text text-anchor="start" x="92" y="-274.5" font-family="Helvetica,sans-Serif" font-size="10.00">/STORM&#45;IRIT/OpenGR/src</text>
<text text-anchor="start" x="92" y="-263.5" font-family="Helvetica,sans-Serif" font-size="10.00">/gr/algorithms/congruentSetExploration</text>
<text text-anchor="middle" x="186.5" y="-252.5" font-family="Helvetica,sans-Serif" font-size="10.00">Base.h</text>
</a>
</g>
</g>
<!-- Node1&#45;&gt;Node2 -->
<g id="edge1" class="edge"><title>Node1&#45;&gt;Node2</title>
<path fill="none" stroke="midnightblue" d="M649.462,-502.146C592.79,-494.504 514.323,-480.092 449.5,-454 389.45,-429.829 379.893,-412.597 326.5,-376 288.977,-350.281 247.187,-319.031 219.115,-297.642"/>
<polygon fill="midnightblue" stroke="midnightblue" points="649.057,-505.623 659.427,-503.45 649.966,-498.682 649.057,-505.623"/>
</g>
<!-- Node3 -->
<g id="node3" class="node"><title>Node3</title>
<g id="a_node3"><a xlink:href="a00082.html" target="_top" xlink:title="/home/travis/build\l/STORM&#45;IRIT/OpenGR/src\l/gr/algorithms/congruentSetExploration\lBase.hpp">
<polygon fill="white" stroke="black" points="0,-156.5 0,-208.5 205,-208.5 205,-156.5 0,-156.5"/>
<text text-anchor="start" x="8" y="-196.5" font-family="Helvetica,sans-Serif" font-size="10.00">/home/travis/build</text>
<text text-anchor="start" x="8" y="-185.5" font-family="Helvetica,sans-Serif" font-size="10.00">/STORM&#45;IRIT/OpenGR/src</text>
<text text-anchor="start" x="8" y="-174.5" font-family="Helvetica,sans-Serif" font-size="10.00">/gr/algorithms/congruentSetExploration</text>
<text text-anchor="middle" x="102.5" y="-163.5" font-family="Helvetica,sans-Serif" font-size="10.00">Base.hpp</text>
</a>
</g>
</g>
<!-- Node1&#45;&gt;Node3 -->
<g id="edge13" class="edge"><title>Node1&#45;&gt;Node3</title>
<path fill="none" stroke="midnightblue" d="M649.007,-505.983C526.802,-498.834 293.37,-481.966 215.5,-454 123.808,-421.071 81.8945,-393.267 61.5,-298 56.569,-274.966 54.674,-267.545 61.5,-245 65.4417,-231.981 73.1485,-219.2 80.8267,-208.691"/>
<polygon fill="midnightblue" stroke="midnightblue" points="648.858,-509.481 659.044,-506.563 649.262,-502.492 648.858,-509.481"/>
</g>
<!-- Node4 -->
<g id="node4" class="node"><title>Node4</title>
<g id="a_node4"><a xlink:href="a00086.html" target="_top" xlink:title="/home/travis/build\l/STORM&#45;IRIT/OpenGR/src\l/gr/algorithms/match3pcs.h">
<polygon fill="white" stroke="black" points="365,-162 365,-203 514,-203 514,-162 365,-162"/>
<text text-anchor="start" x="373" y="-191" font-family="Helvetica,sans-Serif" font-size="10.00">/home/travis/build</text>
<text text-anchor="start" x="373" y="-180" font-family="Helvetica,sans-Serif" font-size="10.00">/STORM&#45;IRIT/OpenGR/src</text>
<text text-anchor="middle" x="439.5" y="-169" font-family="Helvetica,sans-Serif" font-size="10.00">/gr/algorithms/match3pcs.h</text>
</a>
</g>
</g>
<!-- Node1&#45;&gt;Node4 -->
<g id="edge17" class="edge"><title>Node1&#45;&gt;Node4</title>
<path fill="none" stroke="midnightblue" d="M649.27,-505.078C576.614,-498.727 464.905,-484.601 372.5,-454 230.585,-407.003 151.907,-425.894 74.5,-298 62.3031,-277.848 59.2903,-262.987 74.5,-245 93.0423,-223.072 263.643,-201.782 364.915,-190.93"/>
<polygon fill="midnightblue" stroke="midnightblue" points="648.997,-508.567 659.257,-505.923 649.588,-501.592 648.997,-508.567"/>
</g>
<!-- Node5 -->
<g id="node5" class="node"><title>Node5</title>
<g id="a_node5"><a xlink:href="a00087.html" target="_top" xlink:title="/home/travis/build\l/STORM&#45;IRIT/OpenGR/src\l/gr/algorithms/match3pcs.hpp">
<polygon fill="white" stroke="black" points="359,-78.5 359,-119.5 520,-119.5 520,-78.5 359,-78.5"/>
<text text-anchor="start" x="367" y="-107.5" font-family="Helvetica,sans-Serif" font-size="10.00">/home/travis/build</text>
<text text-anchor="start" x="367" y="-96.5" font-family="Helvetica,sans-Serif" font-size="10.00">/STORM&#45;IRIT/OpenGR/src</text>
<text text-anchor="middle" x="439.5" y="-85.5" font-family="Helvetica,sans-Serif" font-size="10.00">/gr/algorithms/match3pcs.hpp</text>
</a>
</g>
</g>
<!-- Node1&#45;&gt;Node5 -->
<g id="edge23" class="edge"><title>Node1&#45;&gt;Node5</title>
<path fill="none" stroke="midnightblue" d="M717.851,-480.38C699.457,-414.349 646.969,-253.257 550.5,-156 535.072,-140.446 514.428,-128.422 495.131,-119.575"/>
<polygon fill="midnightblue" stroke="midnightblue" points="714.504,-481.41 720.512,-490.137 721.258,-479.568 714.504,-481.41"/>
</g>
<!-- Node6 -->
<g id="node6" class="node"><title>Node6</title>
<g id="a_node6"><a xlink:href="a00088.html" target="_top" xlink:title="/home/travis/build\l/STORM&#45;IRIT/OpenGR/src\l/gr/algorithms/match4pcsBase.h">
<polygon fill="white" stroke="black" points="697,-162 697,-203 870,-203 870,-162 697,-162"/>
<text text-anchor="start" x="705" y="-191" font-family="Helvetica,sans-Serif" font-size="10.00">/home/travis/build</text>
<text text-anchor="start" x="705" y="-180" font-family="Helvetica,sans-Serif" font-size="10.00">/STORM&#45;IRIT/OpenGR/src</text>
<text text-anchor="middle" x="783.5" y="-169" font-family="Helvetica,sans-Serif" font-size="10.00">/gr/algorithms/match4pcsBase.h</text>
</a>
</g>
</g>
<!-- Node1&#45;&gt;Node6 -->
<g id="edge24" class="edge"><title>Node1&#45;&gt;Node6</title>
<path fill="none" stroke="midnightblue" d="M733.365,-480.507C735.503,-471.987 737.718,-462.653 739.5,-454 758.695,-360.798 774.753,-248.124 780.86,-203.289"/>
<polygon fill="midnightblue" stroke="midnightblue" points="729.923,-479.84 730.829,-490.396 736.703,-481.579 729.923,-479.84"/>
</g>
<!-- Node7 -->
<g id="node7" class="node"><title>Node7</title>
<g id="a_node7"><a xlink:href="a00084.html" target="_top" xlink:title="/home/travis/build\l/STORM&#45;IRIT/OpenGR/src\l/gr/algorithms/FunctorBrute4pcs.h">
<polygon fill="white" stroke="black" points="741,-78.5 741,-119.5 920,-119.5 920,-78.5 741,-78.5"/>
<text text-anchor="start" x="749" y="-107.5" font-family="Helvetica,sans-Serif" font-size="10.00">/home/travis/build</text>
<text text-anchor="start" x="749" y="-96.5" font-family="Helvetica,sans-Serif" font-size="10.00">/STORM&#45;IRIT/OpenGR/src</text>
<text text-anchor="middle" x="830.5" y="-85.5" font-family="Helvetica,sans-Serif" font-size="10.00">/gr/algorithms/FunctorBrute4pcs.h</text>
</a>
</g>
</g>
<!-- Node1&#45;&gt;Node7 -->
<g id="edge15" class="edge"><title>Node1&#45;&gt;Node7</title>
<path fill="none" stroke="midnightblue" d="M785.171,-486.041C835.193,-461.557 898.5,-418.271 898.5,-356 898.5,-356 898.5,-356 898.5,-270.5 898.5,-218.841 900.54,-202.722 878.5,-156 872.108,-142.45 861.533,-129.589 851.933,-119.616"/>
<polygon fill="midnightblue" stroke="midnightblue" points="783.536,-482.942 776.004,-490.394 786.538,-489.266 783.536,-482.942"/>
</g>
<!-- Node8 -->
<g id="node8" class="node"><title>Node8</title>
<g id="a_node8"><a xlink:href="a00089.html" target="_top" xlink:title="/home/travis/build\l/STORM&#45;IRIT/OpenGR/src\l/gr/algorithms/match4pcsBase.hpp">
<polygon fill="white" stroke="black" points="538,-78.5 538,-119.5 723,-119.5 723,-78.5 538,-78.5"/>
<text text-anchor="start" x="546" y="-107.5" font-family="Helvetica,sans-Serif" font-size="10.00">/home/travis/build</text>
<text text-anchor="start" x="546" y="-96.5" font-family="Helvetica,sans-Serif" font-size="10.00">/STORM&#45;IRIT/OpenGR/src</text>
<text text-anchor="middle" x="630.5" y="-85.5" font-family="Helvetica,sans-Serif" font-size="10.00">/gr/algorithms/match4pcsBase.hpp</text>
</a>
</g>
</g>
<!-- Node1&#45;&gt;Node8 -->
<g id="edge25" class="edge"><title>Node1&#45;&gt;Node8</title>
<path fill="none" stroke="midnightblue" d="M726.288,-480.218C726.839,-430.504 724.693,-327.891 701.5,-245 694.382,-219.559 659.251,-152.968 641.221,-119.62"/>
<polygon fill="midnightblue" stroke="midnightblue" points="722.788,-480.225 726.131,-490.278 729.787,-480.334 722.788,-480.225"/>
</g>
<!-- Node9 -->
<g id="node9" class="node"><title>Node9</title>
<g id="a_node9"><a xlink:href="a00092.html" target="_top" xlink:title="/home/travis/build\l/STORM&#45;IRIT/OpenGR/src\l/gr/algorithms/pairCreationFunctor.h">
<polygon fill="white" stroke="black" points="938.5,-78.5 938.5,-119.5 1126.5,-119.5 1126.5,-78.5 938.5,-78.5"/>
<text text-anchor="start" x="946.5" y="-107.5" font-family="Helvetica,sans-Serif" font-size="10.00">/home/travis/build</text>
<text text-anchor="start" x="946.5" y="-96.5" font-family="Helvetica,sans-Serif" font-size="10.00">/STORM&#45;IRIT/OpenGR/src</text>
<text text-anchor="middle" x="1032.5" y="-85.5" font-family="Helvetica,sans-Serif" font-size="10.00">/gr/algorithms/pairCreationFunctor.h</text>
</a>
</g>
</g>
<!-- Node1&#45;&gt;Node9 -->
<g id="edge26" class="edge"><title>Node1&#45;&gt;Node9</title>
<path fill="none" stroke="midnightblue" d="M801.625,-497.91C878.037,-480.928 984.5,-441.862 984.5,-356 984.5,-356 984.5,-356 984.5,-270.5 984.5,-214.071 1009.16,-150.936 1023.13,-119.701"/>
<polygon fill="midnightblue" stroke="midnightblue" points="800.576,-494.555 791.527,-500.065 802.037,-501.4 800.576,-494.555"/>
</g>
<!-- Node10 -->
<g id="node10" class="node"><title>Node10</title>
<g id="a_node10"><a xlink:href="a00085.html" target="_top" xlink:title="/home/travis/build\l/STORM&#45;IRIT/OpenGR/src\l/gr/algorithms/FunctorSuper4pcs.h">
<polygon fill="white" stroke="black" points="1002.5,-0.5 1002.5,-41.5 1184.5,-41.5 1184.5,-0.5 1002.5,-0.5"/>
<text text-anchor="start" x="1010.5" y="-29.5" font-family="Helvetica,sans-Serif" font-size="10.00">/home/travis/build</text>
<text text-anchor="start" x="1010.5" y="-18.5" font-family="Helvetica,sans-Serif" font-size="10.00">/STORM&#45;IRIT/OpenGR/src</text>
<text text-anchor="middle" x="1093.5" y="-7.5" font-family="Helvetica,sans-Serif" font-size="10.00">/gr/algorithms/FunctorSuper4pcs.h</text>
</a>
</g>
</g>
<!-- Node1&#45;&gt;Node10 -->
<g id="edge16" class="edge"><title>Node1&#45;&gt;Node10</title>
<path fill="none" stroke="midnightblue" d="M801.729,-498.671C925.013,-478.178 1154.5,-430.082 1154.5,-356 1154.5,-356 1154.5,-356 1154.5,-181.5 1154.5,-134.731 1154.25,-120.845 1135.5,-78 1129.7,-64.7514 1120.22,-51.7194 1111.73,-41.5654"/>
<polygon fill="midnightblue" stroke="midnightblue" points="800.893,-495.261 791.591,-500.334 802.026,-502.169 800.893,-495.261"/>
</g>
<!-- Node11 -->
<g id="node11" class="node"><title>Node11</title>
<g id="a_node11"><a xlink:href="a00083.html" target="_top" xlink:title="/home/travis/build\l/STORM&#45;IRIT/OpenGR/src\l/gr/algorithms/Functor4pcs.h">
<polygon fill="white" stroke="black" points="1183,-412.5 1183,-453.5 1336,-453.5 1336,-412.5 1183,-412.5"/>
<text text-anchor="start" x="1191" y="-441.5" font-family="Helvetica,sans-Serif" font-size="10.00">/home/travis/build</text>
<text text-anchor="start" x="1191" y="-430.5" font-family="Helvetica,sans-Serif" font-size="10.00">/STORM&#45;IRIT/OpenGR/src</text>
<text text-anchor="middle" x="1259.5" y="-419.5" font-family="Helvetica,sans-Serif" font-size="10.00">/gr/algorithms/Functor4pcs.h</text>
</a>
</g>
</g>
<!-- Node1&#45;&gt;Node11 -->
<g id="edge14" class="edge"><title>Node1&#45;&gt;Node11</title>
<path fill="none" stroke="midnightblue" d="M801.781,-502.481C890.304,-493.264 1040.51,-476.107 1168.5,-454 1173.12,-453.202 1177.87,-452.327 1182.64,-451.405"/>
<polygon fill="midnightblue" stroke="midnightblue" points="801.412,-499 791.825,-503.511 802.132,-505.963 801.412,-499"/>
</g>
<!-- Node12 -->
<g id="node12" class="node"><title>Node12</title>
<g id="a_node12"><a xlink:href="a00090.html" target="_top" xlink:title="/home/travis/build\l/STORM&#45;IRIT/OpenGR/src\l/gr/algorithms/matchBase.h">
<polygon fill="white" stroke="black" points="335.5,-334.5 335.5,-375.5 485.5,-375.5 485.5,-334.5 335.5,-334.5"/>
<text text-anchor="start" x="343.5" y="-363.5" font-family="Helvetica,sans-Serif" font-size="10.00">/home/travis/build</text>
<text text-anchor="start" x="343.5" y="-352.5" font-family="Helvetica,sans-Serif" font-size="10.00">/STORM&#45;IRIT/OpenGR/src</text>
<text text-anchor="middle" x="410.5" y="-341.5" font-family="Helvetica,sans-Serif" font-size="10.00">/gr/algorithms/matchBase.h</text>
</a>
</g>
</g>
<!-- Node1&#45;&gt;Node12 -->
<g id="edge18" class="edge"><title>Node1&#45;&gt;Node12</title>
<path fill="none" stroke="midnightblue" d="M649.474,-502.689C603.205,-495.56 544.383,-481.534 498.5,-454 465.56,-434.233 437.955,-398.205 422.869,-375.772"/>
<polygon fill="midnightblue" stroke="midnightblue" points="649.044,-506.164 659.446,-504.15 650.059,-499.238 649.044,-506.164"/>
</g>
<!-- Node14 -->
<g id="node14" class="node"><title>Node14</title>
<g id="a_node14"><a xlink:href="a00093.html" target="_top" xlink:title="/home/travis/build\l/STORM&#45;IRIT/OpenGR/src\l/gr/algorithms/PointPairFilter.h">
<polygon fill="white" stroke="black" points="1354.5,-412.5 1354.5,-453.5 1512.5,-453.5 1512.5,-412.5 1354.5,-412.5"/>
<text text-anchor="start" x="1362.5" y="-441.5" font-family="Helvetica,sans-Serif" font-size="10.00">/home/travis/build</text>
<text text-anchor="start" x="1362.5" y="-430.5" font-family="Helvetica,sans-Serif" font-size="10.00">/STORM&#45;IRIT/OpenGR/src</text>
<text text-anchor="middle" x="1433.5" y="-419.5" font-family="Helvetica,sans-Serif" font-size="10.00">/gr/algorithms/PointPairFilter.h</text>
</a>
</g>
</g>
<!-- Node1&#45;&gt;Node14 -->
<g id="edge27" class="edge"><title>Node1&#45;&gt;Node14</title>
<path fill="none" stroke="midnightblue" d="M802.251,-506.367C919.792,-500.061 1151.2,-484.713 1345.5,-454 1348.44,-453.535 1351.43,-453.029 1354.44,-452.491"/>
<polygon fill="midnightblue" stroke="midnightblue" points="801.724,-502.89 791.923,-506.913 802.094,-509.88 801.724,-502.89"/>
</g>
<!-- Node15 -->
<g id="node15" class="node"><title>Node15</title>
<g id="a_node15"><a xlink:href="a00099.html" target="_top" xlink:title="/home/travis/build\l/STORM&#45;IRIT/OpenGR/src\l/gr/utils/sampling.h">
<polygon fill="white" stroke="black" points="507.5,-412.5 507.5,-453.5 639.5,-453.5 639.5,-412.5 507.5,-412.5"/>
<text text-anchor="start" x="515.5" y="-441.5" font-family="Helvetica,sans-Serif" font-size="10.00">/home/travis/build</text>
<text text-anchor="start" x="515.5" y="-430.5" font-family="Helvetica,sans-Serif" font-size="10.00">/STORM&#45;IRIT/OpenGR/src</text>
<text text-anchor="middle" x="573.5" y="-419.5" font-family="Helvetica,sans-Serif" font-size="10.00">/gr/utils/sampling.h</text>
</a>
</g>
</g>
<!-- Node1&#45;&gt;Node15 -->
<g id="edge28" class="edge"><title>Node1&#45;&gt;Node15</title>
<path fill="none" stroke="midnightblue" d="M677.316,-485.908C656.416,-475.458 632.26,-463.38 612.511,-453.506"/>
<polygon fill="midnightblue" stroke="midnightblue" points="675.847,-489.086 686.356,-490.428 678.977,-482.825 675.847,-489.086"/>
</g>
<!-- Node2&#45;&gt;Node3 -->
<g id="edge2" class="edge"><title>Node2&#45;&gt;Node3</title>
<path fill="none" stroke="midnightblue" d="M148.643,-238.077C138.882,-228.335 128.833,-217.8 120.559,-208.607"/>
<polygon fill="midnightblue" stroke="midnightblue" points="146.436,-240.815 156.018,-245.336 151.346,-235.827 146.436,-240.815"/>
</g>
<!-- Node2&#45;&gt;Node4 -->
<g id="edge4" class="edge"><title>Node2&#45;&gt;Node4</title>
<path fill="none" stroke="midnightblue" d="M269.125,-242.087C306.184,-229.344 348.976,-214.629 382.404,-203.134"/>
<polygon fill="midnightblue" stroke="midnightblue" points="267.657,-238.891 259.339,-245.453 269.933,-245.511 267.657,-238.891"/>
</g>
<!-- Node2&#45;&gt;Node6 -->
<g id="edge7" class="edge"><title>Node2&#45;&gt;Node6</title>
<path fill="none" stroke="midnightblue" d="M299.238,-244.941C444.298,-219.677 601.677,-201.724 696.82,-191.909"/>
<polygon fill="midnightblue" stroke="midnightblue" points="298.502,-241.516 289.259,-246.694 299.714,-248.411 298.502,-241.516"/>
</g>
<!-- Node3&#45;&gt;Node2 -->
<g id="edge3" class="edge"><title>Node3&#45;&gt;Node2</title>
<path fill="none" stroke="midnightblue" d="M140.297,-215.863C150.057,-225.602 160.109,-236.138 168.39,-245.336"/>
<polygon fill="midnightblue" stroke="midnightblue" points="142.506,-213.127 132.924,-208.607 137.596,-218.116 142.506,-213.127"/>
</g>
<!-- Node4&#45;&gt;Node5 -->
<g id="edge5" class="edge"><title>Node4&#45;&gt;Node5</title>
<path fill="none" stroke="midnightblue" d="M432.966,-151.565C432.53,-140.882 432.754,-129.13 433.638,-119.547"/>
<polygon fill="midnightblue" stroke="midnightblue" points="429.488,-152.016 433.622,-161.771 436.473,-151.567 429.488,-152.016"/>
</g>
<!-- Node5&#45;&gt;Node4 -->
<g id="edge6" class="edge"><title>Node5&#45;&gt;Node4</title>
<path fill="none" stroke="midnightblue" d="M446.026,-129.733C446.47,-140.402 446.254,-152.161 445.378,-161.771"/>
<polygon fill="midnightblue" stroke="midnightblue" points="449.505,-129.298 445.362,-119.547 442.52,-129.754 449.505,-129.298"/>
</g>
<!-- Node6&#45;&gt;Node7 -->
<g id="edge8" class="edge"><title>Node6&#45;&gt;Node7</title>
<path fill="none" stroke="midnightblue" d="M799.997,-152.894C806.357,-141.865 813.471,-129.53 819.227,-119.547"/>
<polygon fill="midnightblue" stroke="midnightblue" points="796.841,-151.36 794.877,-161.771 802.905,-154.857 796.841,-151.36"/>
</g>
<!-- Node6&#45;&gt;Node8 -->
<g id="edge9" class="edge"><title>Node6&#45;&gt;Node8</title>
<path fill="none" stroke="midnightblue" d="M731.861,-157.31C708.41,-145.247 681.506,-130.849 661.256,-119.503"/>
<polygon fill="midnightblue" stroke="midnightblue" points="730.496,-160.544 740.994,-161.979 733.682,-154.311 730.496,-160.544"/>
</g>
<!-- Node6&#45;&gt;Node9 -->
<g id="edge11" class="edge"><title>Node6&#45;&gt;Node9</title>
<path fill="none" stroke="midnightblue" d="M853.036,-158.74C890.744,-146.398 936.868,-131.301 972.914,-119.503"/>
<polygon fill="midnightblue" stroke="midnightblue" points="851.557,-155.542 843.142,-161.979 853.734,-162.194 851.557,-155.542"/>
</g>
<!-- Node8&#45;&gt;Node6 -->
<g id="edge10" class="edge"><title>Node8&#45;&gt;Node6</title>
<path fill="none" stroke="midnightblue" d="M682.101,-124.17C705.548,-136.232 732.454,-150.629 752.712,-161.979"/>
<polygon fill="midnightblue" stroke="midnightblue" points="683.468,-120.938 672.971,-119.503 680.282,-127.171 683.468,-120.938"/>
</g>
<!-- Node9&#45;&gt;Node10 -->
<g id="edge12" class="edge"><title>Node9&#45;&gt;Node10</title>
<path fill="none" stroke="midnightblue" d="M1054.47,-70.627C1062.21,-60.9901 1070.74,-50.3617 1077.84,-41.5056"/>
<polygon fill="midnightblue" stroke="midnightblue" points="1051.74,-68.4386 1048.21,-78.4281 1057.2,-72.8202 1051.74,-68.4386"/>
</g>
<!-- Node12&#45;&gt;Node2 -->
<g id="edge19" class="edge"><title>Node12&#45;&gt;Node2</title>
<path fill="none" stroke="midnightblue" d="M347.347,-331.022C318.693,-320.597 284.735,-308.242 255.422,-297.576"/>
<polygon fill="midnightblue" stroke="midnightblue" points="346.252,-334.349 356.846,-334.479 348.646,-327.77 346.252,-334.349"/>
</g>
<!-- Node12&#45;&gt;Node4 -->
<g id="edge20" class="edge"><title>Node12&#45;&gt;Node4</title>
<path fill="none" stroke="midnightblue" d="M453.485,-328.221C463.543,-319.931 472.938,-309.786 478.5,-298 488.553,-276.697 485.068,-267.621 478.5,-245 474.058,-229.702 464.541,-214.564 456.021,-203.136"/>
<polygon fill="midnightblue" stroke="midnightblue" points="451.143,-325.607 445.336,-334.468 455.401,-331.162 451.143,-325.607"/>
</g>
<!-- Node13 -->
<g id="node13" class="node"><title>Node13</title>
<g id="a_node13"><a xlink:href="a00091.html" target="_top" xlink:title="/home/travis/build\l/STORM&#45;IRIT/OpenGR/src\l/gr/algorithms/matchBase.hpp">
<polygon fill="white" stroke="black" points="307.5,-251 307.5,-292 469.5,-292 469.5,-251 307.5,-251"/>
<text text-anchor="start" x="315.5" y="-280" font-family="Helvetica,sans-Serif" font-size="10.00">/home/travis/build</text>
<text text-anchor="start" x="315.5" y="-269" font-family="Helvetica,sans-Serif" font-size="10.00">/STORM&#45;IRIT/OpenGR/src</text>
<text text-anchor="middle" x="388.5" y="-258" font-family="Helvetica,sans-Serif" font-size="10.00">/gr/algorithms/matchBase.hpp</text>
</a>
</g>
</g>
<!-- Node12&#45;&gt;Node13 -->
<g id="edge21" class="edge"><title>Node12&#45;&gt;Node13</title>
<path fill="none" stroke="midnightblue" d="M396.093,-324.731C392.689,-313.873 389.653,-301.83 387.915,-292.047"/>
<polygon fill="midnightblue" stroke="midnightblue" points="392.795,-325.905 399.296,-334.271 399.431,-323.677 392.795,-325.905"/>
</g>
<!-- Node13&#45;&gt;Node12 -->
<g id="edge22" class="edge"><title>Node13&#45;&gt;Node12</title>
<path fill="none" stroke="midnightblue" d="M402.844,-301.568C406.252,-312.411 409.299,-324.461 411.053,-334.271"/>
<polygon fill="midnightblue" stroke="midnightblue" points="406.146,-300.408 399.638,-292.047 399.512,-302.641 406.146,-300.408"/>
</g>
<!-- Node15&#45;&gt;Node3 -->
<g id="edge29" class="edge"><title>Node15&#45;&gt;Node3</title>
<path fill="none" stroke="midnightblue" d="M496.992,-423.001C369.964,-406.283 124.514,-365.835 74.5,-298 55.0695,-271.646 70.8646,-233.508 85.4434,-208.61"/>
<polygon fill="midnightblue" stroke="midnightblue" points="496.678,-426.489 507.046,-424.307 497.58,-419.548 496.678,-426.489"/>
</g>
<!-- Node15&#45;&gt;Node4 -->
<g id="edge30" class="edge"><title>Node15&#45;&gt;Node4</title>
<path fill="none" stroke="midnightblue" d="M564.925,-402.357C553.07,-364.103 529.354,-296.368 496.5,-245 486.617,-229.548 472.654,-214.408 461.022,-203.016"/>
<polygon fill="midnightblue" stroke="midnightblue" points="561.698,-403.775 567.952,-412.327 568.396,-401.741 561.698,-403.775"/>
</g>
<!-- Node15&#45;&gt;Node5 -->
<g id="edge32" class="edge"><title>Node15&#45;&gt;Node5</title>
<path fill="none" stroke="midnightblue" d="M575.355,-402.08C577.209,-348.135 574.198,-233.029 522.5,-156 512.329,-140.845 496.538,-128.701 481.449,-119.648"/>
<polygon fill="midnightblue" stroke="midnightblue" points="571.848,-402.186 574.917,-412.326 578.841,-402.485 571.848,-402.186"/>
</g>
<!-- Node15&#45;&gt;Node6 -->
<g id="edge33" class="edge"><title>Node15&#45;&gt;Node6</title>
<path fill="none" stroke="midnightblue" d="M599.205,-404.988C607.697,-395.887 617.114,-385.603 625.5,-376 679.391,-314.286 740.074,-238.458 767.964,-203.227"/>
<polygon fill="midnightblue" stroke="midnightblue" points="596.621,-402.626 592.331,-412.313 601.726,-407.416 596.621,-402.626"/>
</g>
<!-- Node15&#45;&gt;Node8 -->
<g id="edge34" class="edge"><title>Node15&#45;&gt;Node8</title>
<path fill="none" stroke="midnightblue" d="M581.402,-402.515C583.541,-393.995 585.747,-384.659 587.5,-376 606.843,-280.464 622.32,-164.804 628.077,-119.515"/>
<polygon fill="midnightblue" stroke="midnightblue" points="577.96,-401.846 578.861,-412.402 584.74,-403.588 577.96,-401.846"/>
</g>
<!-- Node15&#45;&gt;Node12 -->
<g id="edge31" class="edge"><title>Node15&#45;&gt;Node12</title>
<path fill="none" stroke="midnightblue" d="M522.432,-408.189C499.882,-397.675 473.703,-385.469 452.334,-375.506"/>
<polygon fill="midnightblue" stroke="midnightblue" points="520.981,-411.374 531.523,-412.428 523.939,-405.03 520.981,-411.374"/>
</g>
</g>
</svg>
