<?xml version="1.0" encoding="UTF-8" standalone="no"?>
<!DOCTYPE svg PUBLIC "-//W3C//DTD SVG 1.1//EN"
 "http://www.w3.org/Graphics/SVG/1.1/DTD/svg11.dtd">
<!-- Generated by graphviz version 2.38.0 (20140413.2041)
 -->
<!-- Title: /home/travis/build/STORM&#45;IRIT/OpenGR/src/gr/utils/disablewarnings.h Pages: 1 -->
<!--zoomable 618 -->
<svg id="main" version="1.1" xmlns="http://www.w3.org/2000/svg" xmlns:xlink="http://www.w3.org/1999/xlink" xml:space="preserve" onload="init(evt)">
<style type="text/css"><![CDATA[
.edge:hover path { stroke: red; }
.edge:hover polygon { stroke: red; fill: red; }
]]></style>
<script type="text/javascript"><![CDATA[
var edges = document.getElementsByTagName('g');
if (edges && edges.length) {
  for (var i=0;i<edges.length;i++) {
    if (edges[i].id.substr(0,4)=='edge') {
      edges[i].setAttribute('class','edge');
    }
  }
}
]]></script>
        <defs>
                <circle id="rim" cx="0" cy="0" r="7"/>
                <circle id="rim2" cx="0" cy="0" r="3.5"/>
                <g id="zoomPlus">
                        <use xlink:href="#rim" fill="#404040">
                                <set attributeName="fill" to="#808080" begin="zoomplus.mouseover" end="zoomplus.mouseout"/>
                        </use>
                        <path d="M-4,0h8M0,-4v8" fill="none" stroke="white" stroke-width="1.5" pointer-events="none"/>
                </g>
                <g id="zoomMin">
                        <use xlink:href="#rim" fill="#404040">
                                <set attributeName="fill" to="#808080" begin="zoomminus.mouseover" end="zoomminus.mouseout"/>
                        </use>
                        <path d="M-4,0h8" fill="none" stroke="white" stroke-width="1.5" pointer-events="none"/>
                </g>
                <g id="dirArrow">
                        <path fill="none" stroke="white" stroke-width="1.5" d="M0,-3.0v7 M-2.5,-0.5L0,-3.0L2.5,-0.5"/>
                </g>
               <g id="resetDef">
                       <use xlink:href="#rim2" fill="#404040">
                               <set attributeName="fill" to="#808080" begin="reset.mouseover" end="reset.mouseout"/>
                       </use>
               </g>
        </defs>

<script type="text/javascript">
var viewWidth = 1269;
var viewHeight = 618;
var sectionId = 'dynsection-0';
</script>
<script xlink:href="svgpan.js"/>
<svg id="graph" class="graph">
<g id="viewport">
<title>/home/travis/build/STORM&#45;IRIT/OpenGR/src/gr/utils/disablewarnings.h</title>
<polygon fill="white" stroke="none" points="-4,4 -4,-614 1265,-614 1265,4 -4,4"/>
<!-- Node1 -->
<g id="node1" class="node"><title>Node1</title>
<polygon fill="#bfbfbf" stroke="black" points="414,-568.5 414,-609.5 554,-609.5 554,-568.5 414,-568.5"/>
<text text-anchor="start" x="422" y="-597.5" font-family="Helvetica,sans-Serif" font-size="10.00">/home/travis/build</text>
<text text-anchor="start" x="422" y="-586.5" font-family="Helvetica,sans-Serif" font-size="10.00">/STORM&#45;IRIT/OpenGR/src</text>
<text text-anchor="middle" x="484" y="-575.5" font-family="Helvetica,sans-Serif" font-size="10.00">/gr/utils/disablewarnings.h</text>
</g>
<!-- Node2 -->
<g id="node2" class="node"><title>Node2</title>
<g id="a_node2"><a xlink:href="a00072.html" target="_top" xlink:title="/home/travis/build\l/STORM&#45;IRIT/OpenGR/src\l/gr/accelerators/kdtree.h">
<polygon fill="white" stroke="black" points="370,-412.5 370,-453.5 504,-453.5 504,-412.5 370,-412.5"/>
<text text-anchor="start" x="378" y="-441.5" font-family="Helvetica,sans-Serif" font-size="10.00">/home/travis/build</text>
<text text-anchor="start" x="378" y="-430.5" font-family="Helvetica,sans-Serif" font-size="10.00">/STORM&#45;IRIT/OpenGR/src</text>
<text text-anchor="middle" x="437" y="-419.5" font-family="Helvetica,sans-Serif" font-size="10.00">/gr/accelerators/kdtree.h</text>
</a>
</g>
</g>
<!-- Node1&#45;&gt;Node2 -->
<g id="edge1" class="edge"><title>Node1&#45;&gt;Node2</title>
<path fill="none" stroke="midnightblue" d="M467.86,-559.464C463.503,-550.847 459.133,-541.221 456,-532 447.022,-505.581 441.822,-473.631 439.199,-453.556"/>
<polygon fill="midnightblue" stroke="midnightblue" points="464.778,-561.124 472.523,-568.353 470.977,-557.872 464.778,-561.124"/>
</g>
<!-- Node15 -->
<g id="node15" class="node"><title>Node15</title>
<g id="a_node15"><a xlink:href="a00073.html" target="_top" xlink:title="/home/travis/build\l/STORM&#45;IRIT/OpenGR/src\l/gr/accelerators/normalHealSet.h">
<polygon fill="white" stroke="black" points="233,-490.5 233,-531.5 409,-531.5 409,-490.5 233,-490.5"/>
<text text-anchor="start" x="241" y="-519.5" font-family="Helvetica,sans-Serif" font-size="10.00">/home/travis/build</text>
<text text-anchor="start" x="241" y="-508.5" font-family="Helvetica,sans-Serif" font-size="10.00">/STORM&#45;IRIT/OpenGR/src</text>
<text text-anchor="middle" x="321" y="-497.5" font-family="Helvetica,sans-Serif" font-size="10.00">/gr/accelerators/normalHealSet.h</text>
</a>
</g>
</g>
<!-- Node1&#45;&gt;Node15 -->
<g id="edge23" class="edge"><title>Node1&#45;&gt;Node15</title>
<path fill="none" stroke="midnightblue" d="M432.932,-564.189C410.382,-553.675 384.203,-541.469 362.834,-531.506"/>
<polygon fill="midnightblue" stroke="midnightblue" points="431.481,-567.374 442.023,-568.428 434.439,-561.03 431.481,-567.374"/>
</g>
<!-- Node16 -->
<g id="node16" class="node"><title>Node16</title>
<g id="a_node16"><a xlink:href="a00074.html" target="_top" xlink:title="/home/travis/build\l/STORM&#45;IRIT/OpenGR/src\l/gr/accelerators/normalset.h">
<polygon fill="white" stroke="black" points="0,-240 0,-281 152,-281 152,-240 0,-240"/>
<text text-anchor="start" x="8" y="-269" font-family="Helvetica,sans-Serif" font-size="10.00">/home/travis/build</text>
<text text-anchor="start" x="8" y="-258" font-family="Helvetica,sans-Serif" font-size="10.00">/STORM&#45;IRIT/OpenGR/src</text>
<text text-anchor="middle" x="76" y="-247" font-family="Helvetica,sans-Serif" font-size="10.00">/gr/accelerators/normalset.h</text>
</a>
</g>
</g>
<!-- Node1&#45;&gt;Node16 -->
<g id="edge24" class="edge"><title>Node1&#45;&gt;Node16</title>
<path fill="none" stroke="midnightblue" d="M403.476,-585.263C349.055,-580.079 277.624,-566.506 224,-532 131.04,-472.182 91.7517,-332.861 80.0337,-281.22"/>
<polygon fill="midnightblue" stroke="midnightblue" points="403.51,-588.78 413.777,-586.165 404.12,-581.806 403.51,-588.78"/>
</g>
<!-- Node17 -->
<g id="node17" class="node"><title>Node17</title>
<g id="a_node17"><a xlink:href="a00096.html" target="_top" xlink:title="/home/travis/build\l/STORM&#45;IRIT/OpenGR/src\l/gr/utils/geometry.h">
<polygon fill="white" stroke="black" points="465,-490.5 465,-531.5 597,-531.5 597,-490.5 465,-490.5"/>
<text text-anchor="start" x="473" y="-519.5" font-family="Helvetica,sans-Serif" font-size="10.00">/home/travis/build</text>
<text text-anchor="start" x="473" y="-508.5" font-family="Helvetica,sans-Serif" font-size="10.00">/STORM&#45;IRIT/OpenGR/src</text>
<text text-anchor="middle" x="531" y="-497.5" font-family="Helvetica,sans-Serif" font-size="10.00">/gr/utils/geometry.h</text>
</a>
</g>
</g>
<!-- Node1&#45;&gt;Node17 -->
<g id="edge26" class="edge"><title>Node1&#45;&gt;Node17</title>
<path fill="none" stroke="midnightblue" d="M501.466,-559.757C507.281,-550.354 513.625,-540.096 518.937,-531.506"/>
<polygon fill="midnightblue" stroke="midnightblue" points="498.387,-558.082 496.104,-568.428 504.34,-561.764 498.387,-558.082"/>
</g>
<!-- Node18 -->
<g id="node18" class="node"><title>Node18</title>
<g id="a_node18"><a xlink:href="a00100.html" target="_top" xlink:title="/home/travis/build\l/STORM&#45;IRIT/OpenGR/src\l/gr/utils/shared.h">
<polygon fill="white" stroke="black" points="615,-490.5 615,-531.5 747,-531.5 747,-490.5 615,-490.5"/>
<text text-anchor="start" x="623" y="-519.5" font-family="Helvetica,sans-Serif" font-size="10.00">/home/travis/build</text>
<text text-anchor="start" x="623" y="-508.5" font-family="Helvetica,sans-Serif" font-size="10.00">/STORM&#45;IRIT/OpenGR/src</text>
<text text-anchor="middle" x="681" y="-497.5" font-family="Helvetica,sans-Serif" font-size="10.00">/gr/utils/shared.h</text>
</a>
</g>
</g>
<!-- Node1&#45;&gt;Node18 -->
<g id="edge27" class="edge"><title>Node1&#45;&gt;Node18</title>
<path fill="none" stroke="midnightblue" d="M544.271,-564.748C571.847,-554.11 604.155,-541.646 630.44,-531.506"/>
<polygon fill="midnightblue" stroke="midnightblue" points="542.802,-561.563 534.732,-568.428 545.322,-568.094 542.802,-561.563"/>
</g>
<!-- Node22 -->
<g id="node22" class="node"><title>Node22</title>
<g id="a_node22"><a xlink:href="a00101.html" target="_top" xlink:title="/home/travis/build\l/STORM&#45;IRIT/OpenGR/src\l/gr/utils/timer.h">
<polygon fill="white" stroke="black" points="765,-490.5 765,-531.5 897,-531.5 897,-490.5 765,-490.5"/>
<text text-anchor="start" x="773" y="-519.5" font-family="Helvetica,sans-Serif" font-size="10.00">/home/travis/build</text>
<text text-anchor="start" x="773" y="-508.5" font-family="Helvetica,sans-Serif" font-size="10.00">/STORM&#45;IRIT/OpenGR/src</text>
<text text-anchor="middle" x="831" y="-497.5" font-family="Helvetica,sans-Serif" font-size="10.00">/gr/utils/timer.h</text>
</a>
</g>
</g>
<!-- Node1&#45;&gt;Node22 -->
<g id="edge47" class="edge"><title>Node1&#45;&gt;Node22</title>
<path fill="none" stroke="midnightblue" d="M564.038,-572.78C618.364,-562.141 691.728,-547.173 756,-532 758.885,-531.319 761.829,-530.607 764.799,-529.875"/>
<polygon fill="midnightblue" stroke="midnightblue" points="563.267,-569.364 554.123,-574.715 564.608,-576.234 563.267,-569.364"/>
</g>
<!-- Node3 -->
<g id="node3" class="node"><title>Node3</title>
<g id="a_node3"><a xlink:href="a00082.html" target="_top" xlink:title="/home/travis/build\l/STORM&#45;IRIT/OpenGR/src\l/gr/algorithms/congruentSetExploration\lBase.hpp">
<polygon fill="white" stroke="black" points="531.5,-323.5 531.5,-375.5 736.5,-375.5 736.5,-323.5 531.5,-323.5"/>
<text text-anchor="start" x="539.5" y="-363.5" font-family="Helvetica,sans-Serif" font-size="10.00">/home/travis/build</text>
<text text-anchor="start" x="539.5" y="-352.5" font-family="Helvetica,sans-Serif" font-size="10.00">/STORM&#45;IRIT/OpenGR/src</text>
<text text-anchor="start" x="539.5" y="-341.5" font-family="Helvetica,sans-Serif" font-size="10.00">/gr/algorithms/congruentSetExploration</text>
<text text-anchor="middle" x="634" y="-330.5" font-family="Helvetica,sans-Serif" font-size="10.00">Base.hpp</text>
</a>
</g>
</g>
<!-- Node2&#45;&gt;Node3 -->
<g id="edge2" class="edge"><title>Node2&#45;&gt;Node3</title>
<path fill="none" stroke="midnightblue" d="M493.529,-408.613C518.519,-398.275 547.942,-386.103 573.386,-375.576"/>
<polygon fill="midnightblue" stroke="midnightblue" points="492.089,-405.422 484.186,-412.479 494.765,-411.89 492.089,-405.422"/>
</g>
<!-- Node7 -->
<g id="node7" class="node"><title>Node7</title>
<g id="a_node7"><a xlink:href="a00088.html" target="_top" xlink:title="/home/travis/build\l/STORM&#45;IRIT/OpenGR/src\l/gr/algorithms/match4pcsBase.h">
<polygon fill="white" stroke="black" points="322.5,-156.5 322.5,-197.5 495.5,-197.5 495.5,-156.5 322.5,-156.5"/>
<text text-anchor="start" x="330.5" y="-185.5" font-family="Helvetica,sans-Serif" font-size="10.00">/home/travis/build</text>
<text text-anchor="start" x="330.5" y="-174.5" font-family="Helvetica,sans-Serif" font-size="10.00">/STORM&#45;IRIT/OpenGR/src</text>
<text text-anchor="middle" x="409" y="-163.5" font-family="Helvetica,sans-Serif" font-size="10.00">/gr/algorithms/match4pcsBase.h</text>
</a>
</g>
</g>
<!-- Node2&#45;&gt;Node7 -->
<g id="edge19" class="edge"><title>Node2&#45;&gt;Node7</title>
<path fill="none" stroke="midnightblue" d="M380.787,-406.897C368.868,-398.817 357.833,-388.604 351,-376 318.221,-315.541 367.236,-234.395 393.792,-197.601"/>
<polygon fill="midnightblue" stroke="midnightblue" points="379.244,-410.061 389.576,-412.408 382.963,-404.13 379.244,-410.061"/>
</g>
<!-- Node9 -->
<g id="node9" class="node"><title>Node9</title>
<g id="a_node9"><a xlink:href="a00089.html" target="_top" xlink:title="/home/travis/build\l/STORM&#45;IRIT/OpenGR/src\l/gr/algorithms/match4pcsBase.hpp">
<polygon fill="white" stroke="black" points="316.5,-78.5 316.5,-119.5 501.5,-119.5 501.5,-78.5 316.5,-78.5"/>
<text text-anchor="start" x="324.5" y="-107.5" font-family="Helvetica,sans-Serif" font-size="10.00">/home/travis/build</text>
<text text-anchor="start" x="324.5" y="-96.5" font-family="Helvetica,sans-Serif" font-size="10.00">/STORM&#45;IRIT/OpenGR/src</text>
<text text-anchor="middle" x="409" y="-85.5" font-family="Helvetica,sans-Serif" font-size="10.00">/gr/algorithms/match4pcsBase.hpp</text>
</a>
</g>
</g>
<!-- Node2&#45;&gt;Node9 -->
<g id="edge20" class="edge"><title>Node2&#45;&gt;Node9</title>
<path fill="none" stroke="midnightblue" d="M372.663,-407.523C358.932,-399.457 345.903,-389.093 337,-376 292.113,-309.988 318.345,-277.648 313,-198 311.75,-179.375 303.703,-172.187 313,-156 322.178,-140.021 337.868,-128.171 353.934,-119.593"/>
<polygon fill="midnightblue" stroke="midnightblue" points="371.299,-410.766 381.751,-412.498 374.66,-404.626 371.299,-410.766"/>
</g>
<!-- Node12 -->
<g id="node12" class="node"><title>Node12</title>
<g id="a_node12"><a xlink:href="a00090.html" target="_top" xlink:title="/home/travis/build\l/STORM&#45;IRIT/OpenGR/src\l/gr/algorithms/matchBase.h">
<polygon fill="white" stroke="black" points="869,-329 869,-370 1019,-370 1019,-329 869,-329"/>
<text text-anchor="start" x="877" y="-358" font-family="Helvetica,sans-Serif" font-size="10.00">/home/travis/build</text>
<text text-anchor="start" x="877" y="-347" font-family="Helvetica,sans-Serif" font-size="10.00">/STORM&#45;IRIT/OpenGR/src</text>
<text text-anchor="middle" x="944" y="-336" font-family="Helvetica,sans-Serif" font-size="10.00">/gr/algorithms/matchBase.h</text>
</a>
</g>
</g>
<!-- Node2&#45;&gt;Node12 -->
<g id="edge14" class="edge"><title>Node2&#45;&gt;Node12</title>
<path fill="none" stroke="midnightblue" d="M514.015,-419.62C610.18,-404.161 773.603,-377.891 868.877,-362.576"/>
<polygon fill="midnightblue" stroke="midnightblue" points="513.382,-416.177 504.064,-421.219 514.493,-423.088 513.382,-416.177"/>
</g>
<!-- Node14 -->
<g id="node14" class="node"><title>Node14</title>
<g id="a_node14"><a xlink:href="a00098.html" target="_top" xlink:title="/home/travis/build\l/STORM&#45;IRIT/OpenGR/src\l/gr/utils/registrationMetrics.h">
<polygon fill="white" stroke="black" points="360.5,-329 360.5,-370 513.5,-370 513.5,-329 360.5,-329"/>
<text text-anchor="start" x="368.5" y="-358" font-family="Helvetica,sans-Serif" font-size="10.00">/home/travis/build</text>
<text text-anchor="start" x="368.5" y="-347" font-family="Helvetica,sans-Serif" font-size="10.00">/STORM&#45;IRIT/OpenGR/src</text>
<text text-anchor="middle" x="437" y="-336" font-family="Helvetica,sans-Serif" font-size="10.00">/gr/utils/registrationMetrics.h</text>
</a>
</g>
</g>
<!-- Node2&#45;&gt;Node14 -->
<g id="edge21" class="edge"><title>Node2&#45;&gt;Node14</title>
<path fill="none" stroke="midnightblue" d="M437,-402.065C437,-391.382 437,-379.63 437,-370.047"/>
<polygon fill="midnightblue" stroke="midnightblue" points="433.5,-402.271 437,-412.271 440.5,-402.271 433.5,-402.271"/>
</g>
<!-- Node4 -->
<g id="node4" class="node"><title>Node4</title>
<g id="a_node4"><a xlink:href="a00081.html" target="_top" xlink:title="/home/travis/build\l/STORM&#45;IRIT/OpenGR/src\l/gr/algorithms/congruentSetExploration\lBase.h">
<polygon fill="white" stroke="black" points="531.5,-234.5 531.5,-286.5 736.5,-286.5 736.5,-234.5 531.5,-234.5"/>
<text text-anchor="start" x="539.5" y="-274.5" font-family="Helvetica,sans-Serif" font-size="10.00">/home/travis/build</text>
<text text-anchor="start" x="539.5" y="-263.5" font-family="Helvetica,sans-Serif" font-size="10.00">/STORM&#45;IRIT/OpenGR/src</text>
<text text-anchor="start" x="539.5" y="-252.5" font-family="Helvetica,sans-Serif" font-size="10.00">/gr/algorithms/congruentSetExploration</text>
<text text-anchor="middle" x="634" y="-241.5" font-family="Helvetica,sans-Serif" font-size="10.00">Base.h</text>
</a>
</g>
</g>
<!-- Node3&#45;&gt;Node4 -->
<g id="edge3" class="edge"><title>Node3&#45;&gt;Node4</title>
<path fill="none" stroke="midnightblue" d="M627.358,-313.191C627.121,-304.282 627.275,-294.899 627.818,-286.607"/>
<polygon fill="midnightblue" stroke="midnightblue" points="623.868,-313.503 627.814,-323.336 630.861,-313.189 623.868,-313.503"/>
</g>
<!-- Node4&#45;&gt;Node3 -->
<g id="edge4" class="edge"><title>Node4&#45;&gt;Node3</title>
<path fill="none" stroke="midnightblue" d="M640.641,-296.749C640.879,-305.655 640.727,-315.04 640.186,-323.336"/>
<polygon fill="midnightblue" stroke="midnightblue" points="644.131,-296.439 640.182,-286.607 637.138,-296.755 644.131,-296.439"/>
</g>
<!-- Node5 -->
<g id="node5" class="node"><title>Node5</title>
<g id="a_node5"><a xlink:href="a00086.html" target="_top" xlink:title="/home/travis/build\l/STORM&#45;IRIT/OpenGR/src\l/gr/algorithms/match3pcs.h">
<polygon fill="white" stroke="black" points="932.5,-156.5 932.5,-197.5 1081.5,-197.5 1081.5,-156.5 932.5,-156.5"/>
<text text-anchor="start" x="940.5" y="-185.5" font-family="Helvetica,sans-Serif" font-size="10.00">/home/travis/build</text>
<text text-anchor="start" x="940.5" y="-174.5" font-family="Helvetica,sans-Serif" font-size="10.00">/STORM&#45;IRIT/OpenGR/src</text>
<text text-anchor="middle" x="1007" y="-163.5" font-family="Helvetica,sans-Serif" font-size="10.00">/gr/algorithms/match3pcs.h</text>
</a>
</g>
</g>
<!-- Node4&#45;&gt;Node5 -->
<g id="edge5" class="edge"><title>Node4&#45;&gt;Node5</title>
<path fill="none" stroke="midnightblue" d="M746.826,-234.848C806.9,-221.722 879.126,-205.94 932.22,-194.339"/>
<polygon fill="midnightblue" stroke="midnightblue" points="745.934,-231.46 736.911,-237.014 747.428,-238.299 745.934,-231.46"/>
</g>
<!-- Node4&#45;&gt;Node7 -->
<g id="edge8" class="edge"><title>Node4&#45;&gt;Node7</title>
<path fill="none" stroke="midnightblue" d="M555.197,-230.956C524.682,-219.902 490.522,-207.529 462.901,-197.524"/>
<polygon fill="midnightblue" stroke="midnightblue" points="554.369,-234.378 564.963,-234.493 556.753,-227.797 554.369,-234.378"/>
</g>
<!-- Node6 -->
<g id="node6" class="node"><title>Node6</title>
<g id="a_node6"><a xlink:href="a00087.html" target="_top" xlink:title="/home/travis/build\l/STORM&#45;IRIT/OpenGR/src\l/gr/algorithms/match3pcs.hpp">
<polygon fill="white" stroke="black" points="977.5,-78.5 977.5,-119.5 1138.5,-119.5 1138.5,-78.5 977.5,-78.5"/>
<text text-anchor="start" x="985.5" y="-107.5" font-family="Helvetica,sans-Serif" font-size="10.00">/home/travis/build</text>
<text text-anchor="start" x="985.5" y="-96.5" font-family="Helvetica,sans-Serif" font-size="10.00">/STORM&#45;IRIT/OpenGR/src</text>
<text text-anchor="middle" x="1058" y="-85.5" font-family="Helvetica,sans-Serif" font-size="10.00">/gr/algorithms/match3pcs.hpp</text>
</a>
</g>
</g>
<!-- Node5&#45;&gt;Node6 -->
<g id="edge6" class="edge"><title>Node5&#45;&gt;Node6</title>
<path fill="none" stroke="midnightblue" d="M1019.4,-147.757C1025.32,-138.354 1032.39,-128.096 1038.93,-119.506"/>
<polygon fill="midnightblue" stroke="midnightblue" points="1016.34,-146.063 1014.15,-156.428 1022.32,-149.693 1016.34,-146.063"/>
</g>
<!-- Node6&#45;&gt;Node5 -->
<g id="edge7" class="edge"><title>Node6&#45;&gt;Node5</title>
<path fill="none" stroke="midnightblue" d="M1045.64,-128.17C1039.73,-137.569 1032.66,-147.829 1026.12,-156.428"/>
<polygon fill="midnightblue" stroke="midnightblue" points="1048.7,-129.872 1050.89,-119.506 1042.72,-126.243 1048.7,-129.872"/>
</g>
<!-- Node8 -->
<g id="node8" class="node"><title>Node8</title>
<g id="a_node8"><a xlink:href="a00084.html" target="_top" xlink:title="/home/travis/build\l/STORM&#45;IRIT/OpenGR/src\l/gr/algorithms/FunctorBrute4pcs.h">
<polygon fill="white" stroke="black" points="651.5,-78.5 651.5,-119.5 830.5,-119.5 830.5,-78.5 651.5,-78.5"/>
<text text-anchor="start" x="659.5" y="-107.5" font-family="Helvetica,sans-Serif" font-size="10.00">/home/travis/build</text>
<text text-anchor="start" x="659.5" y="-96.5" font-family="Helvetica,sans-Serif" font-size="10.00">/STORM&#45;IRIT/OpenGR/src</text>
<text text-anchor="middle" x="741" y="-85.5" font-family="Helvetica,sans-Serif" font-size="10.00">/gr/algorithms/FunctorBrute4pcs.h</text>
</a>
</g>
</g>
<!-- Node7&#45;&gt;Node8 -->
<g id="edge9" class="edge"><title>Node7&#45;&gt;Node8</title>
<path fill="none" stroke="midnightblue" d="M504.533,-154.131C552.273,-143.203 609.56,-130.089 655.791,-119.506"/>
<polygon fill="midnightblue" stroke="midnightblue" points="503.465,-150.785 494.498,-156.428 505.027,-157.608 503.465,-150.785"/>
</g>
<!-- Node7&#45;&gt;Node9 -->
<g id="edge10" class="edge"><title>Node7&#45;&gt;Node9</title>
<path fill="none" stroke="midnightblue" d="M402.395,-146.297C402.076,-137.301 402.283,-127.653 403.018,-119.506"/>
<polygon fill="midnightblue" stroke="midnightblue" points="398.911,-146.659 403.012,-156.428 405.898,-146.234 398.911,-146.659"/>
</g>
<!-- Node10 -->
<g id="node10" class="node"><title>Node10</title>
<g id="a_node10"><a xlink:href="a00092.html" target="_top" xlink:title="/home/travis/build\l/STORM&#45;IRIT/OpenGR/src\l/gr/algorithms/pairCreationFunctor.h">
<polygon fill="white" stroke="black" points="109,-78.5 109,-119.5 297,-119.5 297,-78.5 109,-78.5"/>
<text text-anchor="start" x="117" y="-107.5" font-family="Helvetica,sans-Serif" font-size="10.00">/home/travis/build</text>
<text text-anchor="start" x="117" y="-96.5" font-family="Helvetica,sans-Serif" font-size="10.00">/STORM&#45;IRIT/OpenGR/src</text>
<text text-anchor="middle" x="203" y="-85.5" font-family="Helvetica,sans-Serif" font-size="10.00">/gr/algorithms/pairCreationFunctor.h</text>
</a>
</g>
</g>
<!-- Node7&#45;&gt;Node10 -->
<g id="edge12" class="edge"><title>Node7&#45;&gt;Node10</title>
<path fill="none" stroke="midnightblue" d="M346.353,-152.887C317.434,-142.219 283.476,-129.69 255.87,-119.506"/>
<polygon fill="midnightblue" stroke="midnightblue" points="345.357,-156.25 355.95,-156.428 347.779,-149.683 345.357,-156.25"/>
</g>
<!-- Node9&#45;&gt;Node7 -->
<g id="edge11" class="edge"><title>Node9&#45;&gt;Node7</title>
<path fill="none" stroke="midnightblue" d="M415.602,-129.63C415.924,-138.622 415.72,-148.272 414.988,-156.428"/>
<polygon fill="midnightblue" stroke="midnightblue" points="419.087,-129.273 414.982,-119.506 412.1,-129.701 419.087,-129.273"/>
</g>
<!-- Node11 -->
<g id="node11" class="node"><title>Node11</title>
<g id="a_node11"><a xlink:href="a00085.html" target="_top" xlink:title="/home/travis/build\l/STORM&#45;IRIT/OpenGR/src\l/gr/algorithms/FunctorSuper4pcs.h">
<polygon fill="white" stroke="black" points="112,-0.5 112,-41.5 294,-41.5 294,-0.5 112,-0.5"/>
<text text-anchor="start" x="120" y="-29.5" font-family="Helvetica,sans-Serif" font-size="10.00">/home/travis/build</text>
<text text-anchor="start" x="120" y="-18.5" font-family="Helvetica,sans-Serif" font-size="10.00">/STORM&#45;IRIT/OpenGR/src</text>
<text text-anchor="middle" x="203" y="-7.5" font-family="Helvetica,sans-Serif" font-size="10.00">/gr/algorithms/FunctorSuper4pcs.h</text>
</a>
</g>
</g>
<!-- Node10&#45;&gt;Node11 -->
<g id="edge13" class="edge"><title>Node10&#45;&gt;Node11</title>
<path fill="none" stroke="midnightblue" d="M203,-68.2965C203,-59.3009 203,-49.6532 203,-41.5056"/>
<polygon fill="midnightblue" stroke="midnightblue" points="199.5,-68.4281 203,-78.4281 206.5,-68.4281 199.5,-68.4281"/>
</g>
<!-- Node12&#45;&gt;Node4 -->
<g id="edge15" class="edge"><title>Node12&#45;&gt;Node4</title>
<path fill="none" stroke="midnightblue" d="M864.801,-326.273C821.536,-314.131 767.817,-299.055 723.094,-286.504"/>
<polygon fill="midnightblue" stroke="midnightblue" points="863.856,-329.643 874.43,-328.976 865.748,-322.904 863.856,-329.643"/>
</g>
<!-- Node12&#45;&gt;Node5 -->
<g id="edge16" class="edge"><title>Node12&#45;&gt;Node5</title>
<path fill="none" stroke="midnightblue" d="M984.993,-322.506C996.568,-312.889 1007.71,-300.89 1014,-287 1027.06,-258.149 1020.1,-220.555 1013.68,-197.901"/>
<polygon fill="midnightblue" stroke="midnightblue" points="982.691,-319.863 976.966,-328.777 987.001,-325.379 982.691,-319.863"/>
</g>
<!-- Node13 -->
<g id="node13" class="node"><title>Node13</title>
<g id="a_node13"><a xlink:href="a00091.html" target="_top" xlink:title="/home/travis/build\l/STORM&#45;IRIT/OpenGR/src\l/gr/algorithms/matchBase.hpp">
<polygon fill="white" stroke="black" points="843,-240 843,-281 1005,-281 1005,-240 843,-240"/>
<text text-anchor="start" x="851" y="-269" font-family="Helvetica,sans-Serif" font-size="10.00">/home/travis/build</text>
<text text-anchor="start" x="851" y="-258" font-family="Helvetica,sans-Serif" font-size="10.00">/STORM&#45;IRIT/OpenGR/src</text>
<text text-anchor="middle" x="924" y="-247" font-family="Helvetica,sans-Serif" font-size="10.00">/gr/algorithms/matchBase.hpp</text>
</a>
</g>
</g>
<!-- Node12&#45;&gt;Node13 -->
<g id="edge17" class="edge"><title>Node12&#45;&gt;Node13</title>
<path fill="none" stroke="midnightblue" d="M930.738,-318.814C927.3,-306.383 924.285,-292.273 922.767,-281.164"/>
<polygon fill="midnightblue" stroke="midnightblue" points="927.491,-320.174 933.701,-328.758 934.199,-318.175 927.491,-320.174"/>
</g>
<!-- Node13&#45;&gt;Node12 -->
<g id="edge18" class="edge"><title>Node13&#45;&gt;Node12</title>
<path fill="none" stroke="midnightblue" d="M937.238,-291.099C940.678,-303.522 943.698,-317.635 945.223,-328.758"/>
<polygon fill="midnightblue" stroke="midnightblue" points="940.487,-289.745 934.274,-281.164 933.779,-291.747 940.487,-289.745"/>
</g>
<!-- Node14&#45;&gt;Node4 -->
<g id="edge22" class="edge"><title>Node14&#45;&gt;Node4</title>
<path fill="none" stroke="midnightblue" d="M490.458,-324.892C517.322,-313.028 549.884,-298.648 577.199,-286.585"/>
<polygon fill="midnightblue" stroke="midnightblue" points="488.944,-321.734 481.211,-328.976 491.772,-328.137 488.944,-321.734"/>
</g>
<!-- Node16&#45;&gt;Node11 -->
<g id="edge25" class="edge"><title>Node16&#45;&gt;Node11</title>
<path fill="none" stroke="midnightblue" d="M72.1752,-229.679C68.845,-191.147 68.6514,-123.612 100,-78 111.01,-61.9806 128.139,-50.12 145.29,-41.5446"/>
<polygon fill="midnightblue" stroke="midnightblue" points="68.7027,-230.13 73.174,-239.735 75.6684,-229.438 68.7027,-230.13"/>
</g>
<!-- Node18&#45;&gt;Node3 -->
<g id="edge29" class="edge"><title>Node18&#45;&gt;Node3</title>
<path fill="none" stroke="midnightblue" d="M613.938,-486.648C589.398,-476.636 565.917,-464.785 559,-454 548.923,-438.287 551.016,-428.873 559,-412 565.842,-397.54 577.935,-385.343 590.438,-375.721"/>
<polygon fill="midnightblue" stroke="midnightblue" points="612.777,-489.953 623.363,-490.389 615.36,-483.447 612.777,-489.953"/>
</g>
<!-- Node18&#45;&gt;Node4 -->
<g id="edge28" class="edge"><title>Node18&#45;&gt;Node4</title>
<path fill="none" stroke="midnightblue" d="M622.855,-485.248C610.524,-477.159 599.099,-466.854 592,-454 582.976,-437.66 580.41,-426.633 592,-412 635.372,-357.238 701.628,-430.762 745,-376 759.625,-357.534 756.957,-343.295 745,-323 735.83,-307.435 721.145,-295.532 705.42,-286.541"/>
<polygon fill="midnightblue" stroke="midnightblue" points="621.131,-488.296 631.494,-490.498 624.766,-482.314 621.131,-488.296"/>
</g>
<!-- Node18&#45;&gt;Node5 -->
<g id="edge33" class="edge"><title>Node18&#45;&gt;Node5</title>
<path fill="none" stroke="midnightblue" d="M757.013,-490.226C849.425,-478.326 1058.06,-510.402 1109,-454 1179.02,-376.474 1072.08,-246.685 1026.22,-197.603"/>
<polygon fill="midnightblue" stroke="midnightblue" points="756.471,-486.768 747.124,-491.756 757.542,-493.685 756.471,-486.768"/>
</g>
<!-- Node18&#45;&gt;Node6 -->
<g id="edge35" class="edge"><title>Node18&#45;&gt;Node6</title>
<path fill="none" stroke="midnightblue" d="M757.278,-490.099C854.341,-476.254 1061.7,-491.434 1134,-454 1187.87,-426.105 1223,-411.168 1223,-350.5 1223,-350.5 1223,-350.5 1223,-259.5 1223,-192.366 1151.52,-144.508 1102.65,-119.634"/>
<polygon fill="midnightblue" stroke="midnightblue" points="756.437,-486.689 747.12,-491.732 757.548,-493.6 756.437,-486.689"/>
</g>
<!-- Node18&#45;&gt;Node7 -->
<g id="edge36" class="edge"><title>Node18&#45;&gt;Node7</title>
<path fill="none" stroke="midnightblue" d="M604.642,-490.109C537.214,-479.883 400.644,-488.012 361,-454 286.57,-390.142 299.667,-321.477 344,-234 351.407,-219.385 364.449,-206.99 376.917,-197.606"/>
<polygon fill="midnightblue" stroke="midnightblue" points="604.387,-493.619 614.845,-491.918 605.609,-486.726 604.387,-493.619"/>
</g>
<!-- Node18&#45;&gt;Node8 -->
<g id="edge31" class="edge"><title>Node18&#45;&gt;Node8</title>
<path fill="none" stroke="midnightblue" d="M757.013,-490.226C849.425,-478.326 1058.06,-510.402 1109,-454 1135.4,-424.769 1238.01,-317.161 1090,-156 1072.59,-137.046 928.143,-118.886 830.621,-108.619"/>
<polygon fill="midnightblue" stroke="midnightblue" points="756.471,-486.768 747.124,-491.756 757.542,-493.685 756.471,-486.768"/>
</g>
<!-- Node18&#45;&gt;Node9 -->
<g id="edge37" class="edge"><title>Node18&#45;&gt;Node9</title>
<path fill="none" stroke="midnightblue" d="M604.843,-489.977C478.817,-467.739 433.411,-508.443 322,-454 263.41,-425.369 218,-415.711 218,-350.5 218,-350.5 218,-350.5 218,-259.5 218,-188.65 296.386,-143.118 352.727,-119.542"/>
<polygon fill="midnightblue" stroke="midnightblue" points="604.387,-493.452 614.859,-491.846 605.671,-486.571 604.387,-493.452"/>
</g>
<!-- Node18&#45;&gt;Node10 -->
<g id="edge38" class="edge"><title>Node18&#45;&gt;Node10</title>
<path fill="none" stroke="midnightblue" d="M605,-490.162C510.52,-476.943 306.312,-496.667 240,-454 195.286,-425.23 180,-403.671 180,-350.5 180,-350.5 180,-350.5 180,-259.5 180,-208.581 191.625,-149.446 198.346,-119.513"/>
<polygon fill="midnightblue" stroke="midnightblue" points="604.451,-493.619 614.878,-491.743 605.557,-486.707 604.451,-493.619"/>
</g>
<!-- Node18&#45;&gt;Node11 -->
<g id="edge32" class="edge"><title>Node18&#45;&gt;Node11</title>
<path fill="none" stroke="midnightblue" d="M757.14,-490.131C865.002,-475.251 1101.3,-498.251 1182,-454 1232.74,-426.176 1261,-408.369 1261,-350.5 1261,-350.5 1261,-350.5 1261,-176 1261,-109.185 1208.93,-103.072 1147,-78 1069.34,-46.5614 515.343,-29.6546 294.011,-24.0937"/>
<polygon fill="midnightblue" stroke="midnightblue" points="756.455,-486.696 747.113,-491.693 757.532,-493.612 756.455,-486.696"/>
</g>
<!-- Node18&#45;&gt;Node12 -->
<g id="edge34" class="edge"><title>Node18&#45;&gt;Node12</title>
<path fill="none" stroke="midnightblue" d="M757.07,-490.218C845.21,-478.743 1042.02,-507.428 1090,-454 1102.47,-440.111 1100.32,-427.552 1090,-412 1073.88,-387.711 1046.07,-372.992 1019.03,-364.082"/>
<polygon fill="midnightblue" stroke="midnightblue" points="756.465,-486.77 747.128,-491.777 757.549,-493.685 756.465,-486.77"/>
</g>
<!-- Node19 -->
<g id="node19" class="node"><title>Node19</title>
<g id="a_node19"><a xlink:href="a00083.html" target="_top" xlink:title="/home/travis/build\l/STORM&#45;IRIT/OpenGR/src\l/gr/algorithms/Functor4pcs.h">
<polygon fill="white" stroke="black" points="601.5,-412.5 601.5,-453.5 754.5,-453.5 754.5,-412.5 601.5,-412.5"/>
<text text-anchor="start" x="609.5" y="-441.5" font-family="Helvetica,sans-Serif" font-size="10.00">/home/travis/build</text>
<text text-anchor="start" x="609.5" y="-430.5" font-family="Helvetica,sans-Serif" font-size="10.00">/STORM&#45;IRIT/OpenGR/src</text>
<text text-anchor="middle" x="678" y="-419.5" font-family="Helvetica,sans-Serif" font-size="10.00">/gr/algorithms/Functor4pcs.h</text>
</a>
</g>
</g>
<!-- Node18&#45;&gt;Node19 -->
<g id="edge30" class="edge"><title>Node18&#45;&gt;Node19</title>
<path fill="none" stroke="midnightblue" d="M679.827,-480.297C679.472,-471.301 679.092,-461.653 678.77,-453.506"/>
<polygon fill="midnightblue" stroke="midnightblue" points="676.336,-480.574 680.227,-490.428 683.33,-480.298 676.336,-480.574"/>
</g>
<!-- Node20 -->
<g id="node20" class="node"><title>Node20</title>
<g id="a_node20"><a xlink:href="a00093.html" target="_top" xlink:title="/home/travis/build\l/STORM&#45;IRIT/OpenGR/src\l/gr/algorithms/PointPairFilter.h">
<polygon fill="white" stroke="black" points="773,-412.5 773,-453.5 931,-453.5 931,-412.5 773,-412.5"/>
<text text-anchor="start" x="781" y="-441.5" font-family="Helvetica,sans-Serif" font-size="10.00">/home/travis/build</text>
<text text-anchor="start" x="781" y="-430.5" font-family="Helvetica,sans-Serif" font-size="10.00">/STORM&#45;IRIT/OpenGR/src</text>
<text text-anchor="middle" x="852" y="-419.5" font-family="Helvetica,sans-Serif" font-size="10.00">/gr/algorithms/PointPairFilter.h</text>
</a>
</g>
</g>
<!-- Node18&#45;&gt;Node20 -->
<g id="edge39" class="edge"><title>Node18&#45;&gt;Node20</title>
<path fill="none" stroke="midnightblue" d="M734.26,-486.329C757.987,-475.783 785.596,-463.513 808.112,-453.506"/>
<polygon fill="midnightblue" stroke="midnightblue" points="732.753,-483.168 725.037,-490.428 735.596,-489.565 732.753,-483.168"/>
</g>
<!-- Node21 -->
<g id="node21" class="node"><title>Node21</title>
<g id="a_node21"><a xlink:href="a00099.html" target="_top" xlink:title="/home/travis/build\l/STORM&#45;IRIT/OpenGR/src\l/gr/utils/sampling.h">
<polygon fill="white" stroke="black" points="949,-412.5 949,-453.5 1081,-453.5 1081,-412.5 949,-412.5"/>
<text text-anchor="start" x="957" y="-441.5" font-family="Helvetica,sans-Serif" font-size="10.00">/home/travis/build</text>
<text text-anchor="start" x="957" y="-430.5" font-family="Helvetica,sans-Serif" font-size="10.00">/STORM&#45;IRIT/OpenGR/src</text>
<text text-anchor="middle" x="1015" y="-419.5" font-family="Helvetica,sans-Serif" font-size="10.00">/gr/utils/sampling.h</text>
</a>
</g>
</g>
<!-- Node18&#45;&gt;Node21 -->
<g id="edge40" class="edge"><title>Node18&#45;&gt;Node21</title>
<path fill="none" stroke="midnightblue" d="M757.434,-489.747C838.972,-471.34 861.979,-472.014 940,-454 942.889,-453.333 945.835,-452.633 948.807,-451.911"/>
<polygon fill="midnightblue" stroke="midnightblue" points="756.161,-486.448 747.193,-492.089 757.722,-493.272 756.161,-486.448"/>
</g>
<!-- Node21&#45;&gt;Node3 -->
<g id="edge41" class="edge"><title>Node21&#45;&gt;Node3</title>
<path fill="none" stroke="midnightblue" d="M938.979,-411.821C866.061,-394.943 793.698,-380.418 736.693,-369.485"/>
<polygon fill="midnightblue" stroke="midnightblue" points="938.27,-415.249 948.803,-414.108 939.857,-408.431 938.27,-415.249"/>
</g>
<!-- Node21&#45;&gt;Node5 -->
<g id="edge42" class="edge"><title>Node21&#45;&gt;Node5</title>
<path fill="none" stroke="midnightblue" d="M1022.95,-402.229C1032.14,-363.189 1044.52,-292.758 1032,-234 1029.29,-221.296 1023.49,-207.982 1018.15,-197.525"/>
<polygon fill="midnightblue" stroke="midnightblue" points="1019.44,-401.826 1020.46,-412.372 1026.24,-403.493 1019.44,-401.826"/>
</g>
<!-- Node21&#45;&gt;Node6 -->
<g id="edge44" class="edge"><title>Node21&#45;&gt;Node6</title>
<path fill="none" stroke="midnightblue" d="M1033.13,-403.869C1038.16,-395.186 1043.26,-385.423 1047,-376 1077.04,-300.361 1080.38,-278.816 1090,-198 1092.21,-179.464 1094.79,-174.041 1090,-156 1086.55,-143.013 1079.3,-129.897 1072.58,-119.626"/>
<polygon fill="midnightblue" stroke="midnightblue" points="1030.12,-402.092 1027.98,-412.468 1036.12,-405.69 1030.12,-402.092"/>
</g>
<!-- Node21&#45;&gt;Node7 -->
<g id="edge45" class="edge"><title>Node21&#45;&gt;Node7</title>
<path fill="none" stroke="midnightblue" d="M938.968,-410.743C888.905,-396.518 831.738,-379.74 827,-376 769.8,-330.84 804.895,-275.518 745,-234 705.632,-206.711 581.537,-191.534 495.713,-184.068"/>
<polygon fill="midnightblue" stroke="midnightblue" points="938.293,-414.189 948.868,-413.549 940.202,-407.454 938.293,-414.189"/>
</g>
<!-- Node21&#45;&gt;Node9 -->
<g id="edge46" class="edge"><title>Node21&#45;&gt;Node9</title>
<path fill="none" stroke="midnightblue" d="M939.229,-410.012C906.549,-399.452 872.88,-386.781 860,-376 804.115,-329.223 833.847,-280.822 778,-234 698.221,-167.113 582.273,-132.339 501.723,-115.169"/>
<polygon fill="midnightblue" stroke="midnightblue" points="938.266,-413.379 948.857,-413.074 940.388,-406.708 938.266,-413.379"/>
</g>
<!-- Node21&#45;&gt;Node12 -->
<g id="edge43" class="edge"><title>Node21&#45;&gt;Node12</title>
<path fill="none" stroke="midnightblue" d="M991.227,-404.711C981.334,-393.356 970.073,-380.429 961.029,-370.047"/>
<polygon fill="midnightblue" stroke="midnightblue" points="988.605,-407.03 997.813,-412.271 993.883,-402.432 988.605,-407.03"/>
</g>
</g>
</svg>
        <g id="navigator" transform="translate(0 0)" fill="#404254">
                <rect fill="#f2f5e9" fill-opacity="0.5" stroke="#606060" stroke-width=".5" x="0" y="0" width="60" height="60"/>
                <use id="zoomplus" xlink:href="#zoomPlus" x="17" y="9" onmousedown="handleZoom(evt,'in')"/>
                <use id="zoomminus" xlink:href="#zoomMin" x="42" y="9" onmousedown="handleZoom(evt,'out')"/>
                <use id="reset" xlink:href="#resetDef" x="30" y="36" onmousedown="handleReset()"/>
                <g id="arrowUp" xlink:href="#dirArrow" transform="translate(30 24)" onmousedown="handlePan(0,-1)">
                  <use xlink:href="#rim" fill="#404040">
                        <set attributeName="fill" to="#808080" begin="arrowUp.mouseover" end="arrowUp.mouseout"/>
                  </use>
                  <path fill="none" stroke="white" stroke-width="1.5" d="M0,-3.0v7 M-2.5,-0.5L0,-3.0L2.5,-0.5"/>
                </g>
                <g id="arrowRight" xlink:href="#dirArrow" transform="rotate(90) translate(36 -43)" onmousedown="handlePan(1,0)">
                  <use xlink:href="#rim" fill="#404040">
                        <set attributeName="fill" to="#808080" begin="arrowRight.mouseover" end="arrowRight.mouseout"/>
                  </use>
                  <path fill="none" stroke="white" stroke-width="1.5" d="M0,-3.0v7 M-2.5,-0.5L0,-3.0L2.5,-0.5"/>
                </g>
                <g id="arrowDown" xlink:href="#dirArrow" transform="rotate(180) translate(-30 -48)" onmousedown="handlePan(0,1)">
                  <use xlink:href="#rim" fill="#404040">
                        <set attributeName="fill" to="#808080" begin="arrowDown.mouseover" end="arrowDown.mouseout"/>
                  </use>
                  <path fill="none" stroke="white" stroke-width="1.5" d="M0,-3.0v7 M-2.5,-0.5L0,-3.0L2.5,-0.5"/>
                </g>
                <g id="arrowLeft" xlink:href="#dirArrow" transform="rotate(270) translate(-36 17)" onmousedown="handlePan(-1,0)">
                  <use xlink:href="#rim" fill="#404040">
                        <set attributeName="fill" to="#808080" begin="arrowLeft.mouseover" end="arrowLeft.mouseout"/>
                  </use>
                  <path fill="none" stroke="white" stroke-width="1.5" d="M0,-3.0v7 M-2.5,-0.5L0,-3.0L2.5,-0.5"/>
                </g>
        </g>
        <svg viewBox="0 0 15 15" width="100%" height="30px" preserveAspectRatio="xMaxYMin meet">
         <g id="arrow_out" transform="scale(0.3 0.3)">
          <a xlink:href="a00147_org.svg" target="_base">
           <rect id="button" ry="5" rx="5" y="6" x="6" height="38" width="38"
                fill="#f2f5e9" fill-opacity="0.5" stroke="#606060" stroke-width="1.0"/>
           <path id="arrow"
             d="M 11.500037,31.436501 C 11.940474,20.09759 22.043105,11.32322 32.158766,21.979434 L 37.068811,17.246167 C 37.068811,17.246167 37.088388,32 37.088388,32 L 22.160133,31.978069 C 22.160133,31.978069 26.997745,27.140456 26.997745,27.140456 C 18.528582,18.264221 13.291696,25.230495 11.500037,31.436501 z"
             style="fill:#404040;"/>
          </a>
         </g>
        </svg>
</svg>
