<?xml version="1.0" encoding="UTF-8" standalone="no"?>
<!DOCTYPE svg PUBLIC "-//W3C//DTD SVG 1.1//EN"
 "http://www.w3.org/Graphics/SVG/1.1/DTD/svg11.dtd">
<!-- Generated by graphviz version 2.38.0 (20140413.2041)
 -->
<!-- Title: /home/travis/build/STORM&#45;IRIT/OpenGR/src/gr/utils/logger.h Pages: 1 -->
<svg width="776pt" height="462pt"
 viewBox="0.00 0.00 776.00 462.00" xmlns="http://www.w3.org/2000/svg" xmlns:xlink="http://www.w3.org/1999/xlink">
<g id="graph0" class="graph" transform="scale(1 1) rotate(0) translate(4 458)">
<title>/home/travis/build/STORM&#45;IRIT/OpenGR/src/gr/utils/logger.h</title>
<polygon fill="white" stroke="none" points="-4,4 -4,-458 772,-458 772,4 -4,4"/>
<!-- Node1 -->
<g id="node1" class="node"><title>Node1</title>
<polygon fill="#bfbfbf" stroke="black" points="349.5,-412.5 349.5,-453.5 481.5,-453.5 481.5,-412.5 349.5,-412.5"/>
<text text-anchor="start" x="357.5" y="-441.5" font-family="Helvetica,sans-Serif" font-size="10.00">/home/travis/build</text>
<text text-anchor="start" x="357.5" y="-430.5" font-family="Helvetica,sans-Serif" font-size="10.00">/STORM&#45;IRIT/OpenGR/src</text>
<text text-anchor="middle" x="415.5" y="-419.5" font-family="Helvetica,sans-Serif" font-size="10.00">/gr/utils/logger.h</text>
</g>
<!-- Node2 -->
<g id="node2" class="node"><title>Node2</title>
<g id="a_node2"><a xlink:href="a00082.html" target="_top" xlink:title="/home/travis/build\l/STORM&#45;IRIT/OpenGR/src\l/gr/algorithms/congruentSetExploration\lBase.hpp">
<polygon fill="white" stroke="black" points="96,-323.5 96,-375.5 301,-375.5 301,-323.5 96,-323.5"/>
<text text-anchor="start" x="104" y="-363.5" font-family="Helvetica,sans-Serif" font-size="10.00">/home/travis/build</text>
<text text-anchor="start" x="104" y="-352.5" font-family="Helvetica,sans-Serif" font-size="10.00">/STORM&#45;IRIT/OpenGR/src</text>
<text text-anchor="start" x="104" y="-341.5" font-family="Helvetica,sans-Serif" font-size="10.00">/gr/algorithms/congruentSetExploration</text>
<text text-anchor="middle" x="198.5" y="-330.5" font-family="Helvetica,sans-Serif" font-size="10.00">Base.hpp</text>
</a>
</g>
</g>
<!-- Node1&#45;&gt;Node2 -->
<g id="edge1" class="edge"><title>Node1&#45;&gt;Node2</title>
<path fill="none" stroke="midnightblue" d="M353.958,-408.886C326.276,-398.49 293.542,-386.195 265.268,-375.576"/>
<polygon fill="midnightblue" stroke="midnightblue" points="352.931,-412.239 363.523,-412.479 355.392,-405.686 352.931,-412.239"/>
</g>
<!-- Node5 -->
<g id="node5" class="node"><title>Node5</title>
<g id="a_node5"><a xlink:href="a00087.html" target="_top" xlink:title="/home/travis/build\l/STORM&#45;IRIT/OpenGR/src\l/gr/algorithms/match3pcs.hpp">
<polygon fill="white" stroke="black" points="0,-78.5 0,-119.5 161,-119.5 161,-78.5 0,-78.5"/>
<text text-anchor="start" x="8" y="-107.5" font-family="Helvetica,sans-Serif" font-size="10.00">/home/travis/build</text>
<text text-anchor="start" x="8" y="-96.5" font-family="Helvetica,sans-Serif" font-size="10.00">/STORM&#45;IRIT/OpenGR/src</text>
<text text-anchor="middle" x="80.5" y="-85.5" font-family="Helvetica,sans-Serif" font-size="10.00">/gr/algorithms/match3pcs.hpp</text>
</a>
</g>
</g>
<!-- Node1&#45;&gt;Node5 -->
<g id="edge18" class="edge"><title>Node1&#45;&gt;Node5</title>
<path fill="none" stroke="midnightblue" d="M339.243,-429.876C252.468,-425.678 118.588,-413.184 86.5,-376 22.3093,-301.615 57.0765,-169.377 73.4767,-119.641"/>
<polygon fill="midnightblue" stroke="midnightblue" points="339.17,-433.376 349.32,-430.336 339.49,-426.383 339.17,-433.376"/>
</g>
<!-- Node6 -->
<g id="node6" class="node"><title>Node6</title>
<g id="a_node6"><a xlink:href="a00088.html" target="_top" xlink:title="/home/travis/build\l/STORM&#45;IRIT/OpenGR/src\l/gr/algorithms/match4pcsBase.h">
<polygon fill="white" stroke="black" points="409,-156.5 409,-197.5 582,-197.5 582,-156.5 409,-156.5"/>
<text text-anchor="start" x="417" y="-185.5" font-family="Helvetica,sans-Serif" font-size="10.00">/home/travis/build</text>
<text text-anchor="start" x="417" y="-174.5" font-family="Helvetica,sans-Serif" font-size="10.00">/STORM&#45;IRIT/OpenGR/src</text>
<text text-anchor="middle" x="495.5" y="-163.5" font-family="Helvetica,sans-Serif" font-size="10.00">/gr/algorithms/match4pcsBase.h</text>
</a>
</g>
</g>
<!-- Node1&#45;&gt;Node6 -->
<g id="edge19" class="edge"><title>Node1&#45;&gt;Node6</title>
<path fill="none" stroke="midnightblue" d="M464.969,-406.873C477.65,-398.494 490.292,-388.141 499.5,-376 524.641,-342.853 521.975,-328.088 528.5,-287 532.195,-263.736 534.698,-256.726 528.5,-234 524.937,-220.935 517.463,-207.814 510.528,-197.56"/>
<polygon fill="midnightblue" stroke="midnightblue" points="462.838,-404.078 456.226,-412.357 466.557,-410.009 462.838,-404.078"/>
</g>
<!-- Node8 -->
<g id="node8" class="node"><title>Node8</title>
<g id="a_node8"><a xlink:href="a00089.html" target="_top" xlink:title="/home/travis/build\l/STORM&#45;IRIT/OpenGR/src\l/gr/algorithms/match4pcsBase.hpp">
<polygon fill="white" stroke="black" points="583,-78.5 583,-119.5 768,-119.5 768,-78.5 583,-78.5"/>
<text text-anchor="start" x="591" y="-107.5" font-family="Helvetica,sans-Serif" font-size="10.00">/home/travis/build</text>
<text text-anchor="start" x="591" y="-96.5" font-family="Helvetica,sans-Serif" font-size="10.00">/STORM&#45;IRIT/OpenGR/src</text>
<text text-anchor="middle" x="675.5" y="-85.5" font-family="Helvetica,sans-Serif" font-size="10.00">/gr/algorithms/match4pcsBase.hpp</text>
</a>
</g>
</g>
<!-- Node1&#45;&gt;Node8 -->
<g id="edge20" class="edge"><title>Node1&#45;&gt;Node8</title>
<path fill="none" stroke="midnightblue" d="M478.609,-407.982C495.194,-399.615 512.155,-388.99 525.5,-376 605.415,-298.208 653.372,-168.578 669.433,-119.57"/>
<polygon fill="midnightblue" stroke="midnightblue" points="476.944,-404.9 469.46,-412.399 479.987,-411.203 476.944,-404.9"/>
</g>
<!-- Node11 -->
<g id="node11" class="node"><title>Node11</title>
<g id="a_node11"><a xlink:href="a00090.html" target="_top" xlink:title="/home/travis/build\l/STORM&#45;IRIT/OpenGR/src\l/gr/algorithms/matchBase.h">
<polygon fill="white" stroke="black" points="340.5,-329 340.5,-370 490.5,-370 490.5,-329 340.5,-329"/>
<text text-anchor="start" x="348.5" y="-358" font-family="Helvetica,sans-Serif" font-size="10.00">/home/travis/build</text>
<text text-anchor="start" x="348.5" y="-347" font-family="Helvetica,sans-Serif" font-size="10.00">/STORM&#45;IRIT/OpenGR/src</text>
<text text-anchor="middle" x="415.5" y="-336" font-family="Helvetica,sans-Serif" font-size="10.00">/gr/algorithms/matchBase.h</text>
</a>
</g>
</g>
<!-- Node1&#45;&gt;Node11 -->
<g id="edge13" class="edge"><title>Node1&#45;&gt;Node11</title>
<path fill="none" stroke="midnightblue" d="M415.5,-402.065C415.5,-391.382 415.5,-379.63 415.5,-370.047"/>
<polygon fill="midnightblue" stroke="midnightblue" points="412,-402.271 415.5,-412.271 419,-402.271 412,-402.271"/>
</g>
<!-- Node3 -->
<g id="node3" class="node"><title>Node3</title>
<g id="a_node3"><a xlink:href="a00081.html" target="_top" xlink:title="/home/travis/build\l/STORM&#45;IRIT/OpenGR/src\l/gr/algorithms/congruentSetExploration\lBase.h">
<polygon fill="white" stroke="black" points="96,-234.5 96,-286.5 301,-286.5 301,-234.5 96,-234.5"/>
<text text-anchor="start" x="104" y="-274.5" font-family="Helvetica,sans-Serif" font-size="10.00">/home/travis/build</text>
<text text-anchor="start" x="104" y="-263.5" font-family="Helvetica,sans-Serif" font-size="10.00">/STORM&#45;IRIT/OpenGR/src</text>
<text text-anchor="start" x="104" y="-252.5" font-family="Helvetica,sans-Serif" font-size="10.00">/gr/algorithms/congruentSetExploration</text>
<text text-anchor="middle" x="198.5" y="-241.5" font-family="Helvetica,sans-Serif" font-size="10.00">Base.h</text>
</a>
</g>
</g>
<!-- Node2&#45;&gt;Node3 -->
<g id="edge2" class="edge"><title>Node2&#45;&gt;Node3</title>
<path fill="none" stroke="midnightblue" d="M191.858,-313.191C191.621,-304.282 191.775,-294.899 192.318,-286.607"/>
<polygon fill="midnightblue" stroke="midnightblue" points="188.368,-313.503 192.314,-323.336 195.361,-313.189 188.368,-313.503"/>
</g>
<!-- Node3&#45;&gt;Node2 -->
<g id="edge3" class="edge"><title>Node3&#45;&gt;Node2</title>
<path fill="none" stroke="midnightblue" d="M205.141,-296.749C205.379,-305.655 205.227,-315.04 204.686,-323.336"/>
<polygon fill="midnightblue" stroke="midnightblue" points="208.631,-296.439 204.682,-286.607 201.638,-296.755 208.631,-296.439"/>
</g>
<!-- Node4 -->
<g id="node4" class="node"><title>Node4</title>
<g id="a_node4"><a xlink:href="a00086.html" target="_top" xlink:title="/home/travis/build\l/STORM&#45;IRIT/OpenGR/src\l/gr/algorithms/match3pcs.h">
<polygon fill="white" stroke="black" points="110,-156.5 110,-197.5 259,-197.5 259,-156.5 110,-156.5"/>
<text text-anchor="start" x="118" y="-185.5" font-family="Helvetica,sans-Serif" font-size="10.00">/home/travis/build</text>
<text text-anchor="start" x="118" y="-174.5" font-family="Helvetica,sans-Serif" font-size="10.00">/STORM&#45;IRIT/OpenGR/src</text>
<text text-anchor="middle" x="184.5" y="-163.5" font-family="Helvetica,sans-Serif" font-size="10.00">/gr/algorithms/match3pcs.h</text>
</a>
</g>
</g>
<!-- Node3&#45;&gt;Node4 -->
<g id="edge4" class="edge"><title>Node3&#45;&gt;Node4</title>
<path fill="none" stroke="midnightblue" d="M192.427,-224.147C190.865,-215.055 189.241,-205.597 187.872,-197.628"/>
<polygon fill="midnightblue" stroke="midnightblue" points="189.005,-224.897 194.147,-234.16 195.903,-223.711 189.005,-224.897"/>
</g>
<!-- Node3&#45;&gt;Node6 -->
<g id="edge7" class="edge"><title>Node3&#45;&gt;Node6</title>
<path fill="none" stroke="midnightblue" d="M299.391,-231.814C340.452,-220.547 386.944,-207.789 424.351,-197.524"/>
<polygon fill="midnightblue" stroke="midnightblue" points="298.345,-228.472 289.628,-234.493 300.198,-235.222 298.345,-228.472"/>
</g>
<!-- Node4&#45;&gt;Node5 -->
<g id="edge5" class="edge"><title>Node4&#45;&gt;Node5</title>
<path fill="none" stroke="midnightblue" d="M143.384,-150.635C128.925,-140.487 113.323,-128.982 101.21,-119.506"/>
<polygon fill="midnightblue" stroke="midnightblue" points="141.518,-153.601 151.729,-156.428 145.51,-147.851 141.518,-153.601"/>
</g>
<!-- Node5&#45;&gt;Node4 -->
<g id="edge6" class="edge"><title>Node5&#45;&gt;Node4</title>
<path fill="none" stroke="midnightblue" d="M121.515,-125.294C135.968,-135.436 151.576,-146.943 163.706,-156.428"/>
<polygon fill="midnightblue" stroke="midnightblue" points="123.385,-122.331 113.174,-119.506 119.394,-128.082 123.385,-122.331"/>
</g>
<!-- Node7 -->
<g id="node7" class="node"><title>Node7</title>
<g id="a_node7"><a xlink:href="a00084.html" target="_top" xlink:title="/home/travis/build\l/STORM&#45;IRIT/OpenGR/src\l/gr/algorithms/FunctorBrute4pcs.h">
<polygon fill="white" stroke="black" points="179,-78.5 179,-119.5 358,-119.5 358,-78.5 179,-78.5"/>
<text text-anchor="start" x="187" y="-107.5" font-family="Helvetica,sans-Serif" font-size="10.00">/home/travis/build</text>
<text text-anchor="start" x="187" y="-96.5" font-family="Helvetica,sans-Serif" font-size="10.00">/STORM&#45;IRIT/OpenGR/src</text>
<text text-anchor="middle" x="268.5" y="-85.5" font-family="Helvetica,sans-Serif" font-size="10.00">/gr/algorithms/FunctorBrute4pcs.h</text>
</a>
</g>
</g>
<!-- Node6&#45;&gt;Node7 -->
<g id="edge8" class="edge"><title>Node6&#45;&gt;Node7</title>
<path fill="none" stroke="midnightblue" d="M427.296,-153.165C395.251,-142.437 357.444,-129.779 326.76,-119.506"/>
<polygon fill="midnightblue" stroke="midnightblue" points="426.448,-156.572 437.042,-156.428 428.67,-149.934 426.448,-156.572"/>
</g>
<!-- Node6&#45;&gt;Node8 -->
<g id="edge9" class="edge"><title>Node6&#45;&gt;Node8</title>
<path fill="none" stroke="midnightblue" d="M545.259,-152.329C569.548,-141.783 598.717,-129.513 623.32,-119.506"/>
<polygon fill="midnightblue" stroke="midnightblue" points="543.631,-149.22 535.866,-156.428 546.431,-155.636 543.631,-149.22"/>
</g>
<!-- Node9 -->
<g id="node9" class="node"><title>Node9</title>
<g id="a_node9"><a xlink:href="a00092.html" target="_top" xlink:title="/home/travis/build\l/STORM&#45;IRIT/OpenGR/src\l/gr/algorithms/pairCreationFunctor.h">
<polygon fill="white" stroke="black" points="376.5,-78.5 376.5,-119.5 564.5,-119.5 564.5,-78.5 376.5,-78.5"/>
<text text-anchor="start" x="384.5" y="-107.5" font-family="Helvetica,sans-Serif" font-size="10.00">/home/travis/build</text>
<text text-anchor="start" x="384.5" y="-96.5" font-family="Helvetica,sans-Serif" font-size="10.00">/STORM&#45;IRIT/OpenGR/src</text>
<text text-anchor="middle" x="470.5" y="-85.5" font-family="Helvetica,sans-Serif" font-size="10.00">/gr/algorithms/pairCreationFunctor.h</text>
</a>
</g>
</g>
<!-- Node6&#45;&gt;Node9 -->
<g id="edge11" class="edge"><title>Node6&#45;&gt;Node9</title>
<path fill="none" stroke="midnightblue" d="M485.922,-146.882C482.908,-137.721 479.655,-127.83 476.916,-119.506"/>
<polygon fill="midnightblue" stroke="midnightblue" points="482.612,-148.023 489.062,-156.428 489.262,-145.835 482.612,-148.023"/>
</g>
<!-- Node8&#45;&gt;Node6 -->
<g id="edge10" class="edge"><title>Node8&#45;&gt;Node6</title>
<path fill="none" stroke="midnightblue" d="M625.902,-123.601C601.635,-134.139 572.466,-146.411 547.843,-156.428"/>
<polygon fill="midnightblue" stroke="midnightblue" points="627.52,-126.714 635.285,-119.506 624.72,-120.298 627.52,-126.714"/>
</g>
<!-- Node10 -->
<g id="node10" class="node"><title>Node10</title>
<g id="a_node10"><a xlink:href="a00085.html" target="_top" xlink:title="/home/travis/build\l/STORM&#45;IRIT/OpenGR/src\l/gr/algorithms/FunctorSuper4pcs.h">
<polygon fill="white" stroke="black" points="379.5,-0.5 379.5,-41.5 561.5,-41.5 561.5,-0.5 379.5,-0.5"/>
<text text-anchor="start" x="387.5" y="-29.5" font-family="Helvetica,sans-Serif" font-size="10.00">/home/travis/build</text>
<text text-anchor="start" x="387.5" y="-18.5" font-family="Helvetica,sans-Serif" font-size="10.00">/STORM&#45;IRIT/OpenGR/src</text>
<text text-anchor="middle" x="470.5" y="-7.5" font-family="Helvetica,sans-Serif" font-size="10.00">/gr/algorithms/FunctorSuper4pcs.h</text>
</a>
</g>
</g>
<!-- Node9&#45;&gt;Node10 -->
<g id="edge12" class="edge"><title>Node9&#45;&gt;Node10</title>
<path fill="none" stroke="midnightblue" d="M470.5,-68.2965C470.5,-59.3009 470.5,-49.6532 470.5,-41.5056"/>
<polygon fill="midnightblue" stroke="midnightblue" points="467,-68.4281 470.5,-78.4281 474,-68.4281 467,-68.4281"/>
</g>
<!-- Node11&#45;&gt;Node3 -->
<g id="edge14" class="edge"><title>Node11&#45;&gt;Node3</title>
<path fill="none" stroke="midnightblue" d="M357.389,-325.202C327.65,-313.279 291.418,-298.753 261.067,-286.585"/>
<polygon fill="midnightblue" stroke="midnightblue" points="356.217,-328.503 366.801,-328.976 358.822,-322.006 356.217,-328.503"/>
</g>
<!-- Node11&#45;&gt;Node4 -->
<g id="edge15" class="edge"><title>Node11&#45;&gt;Node4</title>
<path fill="none" stroke="midnightblue" d="M384.012,-321.884C372.375,-311.47 359.381,-299.127 348.5,-287 328.969,-265.232 332.263,-252.362 309.5,-234 290.436,-218.622 266.478,-206.553 244.65,-197.62"/>
<polygon fill="midnightblue" stroke="midnightblue" points="381.993,-324.77 391.809,-328.759 386.623,-319.52 381.993,-324.77"/>
</g>
<!-- Node12 -->
<g id="node12" class="node"><title>Node12</title>
<g id="a_node12"><a xlink:href="a00091.html" target="_top" xlink:title="/home/travis/build\l/STORM&#45;IRIT/OpenGR/src\l/gr/algorithms/matchBase.hpp">
<polygon fill="white" stroke="black" points="357.5,-240 357.5,-281 519.5,-281 519.5,-240 357.5,-240"/>
<text text-anchor="start" x="365.5" y="-269" font-family="Helvetica,sans-Serif" font-size="10.00">/home/travis/build</text>
<text text-anchor="start" x="365.5" y="-258" font-family="Helvetica,sans-Serif" font-size="10.00">/STORM&#45;IRIT/OpenGR/src</text>
<text text-anchor="middle" x="438.5" y="-247" font-family="Helvetica,sans-Serif" font-size="10.00">/gr/algorithms/matchBase.hpp</text>
</a>
</g>
</g>
<!-- Node11&#45;&gt;Node12 -->
<g id="edge16" class="edge"><title>Node11&#45;&gt;Node12</title>
<path fill="none" stroke="midnightblue" d="M416.91,-318.814C419.617,-306.383 423.575,-292.273 427.548,-281.164"/>
<polygon fill="midnightblue" stroke="midnightblue" points="413.45,-318.271 414.958,-328.758 420.319,-319.62 413.45,-318.271"/>
</g>
<!-- Node12&#45;&gt;Node11 -->
<g id="edge17" class="edge"><title>Node12&#45;&gt;Node11</title>
<path fill="none" stroke="midnightblue" d="M437.109,-291.099C434.408,-303.522 430.453,-317.635 426.48,-328.758"/>
<polygon fill="midnightblue" stroke="midnightblue" points="440.567,-291.65 439.055,-281.164 433.698,-290.304 440.567,-291.65"/>
</g>
</g>
</svg>
