<?xml version="1.0" encoding="UTF-8" standalone="no"?>
<!DOCTYPE svg PUBLIC "-//W3C//DTD SVG 1.1//EN"
 "http://www.w3.org/Graphics/SVG/1.1/DTD/svg11.dtd">
<!-- Generated by graphviz version 2.38.0 (20140413.2041)
 -->
<!-- Title: /home/travis/build/STORM&#45;IRIT/OpenGR/src/gr/algorithms Pages: 1 -->
<svg width="129pt" height="223pt"
 viewBox="0.00 0.00 129.00 223.00" xmlns="http://www.w3.org/2000/svg" xmlns:xlink="http://www.w3.org/1999/xlink">
<g id="graph0" class="graph" transform="scale(1 1) rotate(0) translate(4 219)">
<title>/home/travis/build/STORM&#45;IRIT/OpenGR/src/gr/algorithms</title>
<polygon fill="white" stroke="none" points="-4,4 -4,-219 125,-219 125,4 -4,4"/>
<g id="clust1" class="cluster"><title>clusterdir_c4f313d5a5a06d3df1775d2f8ed15e3e</title>
<g id="a_clust1"><a xlink:href="dir_c4f313d5a5a06d3df1775d2f8ed15e3e.html" target="_top" xlink:title="gr">
<polygon fill="#ddddee" stroke="black" points="29,-136 29,-207 113,-207 113,-136 29,-136"/>
<text text-anchor="middle" x="71" y="-195" font-family="Helvetica,sans-Serif" font-size="10.00">gr</text>
</a>
</g>
</g>
<!-- dir_ff87653ee392cb107f1e1f663e7b33fa -->
<g id="node1" class="node"><title>dir_ff87653ee392cb107f1e1f663e7b33fa</title>
<g id="a_node1"><a xlink:href="dir_ff87653ee392cb107f1e1f663e7b33fa.html" target="_top" xlink:title="algorithms">
<polygon fill="#eeeeff" stroke="black" points="105,-180 37,-180 37,-144 105,-144 105,-180"/>
<text text-anchor="middle" x="71" y="-159.5" font-family="Helvetica,sans-Serif" font-size="10.00">algorithms</text>
</a>
</g>
</g>
<!-- dir_0523569e8d6ef94c93eef6d8c11eddae -->
<g id="node2" class="node"><title>dir_0523569e8d6ef94c93eef6d8c11eddae</title>
<g id="a_node2"><a xlink:href="dir_0523569e8d6ef94c93eef6d8c11eddae.html" target="_top" xlink:title="accelerators">
<polygon fill="white" stroke="red" points="76,-108 0,-108 0,-72 76,-72 76,-108"/>
<text text-anchor="middle" x="38" y="-87.5" font-family="Helvetica,sans-Serif" font-size="10.00">accelerators</text>
</a>
</g>
</g>
<!-- dir_ff87653ee392cb107f1e1f663e7b33fa&#45;&gt;dir_0523569e8d6ef94c93eef6d8c11eddae -->
<g id="edge1" class="edge"><title>dir_ff87653ee392cb107f1e1f663e7b33fa&#45;&gt;dir_0523569e8d6ef94c93eef6d8c11eddae</title>
<path fill="none" stroke="black" d="M62.8427,-143.697C59.0862,-135.728 54.5469,-126.1 50.3817,-117.264"/>
<polygon fill="black" stroke="black" points="53.4936,-115.657 46.0635,-108.104 47.1619,-118.642 53.4936,-115.657"/>
<g id="a_edge1&#45;headlabel"><a xlink:href="dir_000004_000002.html" target="_top" xlink:title="9">
<text text-anchor="middle" x="57.5945" y="-115.198" font-family="Helvetica,sans-Serif" font-size="10.00">9</text>
</a>
</g>
</g>
<!-- dir_d61df41b5dcd84227f20867a2f945b90 -->
<g id="node3" class="node"><title>dir_d61df41b5dcd84227f20867a2f945b90</title>
<g id="a_node3"><a xlink:href="dir_d61df41b5dcd84227f20867a2f945b90.html" target="_top" xlink:title="utils">
<polygon fill="none" stroke="black" points="65,-36 11,-36 11,-0 65,-0 65,-36"/>
<text text-anchor="middle" x="38" y="-15.5" font-family="Helvetica,sans-Serif" font-size="10.00">utils</text>
</a>
</g>
</g>
<!-- dir_ff87653ee392cb107f1e1f663e7b33fa&#45;&gt;dir_d61df41b5dcd84227f20867a2f945b90 -->
<g id="edge2" class="edge"><title>dir_ff87653ee392cb107f1e1f663e7b33fa&#45;&gt;dir_d61df41b5dcd84227f20867a2f945b90</title>
<path fill="none" stroke="black" d="M78.7822,-143.734C85.8972,-125.4 94.0466,-95.8365 85,-72 81.0317,-61.544 73.9519,-51.8287 66.4721,-43.6472"/>
<polygon fill="black" stroke="black" points="68.767,-40.9886 59.2666,-36.299 63.769,-45.8896 68.767,-40.9886"/>
<g id="a_edge2&#45;headlabel"><a xlink:href="dir_000004_000005.html" target="_top" xlink:title="25">
<text text-anchor="middle" x="73.311" y="-39.0673" font-family="Helvetica,sans-Serif" font-size="10.00">25</text>
</a>
</g>
</g>
<!-- dir_0523569e8d6ef94c93eef6d8c11eddae&#45;&gt;dir_d61df41b5dcd84227f20867a2f945b90 -->
<g id="edge3" class="edge"><title>dir_0523569e8d6ef94c93eef6d8c11eddae&#45;&gt;dir_d61df41b5dcd84227f20867a2f945b90</title>
<path fill="none" stroke="black" d="M32.0843,-71.6966C31.2886,-63.9827 31.0621,-54.7125 31.4047,-46.1124"/>
<polygon fill="black" stroke="black" points="34.8984,-46.3243 32.105,-36.1043 27.9154,-45.8356 34.8984,-46.3243"/>
<g id="a_edge3&#45;headlabel"><a xlink:href="dir_000002_000005.html" target="_top" xlink:title="3">
<text text-anchor="middle" x="37.4799" y="-47.6083" font-family="Helvetica,sans-Serif" font-size="10.00">3</text>
</a>
</g>
</g>
<!-- dir_d61df41b5dcd84227f20867a2f945b90&#45;&gt;dir_0523569e8d6ef94c93eef6d8c11eddae -->
<g id="edge4" class="edge"><title>dir_d61df41b5dcd84227f20867a2f945b90&#45;&gt;dir_0523569e8d6ef94c93eef6d8c11eddae</title>
<path fill="none" stroke="black" d="M43.895,-36.1043C44.7005,-43.7913 44.9369,-53.0537 44.604,-61.6651"/>
<polygon fill="black" stroke="black" points="41.1085,-61.4805 43.9157,-71.6966 48.0921,-61.9597 41.1085,-61.4805"/>
<g id="a_edge4&#45;headlabel"><a xlink:href="dir_000005_000002.html" target="_top" xlink:title="1">
<text text-anchor="middle" x="38.5219" y="-55.2" font-family="Helvetica,sans-Serif" font-size="10.00">1</text>
</a>
</g>
</g>
</g>
</svg>
