<?xml version="1.0" encoding="UTF-8" standalone="no"?>
<!DOCTYPE svg PUBLIC "-//W3C//DTD SVG 1.1//EN"
 "http://www.w3.org/Graphics/SVG/1.1/DTD/svg11.dtd">
<!-- Generated by graphviz version 2.38.0 (20140413.2041)
 -->
<!-- Title: /home/travis/build/STORM&#45;IRIT/OpenGR/src/gr/utils Pages: 1 -->
<svg width="94pt" height="151pt"
 viewBox="0.00 0.00 94.00 151.00" xmlns="http://www.w3.org/2000/svg" xmlns:xlink="http://www.w3.org/1999/xlink">
<g id="graph0" class="graph" transform="scale(1 1) rotate(0) translate(4 147)">
<title>/home/travis/build/STORM&#45;IRIT/OpenGR/src/gr/utils</title>
<polygon fill="white" stroke="none" points="-4,4 -4,-147 90,-147 90,4 -4,4"/>
<g id="clust1" class="cluster"><title>clusterdir_c4f313d5a5a06d3df1775d2f8ed15e3e</title>
<g id="a_clust1"><a xlink:href="dir_c4f313d5a5a06d3df1775d2f8ed15e3e.html" target="_top" xlink:title="gr">
<polygon fill="#ddddee" stroke="black" points="8,-64 8,-135 78,-135 78,-64 8,-64"/>
<text text-anchor="middle" x="43" y="-123" font-family="Helvetica,sans-Serif" font-size="10.00">gr</text>
</a>
</g>
</g>
<!-- dir_d61df41b5dcd84227f20867a2f945b90 -->
<g id="node1" class="node"><title>dir_d61df41b5dcd84227f20867a2f945b90</title>
<g id="a_node1"><a xlink:href="dir_d61df41b5dcd84227f20867a2f945b90.html" target="_top" xlink:title="utils">
<polygon fill="#eeeeff" stroke="black" points="70,-108 16,-108 16,-72 70,-72 70,-108"/>
<text text-anchor="middle" x="43" y="-87.5" font-family="Helvetica,sans-Serif" font-size="10.00">utils</text>
</a>
</g>
</g>
<!-- dir_0523569e8d6ef94c93eef6d8c11eddae -->
<g id="node2" class="node"><title>dir_0523569e8d6ef94c93eef6d8c11eddae</title>
<g id="a_node2"><a xlink:href="dir_0523569e8d6ef94c93eef6d8c11eddae.html" target="_top" xlink:title="accelerators">
<polygon fill="white" stroke="red" points="81,-36 5,-36 5,-0 81,-0 81,-36"/>
<text text-anchor="middle" x="43" y="-15.5" font-family="Helvetica,sans-Serif" font-size="10.00">accelerators</text>
</a>
</g>
</g>
<!-- dir_d61df41b5dcd84227f20867a2f945b90&#45;&gt;dir_0523569e8d6ef94c93eef6d8c11eddae -->
<g id="edge2" class="edge"><title>dir_d61df41b5dcd84227f20867a2f945b90&#45;&gt;dir_0523569e8d6ef94c93eef6d8c11eddae</title>
<path fill="none" stroke="black" d="M37.0843,-71.6966C36.2886,-63.9827 36.0621,-54.7125 36.4047,-46.1124"/>
<polygon fill="black" stroke="black" points="39.8984,-46.3243 37.105,-36.1043 32.9154,-45.8356 39.8984,-46.3243"/>
<g id="a_edge2&#45;headlabel"><a xlink:href="dir_000005_000002.html" target="_top" xlink:title="1">
<text text-anchor="middle" x="42.4799" y="-47.6083" font-family="Helvetica,sans-Serif" font-size="10.00">1</text>
</a>
</g>
</g>
<!-- dir_0523569e8d6ef94c93eef6d8c11eddae&#45;&gt;dir_d61df41b5dcd84227f20867a2f945b90 -->
<g id="edge1" class="edge"><title>dir_0523569e8d6ef94c93eef6d8c11eddae&#45;&gt;dir_d61df41b5dcd84227f20867a2f945b90</title>
<path fill="none" stroke="black" d="M48.895,-36.1043C49.7005,-43.7913 49.9369,-53.0537 49.604,-61.6651"/>
<polygon fill="black" stroke="black" points="46.1085,-61.4805 48.9157,-71.6966 53.0921,-61.9597 46.1085,-61.4805"/>
<g id="a_edge1&#45;headlabel"><a xlink:href="dir_000002_000005.html" target="_top" xlink:title="3">
<text text-anchor="middle" x="43.5219" y="-55.2" font-family="Helvetica,sans-Serif" font-size="10.00">3</text>
</a>
</g>
</g>
</g>
</svg>
